0
SECTION
2
HEADER
9
$INSUNITS
70
4
9
$ACADVER
1
AC1014
9
$HANDSEED
5
FFFF
0
ENDSEC
0
SECTION
2
TABLES
0
TABLE
2
VPORT
5
8
100
AcDbSymbolTable
0
ENDTAB
0
TABLE
2
LTYPE
5
5
100
AcDbSymbolTable
0
LTYPE
5
14
100
AcDbSymbolTableRecord
100
AcDbLinetypeTableRecord
2
BYBLOCK
70
0
0
LTYPE
5
15
100
AcDbSymbolTableRecord
100
AcDbLinetypeTableRecord
2
BYLAYER
70
0
0
ENDTAB
0
TABLE
2
LAYER
5
2
100
AcDbSymbolTable
70
2
0
LAYER
5
50
100
AcDbSymbolTableRecord
100
AcDbLayerTableRecord
2
0
70
0
6
CONTINUOUS
0
ENDTAB
0
TABLE
2
STYLE
5
3
100
AcDbSymbolTable
70
1
0
STYLE
5
11
100
AcDbSymbolTableRecord
100
AcDbTextStyleTableRecord
2
STANDARD
70
0
0
ENDTAB
0
TABLE
2
VIEW
5
6
100
AcDbSymbolTable
70
0
0
ENDTAB
0
TABLE
2
UCS
5
7
100
AcDbSymbolTable
70
0
0
ENDTAB
0
TABLE
2
APPID
5
9
100
AcDbSymbolTable
70
2
0
APPID
5
12
100
AcDbSymbolTableRecord
100
AcDbRegAppTableRecord
2
ACAD
70
0
0
ENDTAB
0
TABLE
2
DIMSTYLE
5
A
100
AcDbSymbolTable
70
1
0
ENDTAB
0
TABLE
2
BLOCK_RECORD
5
1
100
AcDbSymbolTable
70
1
0
BLOCK_RECORD
5
1F
100
AcDbSymbolTableRecord
100
AcDbBlockTableRecord
2
*MODEL_SPACE
0
BLOCK_RECORD
5
1B
100
AcDbSymbolTableRecord
100
AcDbBlockTableRecord
2
*PAPER_SPACE
0
ENDTAB
0
ENDSEC
0
SECTION
2
BLOCKS
0
BLOCK
5
20
100
AcDbEntity
100
AcDbBlockBegin
2
*MODEL_SPACE
0
ENDBLK
5
21
100
AcDbEntity
100
AcDbBlockEnd
0
BLOCK
5
1C
100
AcDbEntity
100
AcDbBlockBegin
2
*PAPER_SPACE
0
ENDBLK
5
1D
100
AcDbEntity
100
AcDbBlockEnd
0
ENDSEC
0
SECTION
2
ENTITIES
0
LWPOLYLINE
5
100
100
AcDbEntity
8
0
100
AcDbPolyline
90
2520
70
1
43
0.0
10
124.02271650326576
20
1.0973031720116342
42
-0.28407904384041238
10
124.49049554255596
20
1.4461969020971643
42
-0.28407904384041993
10
125.01175272757436
20
1.1838326294551182
42
-0.084315707887141753
10
125.1248485004221
20
0.86862575679052845
42
0.37671507298012397
10
125.28440502477358
20
0.7514871540421808
42
0.0011696483071580413
10
125.8168804730238
20
0.80275870814278238
42
0.37671507298011592
10
125.95115439551343
20
0.94818996494888452
42
-0.084315707887140975
10
126.00202797376488
20
1.2791852903643821
42
-0.28407904384041227
10
126.46364673286078
20
1.636189752161437
42
-0.28407904384041949
10
126.98940341580588
20
1.3829626311202048
42
-0.084315707887140975
10
127.10798308207322
20
1.0697775593831473
42
0.37671507298011836
10
127.26955965569786
20
0.95544144272411202
42
0.0011696483071461765
10
127.80105919335737
20
1.0159981658593917
42
0.37671507298032897
10
127.93277453987585
20
1.1637506758499028
42
-0.084315707887141531
10
127.97786370488694
20
1.4955834554386875
42
-0.2840790438404166
10
128.43318157024274
20
1.8605899019298371
42
-0.28407904384040916
10
128.96327760053583
20
1.6165770679235565
42
-0.084315707887136618
10
129.08730503970762
20
1.3055091963207617
42
0.37671507298011125
10
129.25085244481585
20
1.1940103936397151
42
0.0011696483071461765
10
129.78121417197679
20
1.2638338396452147
42
0.37671507298013268
10
129.91033082075347
20
1.4138625959742495
42
-0.084315707887141308
10
129.94962183792774
20
1.7464317502571236
42
-0.28407904384040905
10
130.39850011531084
20
2.1193289969428815
42
-0.28407904384043015
10
130.93277402056594
20
1.884604778644573
42
-0.084315707887139518
10
131.06221145268285
20
1.5757488614631239
42
0.37671507298002321
10
131.22767987115077
20
1.4671213363754809
42
0.0011696483071580413
10
131.7567422344932
20
1.5461902363531532
42
0.37671507298020707
10
131.88322085534617
20
1.6984495388081955
42
-0.084315707887141753
10
131.91670175625916
20
2.0316537639991052
42
-0.28407904384042149
10
132.35900371299795
20
2.4123282227657756
42
-0.28407904384040772
10
132.89729274820783
20
2.1869641194461713
42
-0.084315707887140642
10
133.03210074537412
20
1.8804142371903914
42
0.37671507298001999
10
133.19943977391853
20
1.7746910786925874
42
0.0011696483071580413
10
133.72704161592151
20
1.8629813474895751
42
0.37671507298020018
10
133.85084368223761
20
2.0174248164121247
42
-0.084315707887139296
10
133.8785042682826
20
2.3511626152762393
42
-0.28407904384040145
10
134.3140951749163
20
2.7394983289960111
42
-0.28407904384043076
10
134.85623537202645
20
2.5235629887441413
42
-0.084315707887139074
10
134.99637287042015
20
2.2194125194777614
42
0.37671507298000356
10
135.16553153595194
20
2.1166259318681035
42
0.0011696483071580413
10
135.69151214398337
20
2.2141106754131439
42
0.37671507298022294
10
135.81259994445392
20
2.3706912658264399
42
-0.084315707887140198
10
135.83443178994844
20
2.7048609785972397
42
-0.28407904384040661
10
136.26317896126727
20
3.100739656449842
42
-0.28407904384041516
10
136.80900517912167
20
2.89429885526213
42
-0.08431570788713863
10
136.95442949150339
20
2.5926404461644905
42
0.37671507298018836
10
137.12535626665442
20
2.4928217392332463
42
0.0011696483071461765
10
137.64955542192578
20
2.5994712627291561
42
0.37671507298022544
10
137.7678920720337
20
2.7581412786685267
42
-0.084315707887140864
10
137.78388852678606
20
3.0926411140143313
42
-0.28407904384042593
10
138.20566136224835
20
3.4959421675194999
42
-0.28407904384040533
10
138.75500733689353
20
3.2990587892638681
42
-0.084315707887141308
10
138.9056741656089
20
2.9999843284085896
42
0.37671507298016371
10
139.07831698442757
20
2.9031639079008364
42
0.0011696483071461765
10
139.60057501079825
20
3.0189457248696443
42
0.37671507298029039
10
139.71612446405362
20
3.1796568339111579
42
-0.084315707887141086
10
139.72628065538879
20
3.5143848999417449
42
-0.28407904384041177
10
140.14095067890293
20
3.9249854796917196
42
-0.2840790438404231
10
140.69364907423346
20
3.7377194969524226
42
-0.084315707887142433
10
140.84951252470691
20
3.4413200853174923
42
0.37671507298014689
10
141.02381879851819
20
3.347527443671261
42
0.0011696483071461765
10
141.54397661113401
20
3.4724062858498623
42
0.37671507298019147
10
141.6567036700539
20
3.6351095338328552
42
-0.084315707887140864
10
141.66101650429761
20
3.9699638691367407
42
-0.28407904384042137
10
142.06845740335748
20
4.3877389022173592
42
-0.28407904384041405
10
142.62433986208802
20
4.210147358026826
42
-0.084315707887145444
10
142.78535245680263
20
3.9165132817442903
42
0.37671507297993478
10
142.96126909022686
20
3.8257769891067639
42
0.0011696483071461765
10
143.47916824397947
20
3.9597148171902239
42
0.37671507298012635
10
143.58903857080981
20
4.1243606431292221
42
-0.084315707887139962
10
143.587506734231
20
4.4592392478320395
42
-0.28407904384042881
10
143.98759439839185
20
4.884061475921154
42
-0.28407904384038934
10
144.54649159334036
20
4.7161984663840872
42
-0.084315707887141753
10
144.71260428630006
20
4.4254191692381202
42
0.37671507298014018
10
144.89007769342678
20
4.337766864763033
42
0.0011696483071461765
10
145.40556043121657
20
4.4807228799913421
42
0.37671507298013174
10
145.51254055839149
20
4.6472611311728134
42
-0.084315707887140309
10
145.50516451760237
20
4.9820619980075502
42
-0.28407904384041566
10
145.89777707628588
20
5.4138020161391225
42
-0.28407904384040639
10
146.45951876195281
20
5.2557186739543829
42
-0.084315707887140864
10
146.63068095362209
20
4.967882730135714
42
0.37671507298010842
10
146.80965707433214
20
4.8833411135641569
42
0.0011696483071461765
10
147.32256637512376
20
5.0352717701501915
42
0.37671507298012968
10
147.42662371546015
20
5.2036517174095342
42
-0.084315707887139629
10
147.41340571727417
20
5.5382728627888564
42
-0.28407904384041838
10
147.79842357689165
20
5.9767991587710201
42
-0.28407904384041827
10
148.36283864131781
20
5.8285436376560025
42
-0.084315707887138408
10
148.53899819403503
20
5.5437387247814573
42
0.37671507298015411
10
148.71942251046829
20
5.4623335483087843
42
0.0011696483071461765
10
149.22960213712005
20
5.6231925667028371
42
0.37671507298002477
10
149.33070499374401
20
5.7933629198769543
42
-0.084315707887142322
10
149.31164906449158
20
6.1277024149584305
42
-0.28407904384042448
10
149.68895494487325
20
6.5728814094333297
42
-0.28407904384040245
10
150.25587146176233
20
6.4344988694559557
42
-0.084315707887135716
10
150.43697471562123
20
6.1528117418609609
42
0.37671507298000689
10
150.61879226878304
20
6.074567802292492
42
0.0011696483071461765
10
151.12608681563839
20
6.2443061832792335
42
0.37671507298027557
10
151.22420439164054
20
6.416215106830137
42
-0.084315707887143432
10
151.19931633594217
20
6.7501711085647571
42
-0.28407904384042187
10
151.56879530606182
20
7.2018671956981102
42
-0.28407904384039956
10
152.13804058715095
20
7.0733997895206251
42
-0.084315707887144889
10
152.32403237634608
20
6.79491625183298
42
0.37671507298007151
10
152.50718778284852
20
6.7198573830307495
42
0.0011696483071461765
10
153.01144272307425
20
6.8984234226550667
42
0.37671507298010476
10
153.10654513089031
20
7.0720185514592648
42
-0.084315707887139629
10
153.07583252988891
20
7.4054893336137804
42
-0.28407904384041321
10
153.43737204287299
20
7.8635649224017792
42
-0.28407904384041777
10
154.00877269053521
20
7.7450517824405587
42
-0.084315707887139851
10
154.1995963601658
20
7.4698566634436308
42
0.37671507297998869
10
154.38403382909772
20
7.3980057290660817
42
0.0011696483071461765
10
154.88509556175427
20
7.5853450343824989
42
0.3767150729801152
10
154.97715383226955
20
7.7605734896821215
42
-0.084315707887142655
10
154.94062604132091
20
8.0934574738258949
42
-0.28407904384041877
10
155.29411596873149
20
8.5577730300067358
42
-0.28407904384040317
10
155.86749792879417
20
8.4492502565122862
42
-0.084315707887145555
10
156.06309535212188
20
8.1774273833051332
42
0.37671507298008566
10
156.24875870204363
20
8.1088062698430363
42
0.0011696483071461765
10
156.74647459887336
20
8.3048617754843654
42
0.37671507298010659
10
156.83546069024686
20
8.4816701809944473
42
-0.084315707887141642
10
156.79312883607
20
8.8138659674411866
42
-0.28407904384041155
10
157.13846150145085
20
9.2842800559985008
42
-0.2840790438404231
10
157.71365011621452
20
9.1857807060589209
42
-0.084315707887139185
10
157.91396171236943
20
8.9174128785219846
42
0.37671507298012169
10
158.10079438842604
20
8.8520424886312021
42
0.0011696483071461765
10
158.59501284034505
20
9.0567544741910879
42
0.37671507298011364
10
158.68089964655132
20
9.2350889723585432
42
-0.084315707887140309
10
158.63277662383913
20
9.5664953710536356
42
-0.28407904384041577
10
158.96984683551506
20
10.042864699299066
42
-0.28407904384041827
10
159.54666689695563
20
9.9544187767705132
42
-0.084315707887135383
10
159.75163164908506
20
9.6895877423437824
42
0.37671507297986462
10
159.93957674023338
20
9.6274879884782472
42
0.0011696483071461765
10
160.43014720351405
20
9.8407940967030019
42
0.37671507298011475
10
160.51290856259993
20
10.020600365112118
42
-0.084315707887139185
10
160.45900903009115
20
10.35111642645612
42
-0.28407904384042115
10
160.78771411321043
20
10.833295887677572
42
-0.28407904384042165
10
161.36598991634946
20
10.754930334044872
42
-0.084315707887142988
10
161.57554539020441
20
10.493716762826889
42
0.37671507298017659
10
161.76454564654929
20
10.434906561173332
42
0.0011696483071461765
10
162.25131868867572
20
10.656741816955829
42
0.37671507298013118
10
162.33092939072952
20
10.837965084875421
42
-0.084315707887142433
10
162.27126976674398
20
11.167490130474278
42
-0.2840790438404282
10
162.59150959455405
20
11.655332848136904
42
-0.28407904384041494
10
163.17106499098
20
11.587071534306808
42
-0.084315707887139629
10
163.38514735393312
20
11.329554994481834
42
0.37671507298013018
10
163.57514520416538
20
11.274052259197287
42
0.0011696483071461765
10
164.05797254935374
20
11.504349089369747
42
0.37671507298025325
10
164.13440834418441
20
11.68693415443688
42
-0.084315707887142655
10
164.06900680162155
20
12.015367807769511
42
-0.28407904384041133
10
164.38068382596856
20
12.508725180255645
42
-0.28407904384041649
10
164.96134227749343
20
12.450588899285675
42
-0.084315707887140087
10
165.17988631798301
20
12.196847832886288
42
0.37671507298011497
10
165.37082388691701
20
12.144669470641603
42
0.0011696483071461765
10
165.84955846128079
20
12.383357724558682
42
0.37671507298008983
10
165.92279606580468
20
12.567248969593747
42
-0.084315707887142766
10
165.85167252660784
20
12.894491186587738
42
-0.28407904384040578
10
166.15469180765098
20
13.393212932462486
42
-0.28407904384045235
10
166.73627644008548
20
13.345219393226921
42
-0.084315707887135383
10
166.9592155874798
20
13.095331092240068
42
0.37671507298010026
10
167.15103471368229
20
13.046492997069912
42
0.0011696483071461765
10
167.62553069003235
20
13.293499967977148
42
0.37671507298011181
10
167.6955477953658
20
13.478641377925557
42
-0.084315707887139296
10
167.61872392445409
20
13.804592477431537
42
-0.28407904384041682
10
167.91299315958486
20
14.30852668121987
42
-0.28407904384042093
10
168.49532681661594
20
14.270690503015718
42
-0.084315707887135161
10
168.72259316149101
20
14.024731085838578
42
0.37671507298024653
10
168.91523541499811
20
13.979248134299791
42
0.0011696483071580413
10
169.38534825726353
20
14.234498581481063
42
0.37671507298009593
10
169.45212353551793
20
14.420833760475816
42
-0.084315707887141531
10
169.36962273418661
20
14.745394454631331
42
-0.28407904384041899
10
169.65505228614543
20
15.254387613093069
42
-0.28407904384039634
10
170.23795758329993
20
15.226720321186706
42
-0.084315707887133703
10
170.46948189812557
20
14.984764709440434
42
0.37671507298009904
10
170.66288859824053
20
14.942650756080607
42
0.0011696483071461765
10
171.12847510549574
20
15.206066927777135
42
0.37671507298010898
10
171.19198821627438
20
15.393539116317662
42
-0.08431570788713974
10
171.10383561506677
20
15.716610540791166
42
-0.28407904384040483
10
171.38033853924696
20
16.230507609679506
42
-0.28407904384043292
10
171.96363791792479
20
16.213017631796131
42
-0.084315707887140753
10
172.19934967815186
20
15.975139527503874
42
0.37671507298010581
10
172.39346191132032
20
15.936407400641297
42
0.0011696483071580413
10
172.85438026140457
20
16.207909057735229
42
0.37671507298011925
10
172.91461185799875
20
16.396461149976801
42
-0.084315707887140198
10
172.82083430905107
20
16.717944894082752
42
-0.28407904384041188
10
173.08832637998353
20
17.236589335372258
42
-0.28407904384043409
10
173.67184216154331
20
17.229281999128531
42
-0.084315707887131913
10
173.91166956708619
20
16.99555386226529
42
0.37671507298017404
10
174.10642820484156
20
16.960215360080912
42
0.0011696483071580413
10
174.56253799756064
20
17.239719800537543
42
0.37671507298011675
10
174.61946973284242
20
17.429294361686299
42
-0.084315707887141642
10
174.52009580170454
20
17.749092498361961
42
-0.28407904384041432
10
174.77849553871317
20
18.272326327931623
42
-0.28407904384042476
10
175.36204997859517
20
18.275203859212958
42
-0.084315707887143099
10
175.60591997570296
20
18.045696885633351
42
0.37671507297998563
10
175.80126569267742
20
18.013762772577291
42
0.0011696483071580413
10
176.25242799257001
20
18.301184856636365
42
0.37671507298012535
10
176.30604252458147
20
18.491724140444596
42
-0.084315707887136729
10
176.20110248151551
20
18.809739256079553
42
-0.28407904384041466
10
176.45033117353719
20
19.337403091836219
42
-0.28407904384042043
10
177.03374651540602
20
19.350464614118657
42
-0.084315707887137506
10
177.28158481891515
20
19.125248713870196
42
0.37671507298013329
10
177.47745811091104
20
19.096728717382678
42
0.0011696483071461765
10
177.92353548956999
20
19.391980893493077
42
0.37671507298017765
10
177.97381648680525
20
19.583426859849073
42
-0.084315707887137284
10
177.86334229756494
20
19.899562083958465
42
-0.28407904384041383
10
178.10332402712578
20
20.431495194386102
42
-0.28407904384040072
10
178.68642255701661
20
20.4547367290035
42
-0.084315707887133814
10
178.93815367297893
20
20.233880505031077
42
0.3767150729800508
10
179.13449487509396
20
20.208783312579275
42
0.0011696483071580413
10
179.57535145302859
20
20.511775644067981
42
0.37671507298033213
10
179.62228359940892
20
20.704069976675889
42
-0.084315707887141753
10
179.50630891550236
20
21.018229011407975
42
-0.28407904384042187
10
179.7369705818428
20
21.55426936452826
42
-0.28407904384042149
10
180.3195746822949
20
21.587683831883965
42
-0.084315707887124877
10
180.57512193097386
20
21.37125455913289
42
0.37671507298007495
10
180.77187123577599
20
21.349587815564721
42
0.0011696483071461765
10
181.20737272380197
20
21.660228008032483
42
0.37671507298017837
10
181.2509417233407
20
21.853312132175692
42
-0.084315707887138852
10
181.12950187178015
20
22.165399281645129
42
-0.28407904384042693
10
181.3507732131221
20
22.705383594373746
42
-0.28407904384043281
10
181.93270541728265
20
22.748960816097345
42
-0.084315707887128902
10
182.19199095651092
20
22.537024421020696
42
0.37671507298003509
10
182.38908843225576
20
22.518794726236191
42
0.0011696483071461765
10
182.81910217240096
20
22.836988155671047
42
0.37671507298026519
10
182.85929475355891
20
23.030803256054959
42
-0.084315707887144445
10
182.73242672609956
20
23.340723455492803
42
-0.28407904384041877
10
182.94424034104904
20
23.884487243377134
42
-0.28407904384040794
10
183.52532338673126
20
23.938213945424792
42
-0.084315707887135272
10
183.78826823562176
20
23.730834985901517
42
0.37671507298018586
10
183.98565384450905
20
23.71604789284234
42
0.0011696483071580413
10
184.41004885042278
20
24.041697634443352
42
0.37671507298013379
10
184.44685277015031
20
24.236184673110806
42
-0.084315707887145222
10
184.31459521202237
20
24.543843517822026
42
-0.28407904384042021
10
184.51688658010025
20
25.091221145144718
42
-0.28407904384041466
10
185.09694346377941
20
25.155080961842479
42
-0.084315707887152383
10
185.36346752678406
20
24.952322607512638
42
0.37671507298007673
10
185.56108114324513
20
24.940982620470518
42
0.0011696483071461765
10
185.97972814009708
20
25.2739894781717
42
0.37671507298011475
10
186.01313218756377
20
25.469089212486722
42
-0.084315707887143765
10
185.87552538570051
20
25.774392986606856
42
-0.284079043840401
10
186.0682328869965
20
26.325217716840058
42
-0.28407904384043303
10
186.64708691772674
20
26.399191195869172
42
-0.084315707887142433
10
186.91710900903391
20
26.20111520889164
42
0.37671507298008028
10
187.11489043804693
20
26.193225782136462
42
0.0011696483071461765
10
187.52766190190655
20
26.533488318823096
42
0.37671507298004314
10
187.55765590191601
20
26.729141319516629
42
-0.084315707887138741
10
187.41474177268242
20
27.031997024558517
42
-0.28407904384041921
10
187.59780670662485
20
27.586101071153486
42
-0.28407904384040122
10
188.17528155986082
20
27.670165679475566
42
-0.084315707887134037
10
188.44871942812577
20
27.476832395714823
42
0.37671507298015805
10
188.6466084235515
20
27.472395932442435
42
0.0011696483071343114
10
189.05337862023217
20
27.819810500849599
42
0.37671507298023477
10
189.07995343632132
20
28.015957170122341
42
-0.084315707887135827
10
188.93177551274565
20
28.31627255330444
42
-0.28407904384041394
10
189.10514211598226
20
28.873487130800811
42
-0.28407904384036298
10
189.6810618872895
20
28.967617261521845
42
-0.084315707887141975
10
189.95783224068879
20
28.779085572168981
42
0.37671507298022028
10
190.15576852362219
20
28.778103423769075
42
0.0011696483071461765
10
190.55641354698153
20
29.132564198053757
42
0.37671507298014884
10
190.57956108420404
20
29.329144787730066
42
-0.084315707887135716
10
190.4261645027172
20
29.626828370077419
42
-0.28407904384043481
10
190.58977996610122
20
30.18698374551704
42
-0.28407904384039739
10
191.16396922473851
20
30.291150725687366
42
-0.08431570788713047
10
191.44398775634124
20
30.107478059321252
42
0.37671507298005225
10
191.64191103347298
20
30.109950524965772
42
0.0011696483071461765
10
192.03630884315589
20
30.471349532942416
42
0.37671507298003387
10
192.05602205054774
20
30.668304162670346
42
-0.084315707887144889
10
191.89745353723436
20
30.963265266880061
42
-0.28407904384042321
10
192.05126802191049
20
31.526190811509256
42
-0.28407904384041816
10
192.62355186426728
20
31.64036291085764
42
-0.084315707887145333
10
192.90673327771626
20
31.461605215951728
42
0.37671507298017409
10
193.10458325969898
20
31.467531542503657
42
0.0011696483071461765
10
193.49261371831182
20
31.835758698533482
42
0.37671507298010604
10
193.50888659103887
20
32.03302737402494
42
-0.084315707887141086
10
193.34519444740434
20
32.325176152087302
42
-0.28407904384040411
10
193.48916109999067
20
32.89070039333194
42
-0.28407904384042271
10
194.05936520286474
20
33.014842833930878
42
-0.084315707887140309
10
194.34562323835809
20
32.841054561810743
42
0.37671507297992779
10
194.54333965817051
20
32.850432944053516
42
0.0011696483071461765
10
194.92488456787694
20
33.22537608257776
42
0.3767150729803187
10
194.93771214906468
20
33.422898713883257
42
-0.084315707887136729
10
194.76894623732153
20
33.712146174450353
42
-0.28407904384041249
10
194.90302120418104
20
34.280096848148233
42
-0.28407904384040605
10
195.47097187787892
20
34.414171815007741
42
-0.084315707887140531
10
195.76021933844601
20
34.245405903264576
42
0.37671507298008972
10
195.95774196975142
20
34.258233484452276
42
0.0011696483071461765
10
196.3326851082756
20
34.639778394158597
42
0.37671507298023138
10
196.34206349051851
20
34.837494813971105
42
-0.084315707887147345
10
196.16827521839832
20
35.123752849464466
42
-0.28407904384041816
10
196.29241765899724
20
35.693956952338517
42
-0.28407904384042137
10
196.85794190024188
20
35.837923604924868
42
-0.084315707887136729
10
197.15009067830422
20
35.674231461290255
42
0.37671507298010065
10
197.3473593537957
20
35.690504334017277
42
0.0011696483071580413
10
197.71558650982564
20
36.078534792630343
42
0.37671507298015211
10
197.72151283637749
20
36.276384774613035
42
-0.08431570788713795
10
197.54275514147164
20
36.559566188061993
42
-0.28407904384041321
10
197.65692724082001
20
37.131850030418761
42
-0.28407904384041494
10
198.21985278544918
20
37.28566451509495
42
-0.084315707887144112
10
198.51481388965891
20
37.127096001781588
42
0.37671507298004397
10
198.71176851938685
20
37.146809209173306
42
0.0011696483071461765
10
199.07316752736349
20
37.541207018856198
42
0.37671507298026669
10
199.07563999300805
20
37.739130295988048
42
-0.084315707887140309
10
198.89196732664192
20
38.019148827590811
42
-0.28407904384041993
10
198.99613430681225
20
38.593338086228115
42
-0.2840790438404161
10
199.55628968225187
20
38.756953549612021
42
-0.084315707887134148
10
199.8539732645992
20
38.603556968125169
42
0.37671507298009466
10
200.05055385427553
20
38.626704505347654
42
0.0011696483071461765
10
200.40501462856025
20
39.027349528707056
42
0.37671507298018736
10
200.40403248016034
20
39.22528581164044
42
-0.084315707887141753
10
200.21550079080743
20
39.502056165039704
42
-0.28407904384040772
10
200.30963092152845
20
40.07797593634703
42
-0.2840790438404478
10
200.86684549902489
20
40.251342539583618
42
-0.084315707887137617
10
201.16716088220699
20
40.103164616007916
42
0.37671507298006224
10
201.36330755147966
20
40.129739432097089
42
0.0011696483071461765
10
201.71072211988678
20
40.536509628777793
42
0.37671507298010515
10
201.70628565661443
20
40.734398624203465
42
-0.084315707887133037
10
201.5129523728537
20
41.007836492468442
42
-0.28407904384041804
10
201.59701698117584
20
41.585311345704426
42
-0.28407904384038801
10
202.15112102777073
20
41.768376279646859
42
-0.084315707887140975
10
202.45397673281269
20
41.625462150413327
42
0.37671507298026613
10
202.6496297335062
20
41.655456150422772
42
0.0011696483071580413
10
202.98989227019277
20
42.068227614282307
42
0.37671507298010648
10
202.98200284343764
20
42.266009043295334
42
-0.084315707887137506
10
202.78392685646014
20
42.536031134602482
42
-0.28407904384042221
10
202.85790033548923
20
43.11488516533268
42
-0.28407904384041133
10
203.40872506572248
20
43.307592666628693
42
-0.08431570788713337
10
203.71402883984257
20
43.169985864765501
42
0.37671507297995516
10
203.90912857415753
20
43.203389912232154
42
0.0011696483071580413
10
204.24213543185869
20
43.622036909084116
42
0.37671507298022183
10
204.23079544481658
20
43.819650525545264
42
-0.084315707887126334
10
204.02803709048686
20
44.086174588549852
42
-0.2840790438404226
10
204.0918969071846
20
44.66623147222905
42
-0.28407904384041188
10
204.63927453450731
20
44.868522840306923
42
-0.084315707887127223
10
204.94693337921845
20
44.736265282178934
42
0.37671507298014423
10
205.14142041788591
20
44.773069201906509
42
0.0011696483071461765
10
205.46707015948695
20
45.197464207820175
42
0.376715072980077
10
205.45228306642775
20
45.394849816707463
42
-0.084315707887145555
10
205.2449041069045
20
45.657794665598018
42
-0.28407904384042776
10
205.29863080895214
20
46.238877711280267
42
-0.28407904384041072
10
205.84239459683647
20
46.450691326229681
42
-0.084315707887144445
10
206.15231479627431
20
46.323823298770321
42
0.37671507297999585
10
206.34612989665814
20
46.364015879928218
42
0.0011696483071461765
10
206.66432332609304
20
46.794029620073381
42
0.37671507298029416
10
206.64609363130862
20
46.991127095818385
42
-0.084315707887135716
10
206.43415723623193
20
47.250412635046658
42
-0.2840790438404191
10
206.47773445795553
20
47.832344839207181
42
-0.2840790438404292
10
207.01771877068416
20
48.053616180549163
42
-0.084315707887143654
10
207.32980592015363
20
47.932176328988582
42
0.37671507298002394
10
207.52289004429679
20
47.975745328527339
42
0.0011696483071580413
10
207.83353023676449
20
48.411246816553231
42
0.3767150729801601
10
207.8118634931964
20
48.607996121355335
42
-0.084315707887142655
10
207.5954342204453
20
48.863543370034407
42
-0.28407904384040678
10
207.628848687801
20
49.446147470486522
42
-0.28407904384041155
10
208.16488904092125
20
49.676809136826925
42
-0.084315707887158531
10
208.4790480756534
20
49.560834452920346
42
0.37671507298007778
10
208.67134240826121
20
49.607766599300561
42
0.0011696483071580413
10
208.97433473974999
20
50.0486231772352
42
0.3767150729800916
10
208.94923754729817
20
50.244964379350222
42
-0.084315707887148247
10
208.72838132332575
20
50.496695495312601
42
-0.28407904384041227
10
208.75162285794315
20
51.079794025203462
42
-0.28407904384041321
10
209.28355596837079
20
51.319775754764308
42
-0.084315707887148247
10
209.59969119248024
20
51.20930156552393
42
0.37671507298011292
10
209.79113715883619
20
51.259582562759192
42
0.0011696483071461765
10
210.08638933494663
20
51.705659941418162
42
0.37671507298040274
10
210.05786933845908
20
51.901533233414121
42
-0.08431570788714042
10
209.83265343821063
20
52.149371536923262
42
-0.28407904384041349
10
209.84571496049313
20
52.732786878792083
42
-0.28407904384035876
10
210.37337879624965
20
52.982015570813772
42
-0.084315707887161542
10
210.69139391188472
20
52.877075527747806
42
0.37671507297996509
10
210.88193319569285
20
52.9306900597592
42
0.0011696483071461765
10
211.16935527975184
20
53.381852359651646
42
0.37671507298028661
10
211.13742116669584
20
53.577198076626189
42
-0.084315707887144445
10
210.90791419311628
20
53.821068073734025
42
-0.28407904384040411
10
210.91079172439763
20
54.404622513615983
42
-0.28407904384040317
10
211.43402555396727
20
54.663022250624593
42
-0.084315707887138852
10
211.75382369064292
20
54.563648319486724
42
0.37671507298005524
10
211.94339825179171
20
54.620580054768517
42
0.0011696483071461765
10
212.22290269224831
20
55.076689847487671
42
0.37671507298012813
10
212.18756419006405
20
55.27144848524307
42
-0.084315707887137506
10
211.95383605320075
20
55.511275890785967
42
-0.28407904384041721
10
211.946528716957
20
56.094791672345714
42
-0.28407904384041766
10
212.46517315824656
20
56.362283743278184
42
-0.084315707887141308
10
212.78665690235249
20
56.268506194330527
42
0.37671507298011342
10
212.97520899459403
20
56.32873779092467
42
0.0011696483071580413
10
213.24671065168801
20
56.789656141008955
42
0.37671507298010654
10
213.20797852482542
20
56.983768374177401
42
-0.084315707887144112
10
212.97010042053316
20
57.219480134404492
42
-0.28407904384042115
10
212.95261044264976
20
57.802779513082285
42
-0.28407904384043386
10
213.46650751153814
20
58.079282437262549
42
-0.084315707887140309
10
213.78957893601165
20
57.991129836054895
42
0.37671507298002521
10
213.97705112455213
20
58.054642946833511
42
0.0011696483071580413
10
214.2404672962486
20
58.520229454088692
42
0.37671507298010559
10
214.19835334288882
20
58.713636154203684
42
-0.084315707887125543
10
213.95639773114257
20
58.945160469029283
42
-0.28407904384042665
10
213.92873043923623
20
59.528065766183857
42
-0.28407904384042798
10
214.43772359769798
20
59.813495318142643
42
-0.084315707887125543
10
214.76228429185343
20
59.730994516811357
42
0.37671507298014845
10
214.9486194708482
20
59.797769795065669
42
0.0011696483071580413
10
215.20386991802945
20
60.267882637331169
42
0.37671507298009521
10
215.15838696649072
20
60.460524890838215
42
-0.084315707887132024
10
214.91242754931361
20
60.68779123571332
42
-0.28407904384041105
10
214.87459137110943
20
61.270124892744377
42
-0.28407904384043264
10
215.37852557489776
20
61.564394127875161
42
-0.084315707887141197
10
215.70447667440376
20
61.48757025696348
42
0.37671507298005219
10
215.88961808435215
20
61.55758736229685
42
0.0011696483071580413
10
216.13662505525929
20
62.032083338646927
42
0.37671507298020257
10
216.0877869600892
20
62.223902464849488
42
-0.084315707887133481
10
215.83789865910234
20
62.446841612243809
42
-0.28407904384043697
10
215.78990511986675
20
63.028426244678279
42
-0.28407904384040816
10
216.28862686574152
20
63.331445525721406
42
-0.084315707887135605
10
216.61586908273549
20
63.260321986524602
42
0.37671507298005918
10
216.79976032777057
20
63.333559591048463
42
0.0011696483071580413
10
217.0384485816877
20
63.812294165412339
42
0.37671507298013462
10
216.98627021944304
20
64.003231734346301
42
-0.084315707887142433
10
216.73252915304369
20
64.221775774835919
42
-0.28407904384041205
10
216.6743928720737
20
64.802434226360774
42
-0.28407904384042726
10
217.16775024455984
20
65.114111250707822
42
-0.084315707887127778
10
217.49618389789242
20
65.048709708144941
42
0.37671507298012941
10
217.67876896295951
20
65.125145502975556
42
0.0011696483071461765
10
217.9090657931319
20
65.607972848163854
42
0.3767150729801762
10
217.85356305784745
20
65.797970698396156
42
-0.084315707887140198
10
217.59604651802243
20
66.012053061349206
42
-0.28407904384042848
10
217.52778520419236
20
66.591608457775195
42
-0.28407904384042837
10
218.01562792185501
20
66.911848285585236
42
-0.08431570788713684
10
218.34515296745383
20
66.852188661599726
42
0.3767150729802089
10
218.52637623537345
20
66.931799363653496
42
0.0011696483071461765
10
218.74821149115598
20
67.418572405780083
42
0.3767150729801268
10
218.68940128950243
20
67.607572662124937
42
-0.084315707887147234
10
218.42818771828439
20
67.817128135979871
42
-0.28407904384041466
10
218.34982216465178
20
68.395403939118907
42
-0.28407904384039306
10
218.83200162587318
20
68.724109022238167
42
-0.08431570788713047
10
219.16251768721713
20
68.670209489729416
42
0.37671507298013218
10
219.34232395562631
20
68.752970848815266
42
0.0011696483071461765
10
219.55563006385097
20
69.243541312095658
42
0.37671507298008949
10
219.49353030998549
20
69.431486403244079
42
-0.084315707887142877
10
219.22869927555877
20
69.63645115537355
42
-0.28407904384041144
10
219.14025335303023
20
70.213271216814121
42
-0.28407904384040134
10
219.6166226812756
20
70.550341428490057
42
-0.084315707887144889
10
219.94802907997072
20
70.502218405777811
42
0.37671507298008394
10
220.12636357813818
20
70.588105211984043
42
0.0011696483071461765
10
220.33107556369805
20
71.082323663903225
42
0.37671507298018081
10
220.26570517380733
20
71.269156339959864
42
-0.084315707887154728
10
219.99733734627031
20
71.469467936114754
42
-0.28407904384040172
10
219.89883799633071
20
72.044656550878429
42
-0.28407904384041277
10
220.36925208488805
20
72.389989216259266
42
-0.084315707887146568
10
220.70144787133478
20
72.347657362082401
42
0.37671507298010676
10
220.87825627684487
20
72.436643453455872
42
0.0011696483071461765
10
221.07431178248615
20
72.934359350285476
42
0.3767150729802104
10
221.00569066902406
20
73.120022700207272
42
-0.084315707887136507
10
220.73386779581693
20
73.315620123534956
42
-0.28407904384042376
10
220.62534502232245
20
73.889002083597674
42
-0.28407904384041321
10
221.0896605785033
20
74.242492011008252
42
-0.084315707887150482
10
221.42254456264712
20
74.205964220059656
42
0.37671507298007029
10
221.59777301794676
20
74.298022490574866
42
0.0011696483071343114
10
221.78511232326315
20
74.799084223231475
42
0.37671507298011286
10
221.71326138888571
20
74.98352169216345
42
-0.08431570788715026
10
221.43806626988874
20
75.174345361794039
42
-0.2840790438404282
10
221.3195531299275
20
75.745746009456255
42
-0.28407904384040733
10
221.7776287187155
20
76.107285522440336
42
-0.084315707887153382
10
222.11109950087007
20
76.076572921438924
42
0.37671507298008
10
222.28469462967422
20
76.171675329254938
42
0.0011696483071461765
10
222.46326066929851
20
76.675930269480631
42
0.37671507298010404
10
222.38820180049629
20
76.859085675983096
42
-0.084315707887141308
10
222.10971826280866
20
77.045077465178196
42
-0.28407904384040794
10
221.98125085663116
20
77.614322746267348
42
-0.28407904384041682
10
222.43294694376448
20
77.983801716386992
42
-0.084315707887135383
10
222.76690294549908
20
77.958913660688637
42
0.37671507298018209
10
222.93881186904997
20
78.057031236690747
42
0.0011696483071461765
10
223.10855025003679
20
78.564325783546167
42
0.37671507298009427
10
223.03030631046835
20
78.746143336708016
42
-0.084315707887144112
10
222.74861918287328
20
78.927246590566938
42
-0.28407904384041777
10
222.61023664289596
20
79.494163107456046
42
-0.2840790438404226
10
223.05541563737083
20
79.871468987837716
42
-0.084315707887138963
10
223.38975513245231
20
79.852413058585213
42
0.37671507298032952
10
223.55992548562654
20
79.953515915209223
42
0.0011696483071580413
10
223.72078450402057
20
80.463695541861071
42
0.37671507298010604
10
223.63937932754791
20
80.644119858294303
42
-0.084315707887143765
10
223.35457441467329
20
80.820279411011526
42
-0.28407904384043964
10
223.20631889355832
20
81.384694475437698
42
-0.28407904384041277
10
223.64484518954046
20
81.769712335055175
42
-0.084315707887142988
10
223.97946633491981
20
81.756494336869196
42
0.37671507298003448
10
224.14784628217916
20
81.860551677205564
42
0.0011696483071580413
10
224.29977693876509
20
82.373460977997041
42
0.37671507298027762
10
224.21523532219356
20
82.552437098707173
42
-0.084315707887140975
10
223.9273993783749
20
82.723599290376484
42
-0.28407904384040533
10
223.76931603619025
20
83.285340976043415
42
-0.28407904384039334
10
224.20105605432173
20
83.677953534726925
42
-0.08431570788715316
10
224.53585692115652
20
83.670577493937742
42
0.37671507297997486
10
224.70239517233796
20
83.777557621112663
42
0.0011696483071580413
10
224.84535118756625
20
84.293040358902545
42
0.37671507298010476
10
224.75769888309119
20
84.470513766029271
42
-0.084315707887152827
10
224.46691958594516
20
84.636626458988943
42
-0.28407904384041216
10
224.29905657640813
20
85.195523653937528
42
-0.28407904384040866
10
224.72387880449725
20
85.595611318098364
42
-0.084315707887138297
10
225.05875740920004
20
85.594079481519458
42
0.37671507298014539
10
225.22340323513907
20
85.703949808349833
42
0.0011696483071580413
10
225.35734106322252
20
86.221848962102285
42
0.37671507298013346
10
225.26660477058502
20
86.397765595526607
42
-0.084315707887153604
10
224.97297069430243
20
86.558778190241256
42
-0.28407904384040317
10
224.7953791501119
20
87.114660648971736
42
-0.28407904384042726
10
225.21315418319256
20
87.522101548031642
42
-0.084315707887139518
10
225.54800851849643
20
87.526414382275306
42
0.37671507298011864
10
225.71071176647939
20
87.63914144119525
42
0.0011696483071461765
10
225.83559060865807
20
88.159299253811071
42
0.37671507298016488
10
225.74179796701179
20
88.333605527622368
42
-0.084315707887144889
10
225.44539855537687
20
88.489468978095772
42
-0.28407904384040267
10
225.25813257263761
20
89.042167373426309
42
-0.2840790438404161
10
225.66873315238755
20
89.456837396940472
42
-0.084315707887146679
10
226.00346121841818
20
89.466993588275642
42
0.37671507297999679
10
226.16417232745962
20
89.582543041530897
42
0.0011696483071461765
10
226.27995414442847
20
90.104801067901562
42
0.37671507298031032
10
226.18313372392066
20
90.277443886720278
42
-0.084315707887141197
10
225.88405926306538
20
90.428110715435679
42
-0.28407904384038035
10
225.68717588480982
20
90.977456690080828
42
-0.28407904384041394
10
226.09047693831496
20
91.399229525543134
42
-0.084315707887134272
10
226.42497677366072
20
91.41522598029546
42
0.37671507298006957
10
226.58364678960012
20
91.533562630403353
42
0.0011696483071461765
10
226.6902963130961
20
92.057761785674842
42
0.3767150729801601
10
226.59047760616482
20
92.228688560825873
42
-0.084315707887159419
10
226.28881919706708
20
92.374112873207551
42
-0.28407904384039789
10
226.08237839587943
20
92.919939091061963
42
-0.28407904384041371
10
226.47825707373201
20
93.348686262380852
42
-0.084315707887149691
10
226.81242678650281
20
93.370518107875341
42
0.37671507298006141
10
226.9690073769161
20
93.491605908345804
42
0.0011696483071461765
10
227.06649212046116
20
94.017586516377179
42
0.37671507297997581
10
226.96370553285158
20
94.186745181908961
42
-0.084315707887145444
10
226.65955506358517
20
94.326882680302745
42
-0.28407904384043797
10
226.4436197233332
20
94.869022877412846
42
-0.28407904384041494
10
226.83195543705301
20
95.304613784046595
42
-0.084315707887145888
10
227.16569323591716
20
95.332274370091525
42
0.37671507298018814
10
227.32013670483974
20
95.456076436407585
42
0.0011696483071580413
10
227.40842697363672
20
95.983678278410679
42
0.37671507298008156
10
227.30270381513895
20
96.151017306955154
42
-0.084315707887151592
10
226.99615393288315
20
96.285825304121445
42
-0.28407904384040339
10
226.77078982956357
20
96.824114339331331
42
-0.28407904384041566
10
227.15146428833023
20
97.266416296070076
42
-0.084315707887129013
10
227.48466851352109
20
97.299897196983096
42
0.37671507298011636
10
227.63692781597612
20
97.426375817836032
42
0.0011696483071461765
10
227.71599671595379
20
97.95543818117838
42
0.3767150729801938
10
227.60736919086617
20
98.120906599646389
42
-0.084315707887143987
10
227.29851327368476
20
98.250344031763348
42
-0.28407904384040361
10
227.06378905538645
20
98.784617937018425
42
-0.28407904384042809
10
227.43668630207227
20
99.233496214401512
42
-0.08431570788711526
10
227.76925545635504
20
99.272787231575791
42
0.37671507298008133
10
227.91928421268409
20
99.40190388035245
42
0.0011696483071580413
10
227.98910765868956
20
99.932265607513358
42
0.37671507298017176
10
227.87760885600852
20
100.0958130126216
42
-0.084315707887136285
10
227.56654098440575
20
100.21984045179346
42
-0.28407904384042321
10
227.32252815039948
20
100.74993648208655
42
-0.2840790438403949
10
227.68753459689063
20
101.20525434744231
42
-0.084315707887128347
10
228.01936737647935
20
101.2503435124534
42
0.3767150729802024
10
228.16711988646986
20
101.38205885897177
42
0.0011696483071580413
10
228.22767660960523
20
101.91355839663143
42
0.37671507298013363
10
228.11334049294618
20
102.07513497025603
42
-0.084315707887146013
10
227.8001554212091
20
102.19371463652337
42
-0.28407904384041804
10
227.54692830016785
20
102.71947131946847
42
-0.28407904384039501
10
227.90393276196488
20
103.18109007856437
42
-0.084315707887147456
10
228.23492808738041
20
103.23196365681582
42
0.3767150729800407
10
228.38035934418656
20
103.36623757930539
42
0.0011696483071580413
10
228.43163089828704
20
103.89871302755573
42
0.37671507297995316
10
228.31449229553874
20
104.05826955190716
42
-0.084315707887147789
10
227.99928542287418
20
104.17136532475493
42
-0.28407904384038746
10
227.73692115023215
20
104.69262250977326
42
-0.28407904384041299
10
228.08581488031768
20
105.16040154906348
42
-0.084315707887140864
10
228.41587192717736
20
105.21704404397053
42
0.37671507298008228
10
228.55893763102932
20
105.35383564129384
42
0.0011696483071461765
10
228.60090839828325
20
105.88712480295516
42
0.37671507298021151
10
228.48100299099872
20
106.04461267557048
42
-0.08431570788713795
10
228.16387033247355
20
106.1521901049307
42
-0.28407904384039079
10
227.89244882692972
20
106.6687890120342
42
-0.28407904384043436
10
228.23312554889372
20
107.14258584149187
42
-0.084315707887134148
10
228.56214377862372
20
107.20497999920191
42
0.37671507298015083
10
228.70280035032252
20
107.34424760331325
42
0.0011696483071461765
10
228.73545754602719
20
107.87818803334059
42
0.37671507298007562
10
228.61282185855526
20
108.0335592818881
42
-0.084315707887149691
10
228.2938600158493
20
108.13558559863365
42
-0.28407904384038923
10
228.01346395502367
20
108.64736886679084
42
-0.28407904384040794
10
228.34581989543636
20
109.12703916331195
42
-0.084315707887133703
10
228.67369908589666
20
109.19516597796006
42
0.37671507298017393
10
228.81190368008774
20
109.3368671665981
42
0.0011696483071461765
10
228.83523735654532
20
109.87129622156446
42
0.37671507298015927
10
228.7099087449042
20
110.02450351845687
42
-0.084315707887134717
10
228.38921487688478
20
110.12094764438329
42
-0.28407904384042498
10
228.09992967213356
20
110.62775937945295
42
-0.28407904384040389
10
228.42386359215595
20
111.11315703081843
42
-0.084315707887143987
10
228.75050386816895
20
111.18699575031695
42
0.37671507298011286
10
228.8862143863941
20
111.33108735992694
42
0.0011696483071461765
10
228.90021743594053
20
111.86584224756461
42
0.37671507298025714
10
228.77223407643953
20
112.01683892437508
42
-0.084315707887137395
10
228.4499058695653
20
112.10767148166737
42
-0.28407904384041827
10
228.15181963996434
20
112.60935730388536
42
-0.28407904384042176
10
228.46723286618644
20
113.10033445326854
42
-0.084315707887140309
10
228.79253472995975
20
113.17986258562819
42
0.37671507298013673
10
228.92570983348062
20
113.32630072451002
42
0.0011696483071461765
10
228.93037799065138
20
113.86121855330043
42
0.3767150729802044
10
228.79977886826154
20
114.0099586149784
42
-0.084315707887139962
10
228.47591450682685
20
114.09515193515972
42
-0.2840790438404075
10
228.16911805232931
20
114.59155902616465
42
-0.28407904384042476
10
228.47591450682685
20
115.08796611716961
42
-0.084315707887134717
10
228.79977886826154
20
115.17315943735086
42
0.37671507298010298
10
228.93037799065141
20
115.3218994990288
42
0.0011696483071580413
10
228.9257098334806
20
115.85681732781919
42
0.37671507298014056
10
228.79253472995975
20
116.00325546670101
42
-0.084315707887139962
10
228.46723286618644
20
116.08278359906065
42
-0.28407904384041804
10
228.15181963996434
20
116.57376074844382
42
-0.284079043840407
10
228.44990586956527
20
117.07544657066185
42
-0.084315707887136618
10
228.7722340764395
20
117.16627912795414
42
0.3767150729801938
10
228.90021743594053
20
117.31727580476452
42
0.0011696483071461765
10
228.88621438639416
20
117.85203069240239
42
0.37671507298010726
10
228.75050386816895
20
117.9961223020124
42
-0.084315707887143987
10
228.42386359215595
20
118.06996102151091
42
-0.28407904384041971
10
228.09992967213356
20
118.55535867287642
42
-0.28407904384041632
10
228.38921487688475
20
119.06217040794608
42
-0.084315707887134717
10
228.7099087449042
20
119.15861453387249
42
0.37671507298011753
10
228.83523735654529
20
119.31182183076486
42
0.0011696483071580413
10
228.81190368008774
20
119.84625088573114
42
0.37671507298017393
10
228.67369908589666
20
119.98795207436916
42
-0.084315707887125321
10
228.34581989543639
20
120.05607888901727
42
-0.28407904384042032
10
228.01346395502364
20
120.53574918553836
42
-0.28407904384038923
10
228.2938600158493
20
121.04753245369558
42
-0.0843157078871421
10
228.61282185855521
20
121.1495587704411
42
0.37671507298014223
10
228.73545754602716
20
121.30493001898867
42
0.0011696483071461765
10
228.70280035032243
20
121.83887044901611
42
0.37671507298005436
10
228.56214377862375
20
121.97813805312745
42
-0.084315707887143099
10
228.23312554889378
20
122.04053221083751
42
-0.28407904384041505
10
227.89244882692972
20
122.51432904029512
42
-0.28407904384039523
10
228.16387033247352
20
123.03092794739868
42
-0.08431570788713795
10
228.48100299099872
20
123.13850537675889
42
0.3767150729802452
10
228.60090839828325
20
123.29599324937421
42
0.0011696483071461765
10
228.55893763102941
20
123.82928241103544
42
0.37671507298007789
10
228.41587192717736
20
123.96607400835876
42
-0.084315707887140864
10
228.08581488031774
20
124.02271650326583
42
-0.28407904384040433
10
227.73692115023215
20
124.49049554255602
42
-0.28407904384040678
10
227.99928542287418
20
125.01175272757442
42
-0.084315707887129679
10
228.31449229553871
20
125.12484850042212
42
0.3767150729801334
10
228.43163089828707
20
125.2844050247736
42
0.0011696483071580413
10
228.38035934418653
20
125.81688047302387
42
0.37671507298007401
10
228.23492808738047
20
125.95115439551348
42
-0.084315707887156741
10
227.90393276196488
20
126.00202797376495
42
-0.284079043840398
10
227.54692830016785
20
126.46364673286085
42
-0.28407904384041349
10
227.8001554212091
20
126.98940341580594
42
-0.084315707887146013
10
228.11334049294618
20
127.10798308207325
42
0.37671507298014861
10
228.2276766096052
20
127.26955965569789
42
0.0011696483071343114
10
228.16711988646989
20
127.8010591933575
42
0.37671507298007539
10
228.01936737647941
20
127.93277453987584
42
-0.084315707887146235
10
227.68753459689063
20
127.97786370488694
42
-0.28407904384041205
10
227.32252815039945
20
128.43318157024274
42
-0.2840790438404317
10
227.56654098440578
20
128.9632776005358
42
-0.084315707887128111
10
227.87760885600852
20
129.08730503970762
42
0.37671507298013823
10
227.98910765868956
20
129.25085244481585
42
0.0011696483071580413
10
227.91928421268406
20
129.78121417197681
42
0.37671507298004786
10
227.76925545635504
20
129.91033082075347
42
-0.084315707887119284
10
227.43668630207222
20
129.94962183792774
42
-0.28407904384041949
10
227.06378905538651
20
130.39850011531084
42
-0.2840790438404166
10
227.29851327368476
20
130.93277402056594
42
-0.084315707887142655
10
227.60736919086622
20
131.06221145268285
42
0.37671507297998486
10
227.71599671595382
20
131.2276798711508
42
0.0011696483071580413
10
227.63692781597612
20
131.75674223449326
42
0.37671507298012791
10
227.48466851352109
20
131.88322085534617
42
-0.084315707887139962
10
227.1514642883302
20
131.91670175625922
42
-0.28407904384038468
10
226.77078982956357
20
132.35900371299795
42
-0.28407904384042043
10
226.99615393288312
20
132.89729274820789
42
-0.084315707887149469
10
227.30270381513895
20
133.03210074537412
42
0.3767150729801923
10
227.40842697363667
20
133.19943977391864
42
0.0011696483071461765
10
227.32013670483974
20
133.72704161592159
42
0.37671507298015489
10
227.16569323591716
20
133.85084368223767
42
-0.084315707887138297
10
226.83195543705307
20
133.8785042682826
42
-0.28407904384043758
10
226.4436197233332
20
134.31409517491636
42
-0.28407904384041877
10
226.65955506358515
20
134.85623537202645
42
-0.08431570788713505
10
226.96370553285149
20
134.99637287042023
42
0.37671507298010193
10
227.06649212046116
20
135.16553153595206
42
0.0011696483071461765
10
226.96900737691607
20
135.69151214398354
42
0.37671507298012891
10
226.81242678650278
20
135.81259994445398
42
-0.084315707887141308
10
226.47825707373198
20
135.83443178994844
42
-0.28407904384038829
10
226.0823783958794
20
136.2631789612673
42
-0.28407904384039462
10
226.28881919706711
20
136.80900517912164
42
-0.084315707887172062
10
226.59047760616482
20
136.9544294915035
42
0.37671507298011514
10
226.6902963130961
20
137.12535626665448
42
0.0011696483071461765
10
226.5836467896001
20
137.64955542192592
42
0.37671507297990436
10
226.42497677366083
20
137.76789207203379
42
-0.084315707887157629
10
226.09047693831496
20
137.78388852678609
42
-0.28407904384042609
10
225.68717588480979
20
138.20566136224841
42
-0.284079043840398
10
225.88405926306541
20
138.75500733689364
42
-0.084315707887139851
10
226.18313372392069
20
138.90567416560896
42
0.37671507298011925
10
226.2799541444285
20
139.07831698442763
42
0.0011696483071461765
10
226.16417232745965
20
139.60057501079828
42
0.37671507298032114
10
226.0034612184181
20
139.71612446405359
42
-0.084315707887129457
10
225.66873315238755
20
139.72628065538876
42
-0.28407904384041621
10
225.25813257263761
20
140.14095067890298
42
-0.28407904384038674
10
225.44539855537687
20
140.69364907423349
42
-0.084315707887144445
10
225.74179796701176
20
140.84951252470691
42
0.37671507298016832
10
225.83559060865807
20
141.02381879851819
42
0.0011696483071461765
10
225.71071176647939
20
141.54397661113404
42
0.37671507298009199
10
225.54800851849646
20
141.65670367005396
42
-0.084315707887138852
10
225.21315418319259
20
141.66101650429766
42
-0.28407904384044969
10
224.79537915011184
20
142.06845740335757
42
-0.28407904384043986
10
224.97297069430255
20
142.62433986208808
42
-0.084315707887125543
10
225.26660477058499
20
142.78535245680266
42
0.37671507298011708
10
225.35734106322252
20
142.96126909022698
42
0.0011696483071580413
10
225.22340323513905
20
143.47916824397939
42
0.37671507298010215
10
225.05875740920007
20
143.58903857080981
42
-0.084315707887146235
10
224.72387880449725
20
143.58750673423097
42
-0.28407904384040866
10
224.29905657640813
20
143.98759439839179
42
-0.28407904384042093
10
224.46691958594525
20
144.54649159334036
42
-0.084315707887141864
10
224.75769888309119
20
144.71260428630006
42
0.37671507298010476
10
224.84535118756625
20
144.89007769342675
42
0.0011696483071461765
10
224.70239517233802
20
145.40556043121654
42
0.37671507298012241
10
224.53585692115649
20
145.51254055839149
42
-0.084315707887134037
10
224.20105605432181
20
145.50516451760231
42
-0.28407904384043242
10
223.76931603619022
20
145.89777707628582
42
-0.28407904384040722
10
223.92739937837493
20
146.45951876195281
42
-0.084315707887140975
10
224.21523532219362
20
146.63068095362206
42
0.37671507298008555
10
224.29977693876515
20
146.80965707433214
42
0.0011696483071580413
10
224.14784628217913
20
147.32256637512376
42
0.37671507298013152
10
223.97946633491978
20
147.42662371546015
42
-0.084315707887135938
10
223.64484518954046
20
147.41340571727414
42
-0.28407904384044996
10
223.20631889355823
20
147.79842357689165
42
-0.28407904384044347
10
223.35457441467332
20
148.36283864131781
42
-0.084315707887143765
10
223.63937932754789
20
148.53899819403506
42
0.37671507298012591
10
223.72078450402046
20
148.71942251046829
42
0.0011696483071461765
10
223.55992548562654
20
149.22960213712008
42
0.37671507298022133
10
223.38975513245234
20
149.33070499374406
42
-0.084315707887148691
10
223.05541563737083
20
149.31164906449155
42
-0.28407904384042665
10
222.61023664289596
20
149.68895494487325
42
-0.28407904384043242
10
222.7486191828734
20
150.2558714617623
42
-0.08431570788713226
10
223.03030631046835
20
150.43697471562129
42
0.37671507298013129
10
223.10855025003676
20
150.61879226878312
42
0.0011696483071461765
10
222.93881186905
20
151.12608681563844
42
0.37671507298004148
10
222.7669029454992
20
151.22420439164054
42
-0.084315707887146235
10
222.43294694376456
20
151.19931633594223
42
-0.2840790438404226
10
221.98125085663119
20
151.56879530606187
42
-0.28407904384037735
10
222.10971826280866
20
152.13804058715101
42
-0.084315707887154617
10
222.38820180049635
20
152.32403237634611
42
0.37671507298012885
10
222.46326066929853
20
152.50718778284858
42
0.0011696483071461765
10
222.28469462967425
20
153.01144272307431
42
0.37671507298009954
10
222.11109950087004
20
153.10654513089037
42
-0.084315707887140975
10
221.77762871871553
20
153.07583252988897
42
-0.28407904384043564
10
221.31955312992747
20
153.43737204287305
42
-0.28407904384040411
10
221.43806626988868
20
154.00877269053527
42
-0.084315707887158753
10
221.71326138888571
20
154.19959636016588
42
0.37671507298002566
10
221.78511232326315
20
154.38403382909783
42
0.0011696483071580413
10
221.59777301794679
20
154.88509556175438
42
0.37671507298004209
10
221.42254456264715
20
154.97715383226964
42
-0.084315707887160654
10
221.08966057850336
20
154.94062604132097
42
-0.28407904384039523
10
220.62534502232256
20
155.29411596873155
42
-0.28407904384042126
10
220.73386779581699
20
155.86749792879428
42
-0.084315707887140753
10
221.00569066902412
20
156.06309535212196
42
0.376715072980148
10
221.07431178248621
20
156.24875870204374
42
0.0011696483071580413
10
220.87825627684492
20
156.74647459887336
42
0.37671507298011642
10
220.70144787133484
20
156.83546069024686
42
-0.084315707887147012
10
220.36925208488807
20
156.79312883607
42
-0.28407904384040505
10
219.89883799633077
20
157.13846150145085
42
-0.2840790438404352
10
219.9973373462704
20
157.71365011621452
42
-0.084315707887144889
10
220.26570517380736
20
157.91396171236937
42
0.3767150729800694
10
220.33107556369814
20
158.10079438842604
42
0.0011696483071461765
10
220.12636357813818
20
158.59501284034511
42
0.37671507298012635
10
219.94802907997069
20
158.68089964655138
42
-0.084315707887137173
10
219.6166226812756
20
158.63277662383916
42
-0.28407904384036309
10
219.14025335303023
20
158.96984683551503
42
-0.28407904384042043
10
219.22869927555868
20
159.54666689695568
42
-0.084315707887143099
10
219.49353030998549
20
159.75163164908508
42
0.37671507298008244
10
219.55563006385097
20
159.93957674023352
42
0.0011696483071461765
10
219.34232395562628
20
160.43014720351403
42
0.37671507298004409
10
219.16251768721722
20
160.51290856259993
42
-0.084315707887136951
10
218.8320016258732
20
160.45900903009115
42
-0.28407904384042765
10
218.3498221646517
20
160.7877141132104
42
-0.28407904384040938
10
218.42818771828445
20
161.36598991634941
42
-0.08431570788714042
10
218.6894012895024
20
161.57554539020438
42
0.37671507298007539
10
218.74821149115601
20
161.76454564654921
42
0.0011696483071461765
10
218.52637623537348
20
162.25131868867572
42
0.37671507298014539
10
218.34515296745388
20
162.33092939072949
42
-0.084315707887126334
10
218.01562792185507
20
162.27126976674398
42
-0.28407904384043997
10
217.52778520419241
20
162.591509594554
42
-0.28407904384041216
10
217.59604651802246
20
163.17106499098
42
-0.084315707887132371
10
217.85356305784745
20
163.38514735393306
42
0.37671507298021933
10
217.90906579313202
20
163.57514520416538
42
0.0011696483071461765
10
217.67876896295951
20
164.05797254935376
42
0.37671507298016443
10
217.49618389789242
20
164.13440834418438
42
-0.084315707887119062
10
217.16775024455987
20
164.06900680162153
42
-0.28407904384043675
10
216.6743928720737
20
164.38068382596856
42
-0.28407904384042892
10
216.73252915304369
20
164.96134227749343
42
-0.084315707887136729
10
216.98627021944307
20
165.17988631798301
42
0.37671507298020179
10
217.0384485816877
20
165.37082388691701
42
0.0011696483071461765
10
216.79976032777063
20
165.84955846128079
42
0.37671507298017182
10
216.61586908273551
20
165.92279606580468
42
-0.084315707887136729
10
216.28862686574155
20
165.8516725266079
42
-0.28407904384045657
10
215.78990511986675
20
166.15469180765103
42
-0.28407904384041321
10
215.83789865910236
20
166.73627644008545
42
-0.084315707887137728
10
216.08778696008923
20
166.9592155874798
42
0.37671507298016083
10
216.13662505525937
20
167.15103471368235
42
0.0011696483071580413
10
215.88961808435215
20
167.62553069003235
42
0.37671507298010187
10
215.70447667440374
20
167.69554779536583
42
-0.08431570788713505
10
215.37852557489776
20
167.61872392445414
42
-0.28407904384040938
10
214.87459137110943
20
167.91299315958491
42
-0.28407904384040422
10
214.91242754931358
20
168.49532681661594
42
-0.084315707887140087
10
215.15838696649072
20
168.72259316149103
42
0.37671507298019702
10
215.20386991802951
20
168.91523541499811
42
0.0011696483071580413
10
214.9486194708482
20
169.38534825726364
42
0.37671507298018508
10
214.76228429185343
20
169.45212353551807
42
-0.084315707887137173
10
214.43772359769795
20
169.36962273418663
42
-0.28407904384042448
10
213.92873043923615
20
169.65505228614546
42
-0.28407904384043675
10
213.95639773114254
20
170.23795758330004
42
-0.084315707887137395
10
214.19835334288888
20
170.46948189812565
42
0.37671507298023177
10
214.24046729624862
20
170.66288859824067
42
0.0011696483071461765
10
213.97705112455216
20
171.12847510549574
42
0.37671507298011858
10
213.78957893601165
20
171.19198821627438
42
-0.084315707887131358
10
213.46650751153817
20
171.10383561506671
42
-0.28407904384043159
10
212.95261044264979
20
171.38033853924696
42
-0.28407904384041804
10
212.97010042053316
20
171.96363791792476
42
-0.084315707887142211
10
213.20797852482542
20
172.19934967815186
42
0.37671507298014567
10
213.24671065168801
20
172.39346191132029
42
0.0011696483071461765
10
212.97520899459403
20
172.85438026140463
42
0.37671507297998497
10
212.78665690235249
20
172.91461185799875
42
-0.084315707887133259
10
212.46517315824659
20
172.82083430905107
42
-0.28407904384044202
10
211.946528716957
20
173.08832637998358
42
-0.28407904384041704
10
211.95383605320077
20
173.67184216154328
42
-0.084315707887141086
10
212.18756419006405
20
173.91166956708622
42
0.37671507298012996
10
212.22290269224834
20
174.10642820484162
42
0.0011696483071580413
10
211.94339825179173
20
174.56253799756058
42
0.37671507298012707
10
211.75382369064295
20
174.6194697328425
42
-0.084315707887144667
10
211.4340255539673
20
174.5200958017046
42
-0.28407904384038396
10
210.91079172439771
20
174.7784955387132
42
-0.2840790438404317
10
210.90791419311637
20
175.36204997859517
42
-0.084315707887140753
10
211.13742116669596
20
175.60591997570302
42
0.37671507298021845
10
211.16935527975193
20
175.8012656926775
42
0.0011696483071580413
10
210.88193319569291
20
176.25242799257012
42
0.37671507298011692
10
210.69139391188472
20
176.30604252458156
42
-0.084315707887150815
10
210.37337879624971
20
176.20110248151553
42
-0.28407904384040938
10
209.8457149604931
20
176.45033117353728
42
-0.28407904384041299
10
209.83265343821068
20
177.03374651540611
42
-0.084315707887140309
10
210.05786933845914
20
177.28158481891518
42
0.37671507298023577
10
210.08638933494663
20
177.4774581109111
42
0.0011696483071343114
10
209.79113715883619
20
177.92353548957007
42
0.37671507298010648
10
209.59969119248024
20
177.9738164868053
42
-0.084315707887150482
10
209.28355596837079
20
177.86334229756491
42
-0.28407904384041632
10
208.75162285794315
20
178.10332402712578
42
-0.28407904384042115
10
208.72838132332575
20
178.68642255701667
42
-0.084315707887143321
10
208.9492375472982
20
178.93815367297901
42
0.37671507298010842
10
208.97433473974999
20
179.13449487509408
42
0.0011696483071461765
10
208.67134240826124
20
179.57535145302867
42
0.37671507298009771
10
208.47904807565342
20
179.62228359940892
42
-0.084315707887147678
10
208.16488904092131
20
179.50630891550236
42
-0.284079043840398
10
207.62884868780108
20
179.7369705818428
42
-0.28407904384043098
10
207.59543422044533
20
180.3195746822949
42
-0.084315707887124988
10
207.81186349319643
20
180.57512193097386
42
0.37671507298008405
10
207.83353023676457
20
180.77187123577599
42
0.0011696483071461765
10
207.52289004429679
20
181.207372723802
42
0.37671507298006407
10
207.32980592015363
20
181.25094172334065
42
-0.084315707887121297
10
207.01771877068424
20
181.12950187178018
42
-0.28407904384045174
10
206.47773445795559
20
181.3507732131221
42
-0.28407904384042859
10
206.43415723623193
20
181.93270541728259
42
-0.084315707887136396
10
206.64609363130862
20
182.19199095651089
42
0.37671507298014828
10
206.66432332609304
20
182.38908843225579
42
0.0011696483071461765
10
206.34612989665823
20
182.81910217240102
42
0.37671507298018519
10
206.15231479627431
20
182.859294753559
42
-0.084315707887149025
10
205.84239459683647
20
182.73242672609962
42
-0.28407904384042376
10
205.29863080895211
20
182.94424034104904
42
-0.28407904384040555
10
205.24490410690447
20
183.52532338673126
42
-0.084315707887153826
10
205.45228306642775
20
183.78826823562181
42
0.37671507298005813
10
205.46707015948698
20
183.9856538445091
42
0.0011696483071580413
10
205.14142041788591
20
184.41004885042273
42
0.37671507298014423
10
204.94693337921848
20
184.44685277015029
42
-0.084315707887128222
10
204.63927453450731
20
184.31459521202237
42
-0.28407904384040006
10
204.09189690718463
20
184.51688658010025
42
-0.28407904384040278
10
204.02803709048683
20
185.09694346377938
42
-0.084315707887150038
10
204.23079544481666
20
185.36346752678401
42
0.37671507298012569
10
204.2421354318588
20
185.56108114324508
42
0.0011696483071580413
10
203.90912857415759
20
185.97972814009708
42
0.37671507298013107
10
203.7140288398426
20
186.01313218756377
42
-0.084315707887128791
10
203.40872506572251
20
185.87552538570051
42
-0.28407904384042137
10
202.85790033548923
20
186.0682328869965
42
-0.28407904384043581
10
202.78392685646014
20
186.64708691772677
42
-0.084315707887126334
10
202.98200284343764
20
186.91710900903391
42
0.37671507298008927
10
202.9898922701928
20
187.11489043804693
42
0.0011696483071461765
10
202.64962973350623
20
187.52766190190655
42
0.37671507298008966
10
202.45397673281269
20
187.55765590191601
42
-0.084315707887135605
10
202.15112102777081
20
187.41474177268242
42
-0.28407904384041732
10
201.59701698117584
20
187.59780670662485
42
-0.28407904384039645
10
201.51295237285379
20
188.17528155986082
42
-0.084315707887134383
10
201.70628565661445
20
188.4487194281258
42
0.37671507298006729
10
201.71072211988684
20
188.64660842355147
42
0.0011696483071461765
10
201.36330755147966
20
189.05337862023219
42
0.37671507298009799
10
201.16716088220696
20
189.07995343632132
42
-0.084315707887135938
10
200.86684549902486
20
188.93177551274567
42
-0.2840790438404322
10
200.30963092152845
20
189.10514211598229
42
-0.28407904384036714
10
200.21550079080743
20
189.68106188728953
42
-0.084315707887154839
10
200.40403248016037
20
189.95783224068884
42
0.37671507298008561
10
200.40501462856025
20
190.15576852362219
42
0.0011696483071580413
10
200.05055385427553
20
190.55641354698164
42
0.37671507298012258
10
199.8539732645992
20
190.57956108420413
42
-0.084315707887126098
10
199.55628968225187
20
190.42616450271731
42
-0.28407904384041421
10
198.99613430681225
20
190.58977996610128
42
-0.2840790438403944
10
198.89196732664186
20
191.16396922473857
42
-0.084315707887138519
10
199.07563999300808
20
191.44398775634124
42
0.37671507298019513
10
199.07316752736349
20
191.64191103347306
42
0.0011696483071580413
10
198.71176851938685
20
192.03630884315601
42
0.37671507297997986
10
198.51481388965891
20
192.05602205054774
42
-0.084315707887142988
10
198.21985278544918
20
191.89745353723441
42
-0.28407904384040722
10
197.65692724082001
20
192.0512680219106
42
-0.28407904384041816
10
197.54275514147164
20
192.62355186426737
42
-0.084315707887130803
10
197.72151283637754
20
192.90673327771628
42
0.37671507298004508
10
197.71558650982558
20
193.10458325969898
42
0.0011696483071461765
10
197.3473593537957
20
193.49261371831199
42
0.37671507298009765
10
197.15009067830425
20
193.50888659103904
42
-0.084315707887137395
10
196.85794190024188
20
193.34519444740448
42
-0.28407904384040245
10
196.29241765899729
20
193.48916109999081
42
-0.28407904384043459
10
196.16827521839835
20
194.05936520286485
42
-0.084315707887148136
10
196.34206349051851
20
194.3456232383582
42
0.37671507298014956
10
196.33268510827563
20
194.54333965817068
42
0.0011696483071461765
10
195.95774196975151
20
194.924884567877
42
0.37671507298015627
10
195.76021933844603
20
194.93771214906468
42
-0.084315707887147456
10
195.47097187787892
20
194.7689462373215
42
-0.28407904384040134
10
194.90302120418104
20
194.90302120418104
42
-0.28407904384042332
10
194.76894623732153
20
195.47097187787895
42
-0.084315707887135938
10
194.93771214906468
20
195.76021933844603
42
0.37671507298015627
10
194.924884567877
20
195.95774196975151
42
0.0011696483071580413
10
194.54333965817068
20
196.33268510827563
42
0.37671507298014956
10
194.3456232383582
20
196.34206349051851
42
-0.084315707887141308
10
194.05936520286485
20
196.16827521839835
42
-0.28407904384044996
10
193.48916109999072
20
196.29241765899729
42
-0.28407904384040245
10
193.34519444740442
20
196.85794190024188
42
-0.084315707887137395
10
193.50888659103904
20
197.15009067830422
42
0.37671507298009765
10
193.49261371831199
20
197.3473593537957
42
0.0011696483071580413
10
193.10458325969898
20
197.71558650982558
42
0.37671507298014029
10
192.90673327771626
20
197.72151283637751
42
-0.084315707887118049
10
192.62355186426737
20
197.54275514147164
42
-0.28407904384041816
10
192.0512680219106
20
197.65692724082001
42
-0.28407904384040722
10
191.89745353723438
20
198.21985278544923
42
-0.084315707887142988
10
192.05602205054771
20
198.51481388965891
42
0.37671507298002938
10
192.03630884315598
20
198.71176851938685
42
0.0011696483071461765
10
191.64191103347304
20
199.07316752736358
42
0.37671507298010942
10
191.4439877563413
20
199.07563999300802
42
-0.084315707887125987
10
191.16396922473857
20
198.89196732664192
42
-0.28407904384041682
10
190.58977996610128
20
198.99613430681228
42
-0.28407904384038829
10
190.42616450271731
20
199.55628968225184
42
-0.084315707887140087
10
190.57956108420413
20
199.8539732645992
42
0.37671507298017276
10
190.55641354698162
20
200.05055385427553
42
0.0011696483071461765
10
190.15576852362221
20
200.40501462856025
42
0.37671507298017476
10
189.95783224068887
20
200.40403248016034
42
-0.0843157078871421
10
189.68106188728962
20
200.21550079080743
42
-0.28407904384042343
10
189.10514211598223
20
200.30963092152845
42
-0.28407904384040772
10
188.93177551274565
20
200.86684549902486
42
-0.084315707887141086
10
189.07995343632132
20
201.16716088220699
42
0.37671507298011858
10
189.05337862023217
20
201.36330755147966
42
0.0011696483071461765
10
188.64660842355147
20
201.71072211988684
42
0.37671507298006729
10
188.44871942812577
20
201.70628565661445
42
-0.084315707887146235
10
188.17528155986079
20
201.5129523728537
42
-0.28407904384037364
10
187.59780670662485
20
201.59701698117584
42
-0.28407904384041732
10
187.41474177268245
20
202.15112102777081
42
-0.084315707887132704
10
187.55765590191595
20
202.45397673281272
42
0.37671507298019241
10
187.52766190190647
20
202.64962973350623
42
0.0011696483071580413
10
187.1148904380469
20
202.9898922701928
42
0.37671507298000018
10
186.91710900903394
20
202.98200284343764
42
-0.084315707887132926
10
186.64708691772674
20
202.7839268564602
42
-0.28407904384042487
10
186.06823288699655
20
202.85790033548923
42
-0.28407904384041921
10
185.87552538570054
20
203.40872506572248
42
-0.084315707887142655
10
186.01313218756377
20
203.7140288398426
42
0.37671507298012596
10
185.97972814009705
20
203.90912857415759
42
0.0011696483071580413
10
185.56108114324508
20
204.2421354318588
42
0.37671507298007234
10
185.36346752678401
20
204.23079544481664
42
-0.084315707887145777
10
185.09694346377938
20
204.02803709048683
42
-0.28407904384039212
10
184.51688658010025
20
204.09189690718466
42
-0.28407904384037341
10
184.31459521202228
20
204.63927453450725
42
-0.084315707887139074
10
184.44685277015029
20
204.94693337921845
42
0.37671507298014423
10
184.41004885042275
20
205.14142041788597
42
0.0011696483071461765
10
183.98565384450907
20
205.46707015948695
42
0.37671507298005813
10
183.78826823562181
20
205.45228306642775
42
-0.084315707887133926
10
183.52532338673129
20
205.24490410690453
42
-0.28407904384044419
10
182.94424034104904
20
205.29863080895211
42
-0.28407904384042693
10
182.73242672609962
20
205.84239459683647
42
-0.084315707887147012
10
182.859294753559
20
206.15231479627431
42
0.37671507298022588
10
182.81910217240102
20
206.34612989665825
42
0.0011696483071461765
10
182.38908843225579
20
206.66432332609307
42
0.37671507298014828
10
182.19199095651089
20
206.64609363130862
42
-0.084315707887140864
10
181.93270541728259
20
206.43415723623193
42
-0.28407904384042065
10
181.35077321312207
20
206.47773445795559
42
-0.28407904384041466
10
181.12950187178015
20
207.01771877068416
42
-0.084315707887140642
10
181.25094172334073
20
207.3298059201536
42
0.37671507298017348
10
181.20737272380194
20
207.52289004429679
42
0.0011696483071461765
10
180.77187123577599
20
207.83353023676452
42
0.3767150729801948
10
180.57512193097392
20
207.8118634931964
42
-0.084315707887145
10
180.31957468229481
20
207.5954342204453
42
-0.28407904384039234
10
179.7369705818428
20
207.62884868780108
42
-0.284079043840398
10
179.50630891550233
20
208.16488904092137
42
-0.08431570788714321
10
179.62228359940892
20
208.47904807565342
42
0.37671507298012896
10
179.57535145302867
20
208.67134240826124
42
0.0011696483071461765
10
179.13449487509408
20
208.97433473974999
42
0.37671507298010842
10
178.93815367297901
20
208.9492375472982
42
-0.084315707887155616
10
178.68642255701661
20
208.72838132332572
42
-0.28407904384039762
10
178.10332402712578
20
208.75162285794315
42
-0.28407904384041632
10
177.86334229756491
20
209.28355596837079
42
-0.084315707887150482
10
177.9738164868053
20
209.59969119248024
42
0.37671507298010648
10
177.92353548957007
20
209.79113715883619
42
0.0011696483071580413
10
177.4774581109111
20
210.08638933494666
42
0.37671507298019136
10
177.28158481891523
20
210.05786933845911
42
-0.084315707887149358
10
177.03374651540605
20
209.83265343821063
42
-0.28407904384039812
10
176.45033117353728
20
209.84571496049313
42
-0.28407904384040938
10
176.20110248151553
20
210.37337879624971
42
-0.084315707887138852
10
176.30604252458153
20
210.69139391188469
42
0.37671507298020707
10
176.25242799257012
20
210.88193319569291
42
0.0011696483071461765
10
175.8012656926775
20
211.16935527975198
42
0.37671507298013968
10
175.60591997570299
20
211.13742116669599
42
-0.084315707887131802
10
175.36204997859522
20
210.9079141931164
42
-0.28407904384044969
10
174.7784955387132
20
210.91079172439765
42
-0.28407904384038396
10
174.5200958017046
20
211.4340255539673
42
-0.084315707887148691
10
174.61946973284242
20
211.753823690643
42
0.37671507298012874
10
174.56253799756064
20
211.94339825179179
42
0.0011696483071461765
10
174.10642820484159
20
212.22290269224831
42
0.37671507298018292
10
173.91166956708619
20
212.18756419006399
42
-0.084315707887133926
10
173.67184216154331
20
211.95383605320077
42
-0.28407904384041704
10
173.08832637998358
20
211.946528716957
42
-0.28407904384044202
10
172.82083430905112
20
212.46517315824659
42
-0.084315707887130359
10
172.91461185799875
20
212.78665690235249
42
0.37671507298012791
10
172.85438026140466
20
212.97520899459411
42
0.0011696483071461765
10
172.39346191132032
20
213.24671065168803
42
0.37671507298012935
10
172.19934967815186
20
213.20797852482545
42
-0.084315707887142211
10
171.96363791792479
20
212.97010042053316
42
-0.28407904384043242
10
171.38033853924696
20
212.95261044264979
42
-0.28407904384042426
10
171.10383561506677
20
213.46650751153817
42
-0.084315707887139518
10
171.19198821627438
20
213.78957893601168
42
0.37671507298005613
10
171.12847510549574
20
213.97705112455216
42
0.0011696483071461765
10
170.66288859824061
20
214.24046729624865
42
0.37671507298018003
10
170.46948189812565
20
214.19835334288888
42
-0.08431570788713226
10
170.23795758330004
20
213.95639773114254
42
-0.28407904384043675
10
169.65505228614549
20
213.92873043923623
42
-0.28407904384042537
10
169.36962273418672
20
214.43772359769795
42
-0.084315707887130581
10
169.45212353551798
20
214.76228429185343
42
0.37671507298023477
10
169.38534825726364
20
214.94861947084826
42
0.0011696483071461765
10
168.91523541499816
20
215.20386991802945
42
0.37671507298019702
10
168.72259316149109
20
215.15838696649067
42
-0.08431570788712521
10
168.495326816616
20
214.91242754931358
42
-0.28407904384040422
10
167.91299315958497
20
214.87459137110937
42
-0.28407904384044813
10
167.61872392445423
20
215.37852557489776
42
-0.084315707887130012
10
167.69554779536583
20
215.70447667440374
42
0.37671507298010187
10
167.62553069003246
20
215.88961808435215
42
0.0011696483071580413
10
167.15103471368235
20
216.13662505525934
42
0.37671507298016083
10
166.95921558747978
20
216.0877869600892
42
-0.084315707887139185
10
166.73627644008542
20
215.83789865910234
42
-0.2840790438404226
10
166.15469180765098
20
215.78990511986675
42
-0.28407904384041588
10
165.8516725266079
20
216.28862686574152
42
-0.084315707887137062
10
165.92279606580468
20
216.61586908273549
42
0.37671507298010809
10
165.84955846128082
20
216.7997603277706
42
0.0011696483071580413
10
165.37082388691704
20
217.03844858168767
42
0.37671507298032186
10
165.17988631798312
20
216.98627021944301
42
-0.084315707887136729
10
164.96134227749343
20
216.73252915304371
42
-0.28407904384042892
10
164.38068382596856
20
216.6743928720737
42
-0.28407904384040217
10
164.06900680162153
20
217.16775024455981
42
-0.084315707887137062
10
164.13440834418441
20
217.49618389789242
42
0.37671507298019558
10
164.05797254935379
20
217.67876896295959
42
0.0011696483071461765
10
163.57514520416541
20
217.90906579313202
42
0.37671507298018725
10
163.38514735393306
20
217.85356305784748
42
-0.084315707887144667
10
163.17106499097997
20
217.59604651802249
42
-0.28407904384042787
10
162.591509594554
20
217.52778520419244
42
-0.28407904384042437
10
162.27126976674401
20
218.01562792185507
42
-0.084315707887137839
10
162.33092939072949
20
218.34515296745391
42
0.37671507297999918
10
162.25131868867578
20
218.5263762353735
42
0.0011696483071461765
10
161.76454564654918
20
218.74821149115601
42
0.37671507297998608
10
161.5755453902043
20
218.6894012895024
42
-0.08431570788714042
10
161.36598991634941
20
218.42818771828448
42
-0.28407904384040938
10
160.78771411321037
20
218.34982216465167
42
-0.28407904384042765
10
160.45900903009115
20
218.8320016258732
42
-0.084315707887120062
10
160.51290856259988
20
219.16251768721713
42
0.3767150729801737
10
160.43014720351403
20
219.34232395562631
42
0.0011696483071461765
10
159.93957674023349
20
219.55563006385097
42
0.3767150729800513
10
159.75163164908506
20
219.49353030998549
42
-0.084315707887133703
10
159.54666689695568
20
219.22869927555877
42
-0.28407904384041682
10
158.96984683551509
20
219.14025335303023
42
-0.28407904384039656
10
158.63277662383919
20
219.6166226812756
42
-0.084315707887137173
10
158.68089964655138
20
219.94802907997069
42
0.37671507298021506
10
158.59501284034511
20
220.12636357813818
42
0.0011696483071580413
10
158.10079438842598
20
220.33107556369811
42
0.37671507298009277
10
157.9139617123694
20
220.26570517380733
42
-0.084315707887132926
10
157.71365011621455
20
219.9973373462704
42
-0.2840790438404352
10
157.13846150145085
20
219.89883799633077
42
-0.28407904384042165
10
156.79312883607
20
220.3692520848881
42
-0.08431570788712979
10
156.83546069024686
20
220.70144787133478
42
0.37671507298024454
10
156.74647459887336
20
220.87825627684495
42
0.0011696483071580413
10
156.24875870204374
20
221.07431178248621
42
0.3767150729801016
10
156.06309535212193
20
221.00569066902412
42
-0.084315707887137506
10
155.86749792879428
20
220.73386779581699
42
-0.28407904384040844
10
155.2941159687316
20
220.62534502232253
42
-0.28407904384041321
10
154.940626041321
20
221.08966057850338
42
-0.084315707887151814
10
154.97715383226964
20
221.4225445626472
42
0.37671507298009788
10
154.88509556175438
20
221.59777301794676
42
0.0011696483071461765
10
154.3840338290978
20
221.78511232326315
42
0.37671507298002566
10
154.19959636016588
20
221.71326138888571
42
-0.084315707887152716
10
154.0087726905353
20
221.43806626988868
42
-0.28407904384041227
10
153.43737204287311
20
221.3195531299275
42
-0.28407904384042765
10
153.07583252988903
20
221.77762871871553
42
-0.084315707887138741
10
153.10654513089031
20
222.11109950087007
42
0.37671507298009954
10
153.01144272307431
20
222.28469462967425
42
0.0011696483071461765
10
152.5071877828486
20
222.46326066929856
42
0.37671507298014201
10
152.32403237634614
20
222.38820180049632
42
-0.084315707887152827
10
152.13804058715098
20
222.10971826280868
42
-0.28407904384039173
10
151.56879530606187
20
221.98125085663122
42
-0.28407904384041105
10
151.1993163359422
20
222.43294694376456
42
-0.084315707887127667
10
151.22420439164057
20
222.76690294549911
42
0.37671507298016038
10
151.12608681563847
20
222.93881186905008
42
0.0011696483071580413
10
150.61879226878315
20
223.10855025003676
42
0.37671507298016044
10
150.4369747156212
20
223.03030631046838
42
-0.084315707887133259
10
150.25587146176238
20
222.74861918287331
42
-0.28407904384044069
10
149.68895494487322
20
222.61023664289593
42
-0.28407904384043686
10
149.31164906449155
20
223.05541563737086
42
-0.084315707887139296
10
149.33070499374409
20
223.38975513245234
42
0.37671507298026308
10
149.22960213712005
20
223.55992548562654
42
0.0011696483071580413
10
148.71942251046829
20
223.72078450402054
42
0.37671507298008644
10
148.538998194035
20
223.63937932754791
42
-0.084315707887143765
10
148.36283864131784
20
223.35457441467329
42
-0.28407904384044347
10
147.79842357689165
20
223.20631889355823
42
-0.28407904384043436
10
147.41340571727417
20
223.64484518954043
42
-0.084315707887150149
10
147.42662371546021
20
223.97946633491981
42
0.37671507298012663
10
147.32256637512373
20
224.1478462821791
42
0.0011696483071580413
10
146.80965707433211
20
224.29977693876512
42
0.37671507298009943
10
146.63068095362206
20
224.21523532219362
42
-0.084315707887140975
10
146.45951876195278
20
223.92739937837493
42
-0.28407904384040722
10
145.89777707628582
20
223.76931603619022
42
-0.28407904384043242
10
145.50516451760234
20
224.20105605432181
42
-0.08431570788715316
10
145.51254055839149
20
224.53585692115661
42
0.37671507297987739
10
145.40556043121654
20
224.70239517233802
42
0.0011696483071461765
10
144.89007769342675
20
224.84535118756625
42
0.37671507298008494
10
144.71260428630001
20
224.75769888309119
42
-0.084315707887140309
10
144.54649159334042
20
224.46691958594516
42
-0.28407904384042093
10
143.98759439839179
20
224.29905657640813
42
-0.28407904384040866
10
143.58750673423094
20
224.72387880449719
42
-0.084315707887136174
10
143.58903857080978
20
225.05875740920004
42
0.37671507298017809
10
143.47916824397939
20
225.22340323513907
42
0.0011696483071461765
10
142.96126909022701
20
225.35734106322252
42
0.37671507298011708
10
142.78535245680268
20
225.26660477058502
42
-0.08431570788713684
10
142.62433986208811
20
224.97297069430246
42
-0.28407904384042187
10
142.0684574033576
20
224.7953791501119
42
-0.28407904384046279
10
141.66101650429766
20
225.21315418319259
42
-0.084315707887138852
10
141.65670367005401
20
225.54800851849646
42
0.37671507298008816
10
141.54397661113404
20
225.71071176647939
42
0.0011696483071580413
10
141.02381879851816
20
225.83559060865807
42
0.37671507298005086
10
140.84951252470694
20
225.74179796701179
42
-0.08431570788715316
10
140.69364907423343
20
225.44539855537687
42
-0.28407904384039284
10
140.14095067890293
20
225.25813257263761
42
-0.2840790438403763
10
139.72628065538873
20
225.66873315238749
42
-0.084315707887145888
10
139.71612446405365
20
226.0034612184181
42
0.37671507298032114
10
139.60057501079828
20
226.16417232745965
42
0.0011696483071580413
10
139.07831698442766
20
226.27995414442847
42
0.3767150729802301
10
138.90567416560896
20
226.18313372392066
42
-0.084315707887139851
10
138.75500733689361
20
225.88405926306541
42
-0.28407904384040267
10
138.20566136224841
20
225.68717588480979
42
-0.2840790438403657
10
137.78388852678614
20
226.09047693831488
42
-0.084315707887140975
10
137.76789207203385
20
226.42497677366069
42
0.37671507298014234
10
137.64955542192595
20
226.58364678960012
42
0.0011696483071580413
10
137.12535626665448
20
226.6902963130961
42
0.37671507298012802
10
136.95442949150345
20
226.59047760616485
42
-0.084315707887140198
10
136.80900517912175
20
226.28881919706717
42
-0.28407904384043769
10
136.26317896126733
20
226.08237839587943
42
-0.28407904384041721
10
135.83443178994847
20
226.47825707373201
42
-0.084315707887142877
10
135.81259994445401
20
226.81242678650281
42
0.37671507298014489
10
135.69151214398352
20
226.9690073769161
42
0.0011696483071580413
10
135.16553153595203
20
227.06649212046116
42
0.37671507297999107
10
134.9963728704202
20
226.96370553285152
42
-0.084315707887141531
10
134.85623537202645
20
226.65955506358515
42
-0.28407904384041877
10
134.31409517491636
20
226.44361972333326
42
-0.28407904384042354
10
133.87850426828263
20
226.83195543705301
42
-0.084315707887155283
10
133.85084368223764
20
227.16569323591722
42
0.37671507298011914
10
133.72704161592156
20
227.32013670483974
42
0.0011696483071580413
10
133.19943977391861
20
227.40842697363672
42
0.37671507298013879
10
133.03210074537412
20
227.30270381513895
42
-0.084315707887150482
10
132.89729274820786
20
226.99615393288315
42
-0.28407904384042043
10
132.35900371299795
20
226.77078982956357
42
-0.28407904384038468
10
131.91670175625919
20
227.1514642883302
42
-0.084315707887139962
10
131.8832208553462
20
227.48466851352109
42
0.37671507298008389
10
131.75674223449329
20
227.63692781597612
42
0.0011696483071461765
10
131.22767987115077
20
227.71599671595379
42
0.37671507297989676
10
131.06221145268285
20
227.60736919086622
42
-0.084315707887142655
10
130.93277402056597
20
227.29851327368476
42
-0.28407904384041177
10
130.39850011531087
20
227.06378905538645
42
-0.28407904384041949
10
129.94962183792774
20
227.43668630207225
42
-0.084315707887121186
10
129.9103308207535
20
227.76925545635504
42
0.37671507298022466
10
129.78121417197679
20
227.91928421268409
42
0.0011696483071343114
10
129.25085244481585
20
227.98910765868956
42
0.37671507298013823
10
129.08730503970762
20
227.87760885600852
42
-0.08431570788712052
10
128.96327760053583
20
227.5665409844058
42
-0.28407904384044613
10
128.43318157024274
20
227.32252815039945
42
-0.28407904384041205
10
127.97786370488694
20
227.68753459689063
42
-0.084315707887128347
10
127.93277453987587
20
228.01936737647935
42
0.3767150729802104
10
127.8010591933575
20
228.16711988646986
42
0.0011696483071461765
10
127.26955965569789
20
228.22767660960523
42
0.37671507298007578
10
127.10798308207325
20
228.11334049294624
42
-0.08431570788715495
10
126.98940341580595
20
227.8001554212091
42
-0.28407904384041349
10
126.46364673286085
20
227.54692830016785
42
-0.284079043840398
10
126.00202797376494
20
227.90393276196488
42
-0.084315707887156741
10
125.9511543955135
20
228.23492808738047
42
0.37671507298007401
10
125.81688047302387
20
228.38035934418656
42
0.0011696483071580413
10
125.2844050247736
20
228.4316308982871
42
0.37671507298018486
10
125.12484850042215
20
228.31449229553874
42
-0.084315707887139962
10
125.01175272757438
20
227.99928542287421
42
-0.28407904384040678
10
124.49049554255602
20
227.73692115023221
42
-0.28407904384040433
10
124.02271650326583
20
228.08581488031768
42
-0.084315707887140864
10
123.96607400835876
20
228.41587192717736
42
0.37671507298013929
10
123.82928241103541
20
228.55893763102932
42
0.0011696483071580413
10
123.29599324937421
20
228.60090839828325
42
0.37671507298017104
10
123.13850537675893
20
228.48100299099872
42
-0.084315707887122074
10
123.03092794739874
20
228.16387033247361
42
-0.28407904384044225
10
122.51432904029515
20
227.89244882692969
42
-0.28407904384041704
10
122.04053221083753
20
228.23312554889372
42
-0.084315707887134148
10
121.97813805312748
20
228.56214377862372
42
0.37671507298015083
10
121.83887044901613
20
228.70280035032243
42
0.0011696483071461765
10
121.30493001898867
20
228.73545754602719
42
0.37671507298013607
10
121.14955877044113
20
228.61282185855521
42
-0.084315707887136396
10
121.04753245369558
20
228.2938600158493
42
-0.28407904384040422
10
120.53574918553836
20
228.01346395502364
42
-0.28407904384042032
10
120.05607888901729
20
228.34581989543639
42
-0.084315707887124086
10
119.98795207436919
20
228.67369908589666
42
0.37671507298017393
10
119.84625088573114
20
228.81190368008774
42
0.0011696483071461765
10
119.31182183076481
20
228.83523735654532
42
0.3767150729800523
10
119.15861453387249
20
228.7099087449042
42
-0.084315707887134717
10
119.06217040794607
20
228.38921487688478
42
-0.28407904384042498
10
118.55535867287641
20
228.09992967213356
42
-0.28407904384041105
10
118.06996102151089
20
228.42386359215595
42
-0.084315707887143987
10
117.9961223020124
20
228.75050386816895
42
0.37671507298010964
10
117.85203069240239
20
228.8862143863941
42
0.0011696483071580413
10
117.31727580476451
20
228.90021743594053
42
0.3767150729801888
10
117.16627912795414
20
228.7722340764395
42
-0.084315707887136618
10
117.0754465706618
20
228.4499058695653
42
-0.284079043840407
10
116.57376074844382
20
228.15181963996434
42
-0.28407904384042176
10
116.08278359906063
20
228.46723286618644
42
-0.084315707887140309
10
116.00325546670101
20
228.79253472995975
42
0.37671507298016799
10
115.85681732781916
20
228.92570983348062
42
0.0011696483071461765
10
115.32189949902879
20
228.93037799065138
42
0.37671507297999773
10
115.17315943735086
20
228.79977886826157
42
-0.084315707887143987
10
115.08796611716961
20
228.47591450682688
42
-0.28407904384042476
10
114.59155902616465
20
228.16911805232934
42
-0.2840790438404075
10
114.09515193515966
20
228.47591450682683
42
-0.08431570788714958
10
114.00995861497842
20
228.79977886826157
42
0.37671507297995954
10
113.86121855330052
20
228.93037799065141
42
0.0011696483071461765
10
113.32630072451013
20
228.9257098334806
42
0.37671507298017554
10
113.17986258562831
20
228.79253472995975
42
-0.084315707887138186
10
113.10033445326866
20
228.46723286618644
42
-0.28407904384042176
10
112.60935730388547
20
228.15181963996437
42
-0.28407904384041827
10
112.10767148166745
20
228.4499058695653
42
-0.08431570788713684
10
112.01683892437522
20
228.77223407643953
42
0.37671507298012191
10
111.86584224756484
20
228.90021743594053
42
0.0011696483071461765
10
111.33108735992694
20
228.88621438639416
42
0.37671507298011286
10
111.18699575031692
20
228.75050386816895
42
-0.08431570788714042
10
111.11315703081844
20
228.42386359215595
42
-0.28407904384041971
10
110.62775937945293
20
228.09992967213356
42
-0.28407904384042043
10
110.12094764438328
20
228.38921487688475
42
-0.08431570788713337
10
110.02450351845684
20
228.7099087449042
42
0.37671507298011991
10
109.87129622156448
20
228.83523735654529
42
0.0011696483071343114
10
109.3368671665982
20
228.81190368008774
42
0.37671507298017648
10
109.19516597796013
20
228.67369908589666
42
-0.084315707887133703
10
109.12703916331205
20
228.34581989543636
42
-0.2840790438403975
10
108.64736886679097
20
228.01346395502364
42
-0.28407904384039773
10
108.13558559863372
20
228.2938600158493
42
-0.084315707887150482
10
108.03355928188822
20
228.61282185855526
42
0.37671507298007562
10
107.87818803334065
20
228.73545754602719
42
0.0011696483071580413
10
107.34424760331319
20
228.70280035032243
42
0.37671507298015083
10
107.20497999920184
20
228.56214377862372
42
-0.084315707887134148
10
107.14258584149181
20
228.23312554889372
42
-0.28407904384041704
10
106.66878901203417
20
227.89244882692972
42
-0.28407904384039945
10
106.15219010493063
20
228.16387033247352
42
-0.084315707887148136
10
106.04461267557041
20
228.48100299099877
42
0.37671507298013851
10
105.8871248029551
20
228.60090839828325
42
0.0011696483071580413
10
105.35383564129384
20
228.55893763102941
42
0.37671507298008516
10
105.21704404397055
20
228.41587192717736
42
-0.084315707887140753
10
105.16040154906347
20
228.08581488031768
42
-0.28407904384041299
10
104.69262250977326
20
227.73692115023215
42
-0.28407904384040678
10
104.17136532475489
20
227.99928542287418
42
-0.084315707887137839
10
104.05826955190717
20
228.31449229553874
42
0.37671507298006013
10
103.89871302755567
20
228.43163089828707
42
0.0011696483071580413
10
103.36623757930541
20
228.38035934418653
42
0.3767150729800664
10
103.23196365681585
20
228.23492808738041
42
-0.08431570788714042
10
103.18109007856438
20
227.90393276196494
42
-0.28407904384041122
10
102.71947131946847
20
227.54692830016785
42
-0.28407904384041349
10
102.19371463652338
20
227.8001554212091
42
-0.084315707887146013
10
102.07513497025607
20
228.11334049294618
42
0.37671507298014151
10
101.91355839663143
20
228.22767660960517
42
0.0011696483071580413
10
101.38205885897186
20
228.16711988646989
42
0.37671507298007539
10
101.25034351245348
20
228.01936737647941
42
-0.08431570788715316
10
101.20525434744243
20
227.6875345968906
42
-0.28407904384041865
10
100.7499364820866
20
227.32252815039945
42
-0.284079043840404
10
100.21984045179354
20
227.56654098440578
42
-0.084315707887140198
10
100.0958130126217
20
227.87760885600852
42
0.37671507298017176
10
99.932265607513415
20
227.98910765868959
42
0.0011696483071461765
10
99.401903880352506
20
227.91928421268406
42
0.37671507298004725
10
99.272787231575847
20
227.76925545635507
42
-0.084315707887145444
10
99.233496214401583
20
227.43668630207219
42
-0.28407904384039262
10
98.784617937018467
20
227.06378905538645
42
-0.28407904384041865
10
98.250344031763376
20
227.29851327368476
42
-0.084315707887130359
10
98.120906599646474
20
227.60736919086617
42
0.37671507298002638
10
97.955438181178565
20
227.71599671595374
42
0.0011696483071580413
10
97.426375817835989
20
227.63692781597612
42
0.37671507297998202
10
97.299897196983082
20
227.48466851352111
42
-0.084315707887139296
10
97.266416296070133
20
227.15146428833023
42
-0.28407904384041049
10
96.824114339331345
20
226.77078982956357
42
-0.28407904384042548
10
96.285825304121431
20
226.99615393288315
42
-0.084315707887148025
10
96.151017306955154
20
227.30270381513895
42
0.37671507298022572
10
95.983678278410622
20
227.40842697363667
42
0.0011696483071580413
10
95.456076436407656
20
227.32013670483974
42
0.37671507298012102
10
95.332274370091653
20
227.16569323591713
42
-0.084315707887138186
10
95.304613784046694
20
226.83195543705301
42
-0.28407904384042354
10
94.869022877412931
20
226.44361972333326
42
-0.28407904384042404
10
94.326882680302873
20
226.65955506358515
42
-0.084315707887129124
10
94.186745181909103
20
226.96370553285149
42
0.37671507298013523
10
94.017586516377264
20
227.06649212046116
42
0.0011696483071580413
10
93.491605908345804
20
226.96900737691607
42
0.37671507298006141
10
93.370518107875341
20
226.81242678650281
42
-0.084315707887132371
10
93.348686262380852
20
226.47825707373204
42
-0.28407904384044308
10
92.919939091061948
20
226.08237839587943
42
-0.28407904384039789
10
92.374112873207622
20
226.28881919706714
42
-0.084315707887166802
10
92.228688560825816
20
226.59047760616485
42
0.37671507298013984
10
92.057761785674813
20
226.69029631309604
42
0.0011696483071461765
10
91.533562630403367
20
226.5836467896001
42
0.37671507297997309
10
91.41522598029556
20
226.42497677366077
42
-0.084315707887150482
10
91.399229525543163
20
226.09047693831491
42
-0.28407904384039728
10
90.977456690080928
20
225.68717588480982
42
-0.28407904384038035
10
90.428110715435736
20
225.88405926306538
42
-0.084315707887141197
10
90.277443886720363
20
226.18313372392066
42
0.3767150729801752
10
90.104801067901704
20
226.27995414442847
42
0.0011696483071461765
10
89.582543041530897
20
226.16417232745962
42
0.37671507297986506
10
89.466993588275699
20
226.00346121841818
42
-0.084315707887146679
10
89.456837396940557
20
225.66873315238755
42
-0.28407904384040783
10
89.042167373426366
20
225.25813257263761
42
-0.28407904384037819
10
88.489468978095886
20
225.4453985553769
42
-0.084315707887144889
10
88.333605527622424
20
225.74179796701179
42
0.37671507298012263
10
88.159299253811156
20
225.83559060865804
42
0.0011696483071580413
10
87.639141441195306
20
225.71071176647939
42
0.37671507298022477
10
87.526414382275348
20
225.54800851849643
42
-0.084315707887139518
10
87.522101548031671
20
225.21315418319256
42
-0.28407904384042726
10
87.114660648971778
20
224.7953791501119
42
-0.28407904384046484
10
86.558778190241242
20
224.97297069430255
42
-0.084315707887127
10
86.397765595526636
20
225.26660477058499
42
0.37671507298008428
10
86.221848962102314
20
225.35734106322252
42
0.0011696483071461765
10
85.703949808349847
20
225.22340323513905
42
0.37671507298014539
10
85.594079481519501
20
225.05875740920004
42
-0.08431570788713684
10
85.595611318098307
20
224.72387880449725
42
-0.28407904384040378
10
85.195523653937514
20
224.29905657640813
42
-0.28407904384040389
10
84.636626458988943
20
224.46691958594522
42
-0.084315707887156852
10
84.470513766029256
20
224.75769888309119
42
0.37671507298009183
10
84.293040358902545
20
224.84535118756625
42
0.0011696483071580413
10
83.777557621112777
20
224.70239517233802
42
0.37671507297998869
10
83.67057749393787
20
224.53585692115661
42
-0.08431570788715316
10
83.677953534726996
20
224.20105605432181
42
-0.28407904384042892
10
83.285340976043486
20
223.76931603619022
42
-0.2840790438404282
10
82.723599290376498
20
223.92739937837496
42
-0.084315707887131247
10
82.552437098707273
20
224.21523532219362
42
0.37671507298015094
10
82.373460977997169
20
224.29977693876515
42
0.0011696483071461765
10
81.860551677205592
20
224.14784628217913
42
0.37671507297998558
10
81.756494336869153
20
223.97946633491983
42
-0.084315707887150149
10
81.769712335055132
20
223.64484518954046
42
-0.28407904384044325
10
81.384694475437627
20
223.20631889355826
42
-0.28407904384042115
10
80.820279411011484
20
223.35457441467332
42
-0.084315707887150482
10
80.644119858294289
20
223.63937932754794
42
0.37671507298005841
10
80.463695541861057
20
223.72078450402054
42
0.0011696483071461765
10
79.95351591520928
20
223.55992548562656
42
0.37671507298022738
10
79.852413058585242
20
223.38975513245236
42
-0.084315707887147234
10
79.871468987837758
20
223.05541563737086
42
-0.28407904384040961
10
79.494163107456075
20
222.61023664289598
42
-0.28407904384040461
10
78.927246590566995
20
222.74861918287331
42
-0.084315707887137617
10
78.746143336708059
20
223.03030631046835
42
0.37671507298009427
10
78.564325783546224
20
223.10855025003676
42
0.0011696483071461765
10
78.057031236690847
20
222.93881186905003
42
0.37671507298018209
10
77.958913660688751
20
222.76690294549911
42
-0.084315707887145111
10
77.983801716387106
20
222.43294694376448
42
-0.28407904384038374
10
77.614322746267462
20
221.98125085663122
42
-0.28407904384040794
10
77.045077465178267
20
222.10971826280866
42
-0.084315707887145444
10
76.859085675983195
20
222.38820180049632
42
0.37671507298010404
10
76.675930269480773
20
222.46326066929853
42
0.0011696483071580413
10
76.171675329254938
20
222.28469462967425
42
0.37671507298008
10
76.076572921438938
20
222.11109950087007
42
-0.084315707887153382
10
76.107285522440336
20
221.7776287187155
42
-0.28407904384041949
10
75.745746009456241
20
221.31955312992747
42
-0.28407904384041599
10
75.174345361794025
20
221.43806626988874
42
-0.084315707887142211
10
74.983521692163478
20
221.71326138888566
42
0.376715072980157
10
74.799084223231475
20
221.78511232326315
42
0.0011696483071580413
10
74.29802249057488
20
221.59777301794679
42
0.37671507297998291
10
74.205964220059712
20
221.42254456264723
42
-0.084315707887152605
10
74.242492011008309
20
221.08966057850338
42
-0.28407904384041321
10
73.889002083597717
20
220.62534502232256
42
-0.28407904384040411
10
73.315620123535041
20
220.73386779581696
42
-0.084315707887146568
10
73.120022700207329
20
221.00569066902412
42
0.3767150729801399
10
72.934359350285561
20
221.07431178248618
42
0.0011696483071461765
10
72.436643453455915
20
220.87825627684492
42
0.37671507298016371
10
72.34765736208243
20
220.70144787133478
42
-0.08431570788713863
10
72.389989216259295
20
220.36925208488807
42
-0.2840790438404005
10
72.044656550878429
20
219.8988379963308
42
-0.28407904384041155
10
71.469467936114782
20
219.9973373462704
42
-0.084315707887141753
10
71.269156339959892
20
220.26570517380733
42
0.37671507298008539
10
71.082323663903281
20
220.33107556369811
42
0.0011696483071580413
10
70.588105211984214
20
220.12636357813821
42
0.37671507298022672
10
70.502218405777953
20
219.94802907997069
42
-0.084315707887136396
10
70.550341428490185
20
219.6166226812756
42
-0.28407904384038996
10
70.213271216814263
20
219.14025335303023
42
-0.28407904384042881
10
69.636451155373649
20
219.22869927555877
42
-0.084315707887142877
10
69.431486403244207
20
219.49353030998552
42
0.3767150729800397
10
69.2435413120958
20
219.55563006385097
42
0.0011696483071461765
10
68.752970848815295
20
219.34232395562628
42
0.37671507298013557
10
68.670209489729444
20
219.16251768721719
42
-0.084315707887139407
10
68.724109022238181
20
218.83200162587315
42
-0.28407904384038374
10
68.395403939118921
20
218.34982216465175
42
-0.28407904384041188
10
67.817128135979885
20
218.42818771828439
42
-0.084315707887147234
10
67.607572662124937
20
218.68940128950243
42
0.37671507298007728
10
67.418572405780083
20
218.74821149115604
42
0.0011696483071580413
10
66.931799363653511
20
218.52637623537348
42
0.37671507298006063
10
66.852188661599826
20
218.34515296745388
42
-0.084315707887138963
10
66.911848285585322
20
218.01562792185504
42
-0.28407904384042271
10
66.591608457775266
20
217.52778520419241
42
-0.28407904384040533
10
66.012053061349334
20
217.59604651802249
42
-0.084315707887140198
10
65.797970698396256
20
217.85356305784748
42
0.37671507298008428
10
65.607972848163968
20
217.90906579313202
42
0.0011696483071461765
10
65.125145502975514
20
217.67876896295951
42
0.37671507298012941
10
65.048709708144884
20
217.49618389789242
42
-0.084315707887144112
10
65.114111250707737
20
217.16775024455978
42
-0.28407904384044058
10
64.802434226360674
20
216.67439287207367
42
-0.28407904384037042
10
64.221775774835862
20
216.7325291530436
42
-0.084315707887162444
10
64.003231734346258
20
216.98627021944307
42
0.37671507298008744
10
63.812294165412304
20
217.03844858168767
42
0.0011696483071461765
10
63.333559591048513
20
216.79976032777063
42
0.37671507298016244
10
63.260321986524623
20
216.61586908273551
42
-0.084315707887135605
10
63.331445525721406
20
216.28862686574155
42
-0.28407904384044108
10
63.028426244678286
20
215.78990511986675
42
-0.28407904384043398
10
62.446841612243858
20
215.83789865910245
42
-0.084315707887128458
10
62.223902464849502
20
216.08778696008923
42
0.37671507298018136
10
62.032083338646942
20
216.13662505525937
42
0.0011696483071461765
10
61.557587362296935
20
215.88961808435215
42
0.37671507298016044
10
61.487570256963515
20
215.70447667440376
42
-0.084315707887140975
10
61.564394127875232
20
215.37852557489776
42
-0.28407904384041538
10
61.270124892744413
20
214.87459137110946
42
-0.28407904384040605
10
60.687791235713362
20
214.91242754931352
42
-0.084315707887137506
10
60.460524890838258
20
215.1583869664907
42
0.37671507298011342
10
60.267882637331169
20
215.20386991802951
42
0.0011696483071580413
10
59.797769795065669
20
214.9486194708482
42
0.37671507298010032
10
59.730994516811336
20
214.76228429185346
42
-0.084315707887134383
10
59.813495318142657
20
214.43772359769798
42
-0.28407904384042426
10
59.528065766183843
20
213.92873043923623
42
-0.28407904384041671
10
58.945160469029332
20
213.9563977311426
42
-0.084315707887129901
10
58.713636154203641
20
214.19835334288882
42
0.37671507298010559
10
58.520229454088657
20
214.24046729624862
42
0.0011696483071580413
10
58.054642946833582
20
213.97705112455213
42
0.37671507297997842
10
57.991129836054974
20
213.78957893601168
42
-0.084315707887140309
10
58.07928243726262
20
213.46650751153817
42
-0.28407904384042165
10
57.802779513082349
20
212.95261044264981
42
-0.2840790438404252
10
57.219480134404577
20
212.97010042053324
42
-0.08431570788714042
10
56.983768374177508
20
213.20797852482545
42
0.37671507298020912
10
56.789656141009019
20
213.24671065168801
42
0.0011696483071343114
10
56.328737790924677
20
212.97520899459408
42
0.37671507298011342
10
56.268506194330541
20
212.78665690235249
42
-0.084315707887142322
10
56.36228374327824
20
212.46517315824656
42
-0.28407904384040988
10
56.094791672345778
20
211.946528716957
42
-0.28407904384041133
10
55.511275890786003
20
211.95383605320072
42
-0.084315707887137839
10
55.271448485243113
20
212.18756419006399
42
0.37671507298013257
10
55.076689847487756
20
212.22290269224834
42
0.0011696483071580413
10
54.620580054768681
20
211.94339825179182
42
0.37671507298009121
10
54.56364831948683
20
211.75382369064306
42
-0.084315707887149025
10
54.663022250624692
20
211.43402555396736
42
-0.28407904384042076
10
54.404622513616118
20
210.91079172439765
42
-0.28407904384042593
10
53.821068073734125
20
210.9079141931164
42
-0.084315707887144445
10
53.577198076626289
20
211.13742116669596
42
0.37671507298009099
10
53.381852359651816
20
211.16935527975193
42
0.0011696483071461765
10
52.930690059759236
20
210.88193319569291
42
0.37671507298012374
10
52.877075527747735
20
210.69139391188469
42
-0.084315707887161542
10
52.982015570813772
20
210.37337879624965
42
-0.28407904384035565
10
52.732786878792083
20
209.84571496049313
42
-0.2840790438404221
10
52.149371536923219
20
209.8326534382106
42
-0.084315707887151814
10
51.901533233414099
20
210.05786933845914
42
0.37671507298014106
10
51.70565994141824
20
210.08638933494663
42
0.0011696483071461765
10
51.259582562759256
20
209.79113715883619
42
0.37671507298012802
10
51.209301565524001
20
209.59969119248024
42
-0.084315707887149136
10
51.319775754764379
20
209.28355596837079
42
-0.28407904384040961
10
51.079794025203533
20
208.75162285794312
42
-0.28407904384041216
10
50.496695495312679
20
208.72838132332575
42
-0.084315707887145444
10
50.244964379350321
20
208.9492375472982
42
0.3767150729800916
10
50.048623177235271
20
208.97433473974999
42
0.0011696483071461765
10
49.60776659930066
20
208.67134240826124
42
0.37671507298013041
10
49.560834452920432
20
208.47904807565342
42
-0.084315707887140642
10
49.676809136827003
20
208.16488904092137
42
-0.28407904384041444
10
49.446147470486594
20
207.62884868780108
42
-0.28407904384041743
10
48.863543370034471
20
207.59543422044533
42
-0.084315707887140642
10
48.607996121355399
20
207.81186349319643
42
0.37671507298009366
10
48.411246816553316
20
207.83353023676455
42
0.0011696483071461765
10
47.97574532852736
20
207.52289004429679
42
0.37671507298008333
10
47.932176328988625
20
207.3298059201536
42
-0.084315707887127112
10
48.053616180549184
20
207.01771877068421
42
-0.28407904384043986
10
47.832344839207217
20
206.47773445795559
42
-0.28407904384042609
10
47.250412635046715
20
206.43415723623195
42
-0.084315707887135716
10
46.991127095818399
20
206.64609363130862
42
0.37671507298014628
10
46.794029620073474
20
206.66432332609307
42
0.0011696483071580413
10
46.36401587992826
20
206.34612989665823
42
0.37671507298015816
10
46.323823298770314
20
206.15231479627431
42
-0.084315707887143987
10
46.450691326229673
20
205.84239459683647
42
-0.28407904384041421
10
46.238877711280225
20
205.29863080895214
42
-0.28407904384041971
10
45.657794665598004
20
205.2449041069045
42
-0.084315707887143543
10
45.394849816707463
20
205.45228306642775
42
0.37671507298033391
10
45.197464207820062
20
205.46707015948687
42
0.0011696483071580413
10
44.773069201906594
20
205.14142041788591
42
0.37671507298014423
10
44.736265282179005
20
204.94693337921842
42
-0.084315707887134272
10
44.868522840306994
20
204.63927453450725
42
-0.2840790438403813
10
44.666231472229107
20
204.0918969071846
42
-0.28407904384041061
10
44.086174588549937
20
204.02803709048683
42
-0.084315707887139407
10
43.819650525545356
20
204.23079544481666
42
0.37671507298016105
10
43.622036909084237
20
204.2421354318588
42
0.0011696483071580413
10
43.203389912232275
20
203.90912857415765
42
0.3767150729801485
10
43.169985864765565
20
203.7140288398426
42
-0.084315707887132926
10
43.307592666628764
20
203.40872506572251
42
-0.28407904384043337
10
43.11488516533273
20
202.85790033548923
42
-0.28407904384040245
10
42.536031134602538
20
202.78392685646014
42
-0.084315707887139962
10
42.266009043295412
20
202.98200284343773
42
0.37671507298019963
10
42.068227614282407
20
202.98989227019285
42
0.0011696483071461765
10
41.655456150422765
20
202.64962973350629
42
0.37671507298019091
10
41.625462150413313
20
202.45397673281269
42
-0.084315707887140975
10
41.768376279646901
20
202.15112102777078
42
-0.28407904384040678
10
41.585311345704419
20
201.59701698117584
42
-0.28407904384040389
10
41.007836492468464
20
201.51295237285376
42
-0.084315707887131469
10
40.734398624203479
20
201.70628565661445
42
0.37671507298010515
10
40.536509628777814
20
201.71072211988678
42
0.0011696483071461765
10
40.129739432097075
20
201.36330755147964
42
0.3767150729801193
10
40.103164616007902
20
201.16716088220693
42
-0.084315707887122865
10
40.25134253958359
20
200.86684549902489
42
-0.28407904384043209
10
40.077975936347052
20
200.30963092152845
42
-0.28407904384042909
10
39.50205616503969
20
200.2155007908074
42
-0.08431570788714142
10
39.225285811640418
20
200.40403248016034
42
0.3767150729802638
10
39.02734952870702
20
200.4050146285602
42
0.0011696483071461765
10
38.626704505347661
20
200.05055385427553
42
0.37671507298021145
10
38.603556968125162
20
199.8539732645992
42
-0.084315707887134939
10
38.756953549612035
20
199.55628968225184
42
-0.28407904384039945
10
38.593338086228101
20
198.99613430681225
42
-0.28407904384041371
10
38.019148827590804
20
198.89196732664192
42
-0.084315707887143432
10
37.739130295988026
20
199.07563999300805
42
0.37671507298017182
10
37.541207018856241
20
199.07316752736349
42
0.0011696483071580413
10
37.146809209173327
20
198.71176851938688
42
0.37671507298015394
10
37.127096001781581
20
198.51481388965891
42
-0.084315707887143432
10
37.285664515094929
20
198.21985278544918
42
-0.28407904384041061
10
37.131850030418761
20
197.65692724082001
42
-0.28407904384041249
10
36.559566188061979
20
197.54275514147162
42
-0.08431570788714321
10
36.276384774613021
20
197.72151283637751
42
0.3767150729800493
10
36.078534792630322
20
197.71558650982564
42
0.0011696483071343114
10
35.690504334017383
20
197.34735935379578
42
0.3767150729801465
10
35.674231461290312
20
197.15009067830431
42
-0.084315707887142877
10
35.837923604924903
20
196.85794190024197
42
-0.28407904384043192
10
35.693956952338588
20
196.29241765899724
42
-0.28407904384042021
10
35.123752849464537
20
196.16827521839838
42
-0.084315707887149025
10
34.837494813971162
20
196.34206349051854
42
0.37671507298020712
10
34.639778394158682
20
196.33268510827563
42
0.0011696483071461765
10
34.258233484452319
20
195.95774196975145
42
0.37671507298015627
10
34.245405903264604
20
195.76021933844601
42
-0.084315707887134037
10
34.414171815007776
20
195.47097187787895
42
-0.2840790438404252
10
34.28009684814829
20
194.90302120418104
42
-0.28407904384041105
10
33.712146174450382
20
194.76894623732147
42
-0.084315707887137728
10
33.422898713883313
20
194.93771214906468
42
0.37671507298017748
10
33.22537608257781
20
194.92488456787703
42
0.0011696483071461765
10
32.850432944053665
20
194.54333965817059
42
0.37671507298007834
10
32.841054561810793
20
194.3456232383582
42
-0.084315707887140309
10
33.014842833930913
20
194.05936520286485
42
-0.28407904384043636
10
32.890700393332004
20
193.48916109999078
42
-0.28407904384041466
10
32.325176152087344
20
193.34519444740442
42
-0.084315707887138852
10
32.033027374025011
20
193.50888659103904
42
0.37671507298028034
10
31.835758698533496
20
193.4926137183119
42
0.0011696483071580413
10
31.467531542503693
20
193.10458325969898
42
0.37671507298007589
10
31.461605215951781
20
192.90673327771628
42
-0.08431570788712868
10
31.640362910857682
20
192.62355186426737
42
-0.28407904384039823
10
31.526190811509323
20
192.0512680219106
42
-0.28407904384042137
10
30.963265266880128
20
191.89745353723441
42
-0.084315707887144667
10
30.668304162670385
20
192.05602205054774
42
0.37671507298010304
10
30.471349532942416
20
192.03630884315595
42
0.0011696483071461765
10
30.109950524965853
20
191.64191103347304
42
0.37671507298006146
10
30.107478059321288
20
191.4439877563413
42
-0.084315707887138186
10
30.291150725687444
20
191.16396922473854
42
-0.28407904384039545
10
30.186983745517093
20
190.58977996610128
42
-0.28407904384041682
10
29.62682837007744
20
190.42616450271726
42
-0.08431570788713337
10
29.329144787730105
20
190.57956108420413
42
0.37671507298009294
10
29.132564198053803
20
190.55641354698164
42
0.0011696483071461765
10
28.778103423769078
20
190.15576852362221
42
0.37671507298010237
10
28.779085572168984
20
189.9578322406889
42
-0.084315707887136507
10
28.967617261521859
20
189.68106188728964
42
-0.28407904384041993
10
28.873487130800861
20
189.10514211598226
42
-0.28407904384042498
10
28.316272553304451
20
188.93177551274567
42
-0.084315707887139518
10
28.015957170122306
20
189.07995343632135
42
0.37671507298001605
10
27.819810500849638
20
189.05337862023219
42
0.0011696483071461765
10
27.472395932442456
20
188.6466084235515
42
0.37671507298006535
10
27.47683239571483
20
188.4487194281258
42
-0.08431570788714679
10
27.670165679475613
20
188.17528155986085
42
-0.28407904384039606
10
27.586101071153507
20
187.59780670662494
42
-0.28407904384041466
10
27.031997024558557
20
187.41474177268245
42
-0.0843157078871421
10
26.729141319516636
20
187.55765590191598
42
0.37671507297995999
10
26.533488318823135
20
187.52766190190658
42
0.0011696483071461765
10
26.193225782136501
20
187.11489043804698
42
0.37671507298006968
10
26.201115208891686
20
186.91710900903405
42
-0.084315707887130012
10
26.399191195869168
20
186.64708691772688
42
-0.28407904384044924
10
26.325217716840079
20
186.06823288699661
42
-0.28407904384039645
10
25.774392986606873
20
185.8755253857006
42
-0.084315707887141642
10
25.469089212486757
20
186.01313218756385
42
0.37671507298016799
10
25.273989478171703
20
185.97972814009717
42
0.0011696483071461765
10
24.940982620470528
20
185.56108114324513
42
0.37671507298017903
10
24.952322607512652
20
185.36346752678401
42
-0.084315707887143987
10
25.155080961842483
20
185.09694346377938
42
-0.28407904384037952
10
25.091221145144736
20
184.51688658010028
42
-0.2840790438404231
10
24.543843517822019
20
184.31459521202228
42
-0.084315707887144112
10
24.236184673110802
20
184.44685277015029
42
0.37671507298011925
10
24.041697634443366
20
184.4100488504227
42
0.0011696483071580413
10
23.716047892842369
20
183.9856538445091
42
0.37671507298028567
10
23.730834985901581
20
183.78826823562181
42
-0.08431570788713684
10
23.938213945424778
20
183.52532338673126
42
-0.28407904384040794
10
23.884487243377141
20
182.94424034104904
42
-0.28407904384041877
10
23.340723455492824
20
182.73242672609962
42
-0.084315707887146235
10
23.030803256054977
20
182.859294753559
42
0.37671507298016599
10
22.836988155671083
20
182.81910217240102
42
0.0011696483071461765
10
22.518794726236241
20
182.38908843225585
42
0.37671507298014123
10
22.537024421020696
20
182.19199095651089
42
-0.084315707887139962
10
22.748960816097402
20
181.93270541728265
42
-0.28407904384041321
10
22.705383594373775
20
181.3507732131221
42
-0.28407904384041704
10
22.165399281645158
20
181.12950187178015
42
-0.084315707887138852
10
21.853312132175731
20
181.25094172334073
42
0.37671507298016343
10
21.660228008032512
20
181.20737272380197
42
0.0011696483071461765
10
21.349587815564806
20
180.77187123577602
42
0.37671507298007495
10
21.371254559132908
20
180.57512193097395
42
-0.08431570788713505
10
21.587683831884004
20
180.3195746822949
42
-0.28407904384040505
10
21.554269364528288
20
179.73697058184283
42
-0.2840790438404312
10
21.018229011407993
20
179.50630891550233
42
-0.084315707887138186
10
20.704069976675939
20
179.62228359940892
42
0.37671507298002788
10
20.511775644068084
20
179.57535145302873
42
0.0011696483071580413
10
20.208783312579328
20
179.13449487509408
42
0.37671507298010842
10
20.233880505031131
20
178.93815367297904
42
-0.084315707887150038
10
20.454736729003567
20
178.68642255701661
42
-0.28407904384040172
10
20.431495194386184
20
178.10332402712575
42
-0.28407904384042137
10
19.899562083958507
20
177.86334229756491
42
-0.08431570788714142
10
19.583426859849112
20
177.9738164868053
42
0.37671507298010837
10
19.391980893493113
20
177.92353548957007
42
0.0011696483071461765
10
19.096728717382753
20
177.47745811091119
42
0.37671507298032253
10
19.12524871387021
20
177.28158481891523
42
-0.084315707887145666
10
19.350464614118675
20
177.03374651540605
42
-0.28407904384039884
10
19.337403091836212
20
176.45033117353728
42
-0.28407904384041849
10
18.80973925607957
20
176.20110248151548
42
-0.084315707887145
10
18.491724140444592
20
176.30604252458153
42
0.37671507298012302
10
18.301184856636414
20
176.25242799257009
42
0.0011696483071580413
10
18.013762772577351
20
175.80126569267748
42
0.37671507298010593
10
18.045696885633365
20
175.60591997570302
42
-0.08431570788714321
10
18.275203859212958
20
175.36204997859522
42
-0.28407904384042704
10
18.272326327931651
20
174.77849553871317
42
-0.28407904384041277
10
17.749092498361975
20
174.5200958017046
42
-0.084315707887141975
10
17.429294361686299
20
174.61946973284245
42
0.37671507298012968
10
17.239719800537525
20
174.56253799756058
42
0.0011696483071461765
10
16.960215360080923
20
174.10642820484156
42
0.37671507298009299
10
16.995553862265297
20
173.91166956708622
42
-0.084315707887138186
10
17.229281999128538
20
173.67184216154331
42
-0.28407904384043065
10
17.23658933537229
20
173.08832637998353
42
-0.28407904384041632
10
16.717944894082763
20
172.82083430905112
42
-0.084315707887137062
10
16.396461149976808
20
172.91461185799875
42
0.37671507298013857
10
16.207909057735232
20
172.85438026140463
42
0.0011696483071461765
10
15.936407400641293
20
172.39346191132032
42
0.37671507298011214
10
15.975139527503881
20
172.19934967815186
42
-0.084315707887139407
10
16.213017631796113
20
171.96363791792479
42
-0.28407904384042765
10
16.230507609679481
20
171.38033853924696
42
-0.28407904384041061
10
15.716610540791168
20
171.10383561506677
42
-0.084315707887139962
10
15.393539116317656
20
171.19198821627438
42
0.37671507298035439
10
15.206066927777062
20
171.12847510549562
42
0.0011696483071461765
10
14.942650756080685
20
170.66288859824061
42
0.37671507298010987
10
14.984764709440466
20
170.46948189812565
42
-0.084315707887133703
10
15.226720321186772
20
170.23795758330004
42
-0.28407904384042981
10
15.25438761309309
20
169.65505228614546
42
-0.28407904384041349
10
14.745394454631365
20
169.36962273418672
42
-0.084315707887138852
10
14.420833760475844
20
169.45212353551798
42
0.37671507298028495
10
14.234498581481017
20
169.38534825726356
42
0.0011696483071580413
10
13.979248134299835
20
168.91523541499822
42
0.3767150729802109
10
14.02473108583861
20
168.72259316149112
42
-0.084315707887141975
10
14.270690503015766
20
168.495326816616
42
-0.28407904384040505
10
14.30852668121992
20
167.91299315958497
42
-0.28407904384041865
10
13.804592477431578
20
167.61872392445417
42
-0.084315707887141975
10
13.478641377925591
20
167.69554779536588
42
0.37671507298011181
10
13.293499967977169
20
167.62553069003246
42
0.0011696483071580413
10
13.046492997069949
20
167.15103471368238
42
0.37671507298022844
10
13.095331092240093
20
166.95921558747983
42
-0.084315707887143321
10
13.34521939322695
20
166.73627644008545
42
-0.28407904384041732
10
13.39321293246253
20
166.15469180765101
42
-0.28407904384041754
10
12.894491186587768
20
165.8516725266079
42
-0.084315707887143099
10
12.567248969593777
20
165.92279606580468
42
0.37671507298018075
10
12.383357724558675
20
165.84955846128076
42
0.0011696483071580413
10
12.144669470641638
20
165.37082388691698
42
0.37671507298011497
10
12.196847832886291
20
165.17988631798303
42
-0.084315707887134939
10
12.450588899285659
20
164.96134227749343
42
-0.28407904384041371
10
12.508725180255647
20
164.38068382596856
42
-0.28407904384041011
10
12.015367807769506
20
164.06900680162153
42
-0.0843157078871421
10
11.68693415443688
20
164.13440834418438
42
0.37671507298018853
10
11.504349089369761
20
164.05797254935374
42
0.0011696483071461765
10
11.274052259197278
20
163.57514520416538
42
0.37671507298010459
10
11.329554994481796
20
163.38514735393306
42
-0.084315707887143654
10
11.587071534306805
20
163.17106499097997
42
-0.28407904384040961
10
11.655332848136897
20
162.59150959455405
42
-0.28407904384042765
10
11.167490130474267
20
162.27126976674401
42
-0.084315707887142766
10
10.837965084875398
20
162.33092939072949
42
0.3767150729798347
10
10.656741816955861
20
162.25131868867584
42
0.0011696483071343114
10
10.434906561173323
20
161.76454564654927
42
0.37671507298017515
10
10.493716762826892
20
161.57554539020438
42
-0.08431570788713684
10
10.75493033404487
20
161.36598991634946
42
-0.28407904384039906
10
10.833295887677592
20
160.78771411321046
42
-0.28407904384043137
10
10.351116426456121
20
160.45900903009115
42
-0.084315707887139629
10
10.020600365112111
20
160.51290856259988
42
0.37671507298010359
10
9.8407940967029539
20
160.43014720351403
42
0.0011696483071580413
10
9.6274879884783289
20
159.93957674023358
42
0.37671507298008161
10
9.6895877423438179
20
159.75163164908514
42
-0.084315707887135383
10
9.9544187767705559
20
159.54666689695574
42
-0.28407904384043065
10
10.042864699299097
20
158.96984683551511
42
-0.2840790438404131
10
9.5664953710536818
20
158.63277662383919
42
-0.084315707887140642
10
9.2350889723585876
20
158.68089964655144
42
0.37671507298019369
10
9.0567544741911199
20
158.59501284034511
42
0.0011696483071461765
10
8.8520424886312341
20
158.10079438842615
42
0.37671507298034379
10
8.9174128785220024
20
157.91396171236943
42
-0.084315707887140309
10
9.1857807060589352
20
157.71365011621455
42
-0.2840790438404231
10
9.2842800559985097
20
157.13846150145088
42
-0.28407904384041083
10
8.8138659674412061
20
156.79312883607
42
-0.084315707887142433
10
8.481670180994465
20
156.83546069024686
42
0.37671507298010048
10
8.304861775484369
20
156.74647459887339
42
0.0011696483071461765
10
8.1088062698430878
20
156.24875870204372
42
0.37671507298011603
10
8.1774273833051794
20
156.06309535212193
42
-0.084315707887143099
10
8.4492502565123218
20
155.86749792879425
42
-0.28407904384041094
10
8.5577730300067572
20
155.29411596873155
42
-0.28407904384041177
10
8.0934574738259357
20
154.94062604132097
42
-0.0843157078871421
10
7.7605734896821632
20
154.97715383226961
42
0.3767150729801152
10
7.5853450343825379
20
154.88509556175435
42
0.0011696483071461765
10
7.3980057290661474
20
154.38403382909783
42
0.37671507298011886
10
7.4698566634436281
20
154.19959636016586
42
-0.084315707887141642
10
7.7450517824405907
20
154.0087726905353
42
-0.28407904384040411
10
7.8635649224018058
20
153.43737204287311
42
-0.28407904384042487
10
7.4054893336137919
20
153.07583252988903
42
-0.084315707887140642
10
7.0720185514592595
20
153.10654513089031
42
0.37671507298000562
10
6.8984234226550534
20
153.01144272307437
42
0.0011696483071343114
10
6.7198573830307939
20
152.5071877828486
42
0.37671507298009332
10
6.794916251833012
20
152.3240323763462
42
-0.084315707887145111
10
7.0733997895206464
20
152.13804058715107
42
-0.28407904384042393
10
7.2018671956981368
20
151.56879530606187
42
-0.2840790438404095
10
6.7501711085647864
20
151.19931633594223
42
-0.084315707887142766
10
6.4162151068301663
20
151.22420439164063
42
0.37671507298018886
10
6.2443061832792779
20
151.12608681563847
42
0.0011696483071580413
10
6.0745678022925462
20
150.61879226878312
42
0.37671507298015744
10
6.1528117418609751
20
150.43697471562123
42
-0.084315707887134383
10
6.434498869455977
20
150.25587146176233
42
-0.28407904384042137
10
6.5728814094333332
20
149.68895494487322
42
-0.284079043840407
10
6.1277024149584562
20
149.31164906449152
42
-0.0843157078871421
10
5.7933629198769747
20
149.33070499374409
42
0.3767150729803071
10
5.6231925667027838
20
149.22960213711997
42
0.0011696483071580413
10
5.4623335483087976
20
148.71942251046832
42
0.37671507298014018
10
5.5437387247814565
20
148.53899819403506
42
-0.084315707887137173
10
5.8285436376560256
20
148.36283864131786
42
-0.28407904384039967
10
5.9767991587710236
20
147.79842357689174
42
-0.28407904384042237
10
5.5382728627888556
20
147.41340571727423
42
-0.084315707887140309
10
5.2036517174095405
20
147.42662371546027
42
0.37671507298009071
10
5.0352717701501959
20
147.32256637512384
42
0.0011696483071461765
10
4.8833411135641516
20
146.80965707433211
42
0.37671507297998802
10
4.967882730135706
20
146.63068095362209
42
-0.084315707887139851
10
5.2557186739543802
20
146.45951876195284
42
-0.28407904384041205
10
5.4138020161391376
20
145.89777707628588
42
-0.28407904384042448
10
4.9820619980075511
20
145.50516451760234
42
-0.084315707887140753
10
4.6472611311728143
20
145.51254055839152
42
0.37671507298023005
10
4.480722879991319
20
145.40556043121651
42
0.0011696483071461765
10
4.3377668647630854
20
144.89007769342683
42
0.3767150729802623
10
4.4254191692381255
20
144.71260428630004
42
-0.084315707887130581
10
4.7161984663840881
20
144.54649159334042
42
-0.28407904384040927
10
4.8840614759211629
20
143.98759439839185
42
-0.2840790438404322
10
4.4592392478320475
20
143.58750673423094
42
-0.084315707887139851
10
4.1243606431292275
20
143.58903857080986
42
0.37671507298010204
10
3.9597148171902141
20
143.47916824397947
42
0.0011696483071461765
10
3.8257769891067905
20
142.96126909022698
42
0.3767150729800911
10
3.9165132817442991
20
142.78535245680266
42
-0.084315707887137506
10
4.2101473580268305
20
142.62433986208808
42
-0.28407904384041405
10
4.3877389022173849
20
142.06845740335757
42
-0.28407904384042693
10
3.9699638691367527
20
141.66101650429763
42
-0.084315707887141197
10
3.6351095338328738
20
141.65670367005399
42
0.37671507298015439
10
3.4724062858498961
20
141.54397661113404
42
0.0011696483071461765
10
3.3475274436712352
20
141.02381879851816
42
0.37671507298010298
10
3.4413200853174883
20
140.84951252470688
42
-0.084315707887144334
10
3.7377194969524279
20
140.69364907423343
42
-0.28407904384040217
10
3.9249854796917338
20
140.14095067890293
42
-0.28407904384042376
10
3.5143848999417533
20
139.72628065538873
42
-0.084315707887140975
10
3.1796568339111611
20
139.71612446405359
42
0.37671507298018675
10
3.018945724869635
20
139.60057501079825
42
0.0011696483071580413
10
2.9031639079008631
20
139.07831698442774
42
0.37671507298035511
10
2.9999843284086012
20
138.90567416560896
42
-0.084315707887139518
10
3.2990587892638628
20
138.75500733689361
42
-0.28407904384041777
10
3.4959421675195146
20
138.20566136224838
42
-0.28407904384042582
10
3.0926411140143433
20
137.78388852678611
42
-0.084315707887139518
10
2.7581412786685404
20
137.76789207203382
42
0.37671507298009166
10
2.599471262729196
20
137.64955542192592
42
0.0011696483071461765
10
2.4928217392332517
20
137.12535626665453
42
0.37671507298018836
10
2.5926404461644963
20
136.95442949150348
42
-0.084315707887147789
10
2.8942988552621438
20
136.8090051791217
42
-0.28407904384040134
10
3.1007396564498411
20
136.26317896126736
42
-0.28407904384039762
10
2.7048609785972575
20
135.8344317899485
42
-0.084315707887141531
10
2.370691265826451
20
135.81259994445401
42
0.37671507298011458
10
2.2141106754131812
20
135.69151214398354
42
0.0011696483071461765
10
2.1166259318681049
20
135.165531535952
42
0.37671507297999191
10
2.219412519477761
20
134.99637287042023
42
-0.0843157078871421
10
2.5235629887441458
20
134.85623537202645
42
-0.28407904384043076
10
2.7394983289960133
20
134.31409517491633
42
-0.28407904384041155
10
2.3511626152762357
20
133.87850426828263
42
-0.084315707887140198
10
2.0174248164121216
20
133.85084368223767
42
0.37671507298013085
10
1.8629813474895762
20
133.72704161592159
42
0.0011696483071461765
10
1.7746910786926395
20
133.19943977391861
42
0.37671507298012219
10
1.8804142371904031
20
133.03210074537412
42
-0.084315707887140309
10
2.1869641194461851
20
132.89729274820789
42
-0.28407904384041349
10
2.4123282227657947
20
132.35900371299797
42
-0.28407904384042137
10
2.0316537639991155
20
131.91670175625919
42
-0.084315707887141753
10
1.6984495388082108
20
131.8832208553462
42
0.37671507298006701
10
1.5461902363531621
20
131.75674223449329
42
0.0011696483071461765
10
1.4671213363755051
20
131.22767987115085
42
0.3767150729801248
10
1.575748861463119
20
131.06221145268285
42
-0.084315707887139185
10
1.8846047786445863
20
130.93277402056597
42
-0.2840790438404126
10
2.1193289969429014
20
130.3985001153109
42
-0.28407904384043425
10
1.7464317502571265
20
129.94962183792774
42
-0.084315707887141308
10
1.4138625959742499
20
129.9103308207535
42
0.37671507297996182
10
1.2638338396452298
20
129.78121417197693
42
0.0011696483071461765
10
1.1940103936397215
20
129.25085244481582
42
0.37671507298004164
10
1.305509196320763
20
129.08730503970762
42
-0.084315707887136729
10
1.6165770679235549
20
128.9632776005358
42
-0.28407904384041921
10
1.8605899019298451
20
128.43318157024274
42
-0.28407904384041011
10
1.4955834554386873
20
127.97786370488694
42
-0.084315707887141197
10
1.1637506758499034
20
127.93277453987587
42
0.37671507298009321
10
1.0159981658594042
20
127.8010591933575
42
0.0011696483071461765
10
0.95544144272412113
20
127.26955965569793
42
0.37671507298011603
10
1.0697775593831624
20
127.10798308207329
42
-0.084315707887140309
10
1.3829626311202092
20
126.98940341580595
42
-0.28407904384042376
10
1.6361897521614495
20
126.46364673286085
42
-0.28407904384041227
10
1.2791852903643821
20
126.00202797376498
42
-0.084315707887137728
10
0.94818996494889995
20
125.9511543955135
42
0.37671507297997403
10
0.80275870814281447
20
125.81688047302394
42
0.0011696483071461765
10
0.75148715404220845
20
125.28440502477363
42
0.37671507298006768
10
0.86862575679052667
20
125.12484850042215
42
-0.084315707887141753
10
1.1838326294551254
20
125.01175272757443
42
-0.28407904384041105
10
1.4461969020971503
20
124.49049554255608
42
-0.28407904384041249
10
1.0973031720116331
20
124.02271650326588
42
-0.084315707887141531
10
0.76724612515197022
20
123.96607400835879
42
0.37671507298004442
10
0.62418042129992912
20
123.82928241103551
42
0.0011696483071461765
10
0.58220965404610325
20
123.29599324937421
42
0.37671507298010631
10
0.70211506133055268
20
123.13850537675891
42
-0.084315707887140642
10
1.019247719855765
20
123.03092794739871
42
-0.28407904384041538
10
1.2906692253996013
20
122.51432904029517
42
-0.28407904384042365
10
0.94999250343559549
20
122.04053221083751
42
-0.084315707887140975
10
0.62097427370558078
20
121.97813805312748
42
0.37671507297999174
10
0.48031770200685386
20
121.83887044901621
42
0.0011696483071343114
10
0.44766050630211024
20
121.30493001898867
42
0.37671507298010831
10
0.5702961937740787
20
121.1495587704411
42
-0.084315707887141864
10
0.88925803648000579
20
121.04753245369558
42
-0.28407904384040977
10
1.1696540973057119
20
120.53574918553836
42
-0.28407904384041816
10
0.83729815689296028
20
120.05607888901729
42
-0.08431570788714142
10
0.50941896643263707
20
119.98795207436919
42
0.3767150729801293
10
0.37121437224154619
20
119.84625088573114
42
0.0011696483071580413
10
0.34788069578402414
20
119.31182183076481
42
0.3767150729800991
10
0.47320930742511158
20
119.15861453387248
42
-0.084315707887141308
10
0.79390317544459932
20
119.06217040794603
42
-0.28407904384042643
10
1.083188380195804
20
118.55535867287635
42
-0.28407904384042065
10
0.75925446017336029
20
118.06996102151084
42
-0.084315707887140975
10
0.4326141841603745
20
117.99612230201235
42
0.37671507298016277
10
0.29690366593515094
20
117.85203069240234
42
0.0011696483071461765
10
0.2829006163887483
20
117.31727580476453
42
0.37671507298016949
10
0.410883975889763
20
117.16627912795411
42
-0.084315707887142544
10
0.7332121827640008
20
117.07544657066182
42
-0.28407904384041766
10
1.0312984123649529
20
116.57376074844382
42
-0.28407904384042137
10
0.71588518614287033
20
116.0827835990606
42
-0.084315707887141642
10
0.39058332236953119
20
116.00325546670101
42
0.37671507297995316
10
0.25740821884872034
20
115.85681732781929
42
0.0011696483071461765
10
0.25274006167793855
20
115.32189949902877
42
0.37671507298001633
10
0.38333918406777145
20
115.17315943735088
42
-0.084315707887140309
10
0.70720354550247932
20
115.08796611716961
42
-0.28407904384041632
10
1.0140000000000109
20
114.59155902616466
42
-0.28407904384041632
10
0.70720354550246189
20
114.09515193515973
42
-0.084315707887138852
10
0.38333918406777245
20
114.00995861497844
42
0.37671507298011797
10
0.25274006167792962
20
113.86121855330049
42
0.0011696483071580413
10
0.25740821884870158
20
113.32630072451013
42
0.37671507298016393
10
0.39058332236953774
20
113.17986258562834
42
-0.084315707887141197
10
0.71588518614286456
20
113.10033445326869
42
-0.28407904384042115
10
1.0312984123649525
20
112.6093573038855
42
-0.28407904384042104
10
0.73321218276400169
20
112.1076714816675
42
-0.084315707887140975
10
0.41088397588975945
20
112.01683892437522
42
0.37671507298009849
10
0.28290061638871933
20
111.86584224756484
42
0.0011696483071461765
10
0.29690366593517303
20
111.33108735992691
42
0.3767150729801334
10
0.43261418416037656
20
111.18699575031691
42
-0.084315707887140975
10
0.75925446017336073
20
111.11315703081841
42
-0.28407904384042065
10
1.0831883801958033
20
110.6277593794529
42
-0.28407904384040988
10
0.79390317544461109
20
110.12094764438328
42
-0.084315707887141975
10
0.47320930742511103
20
110.02450351845684
42
0.37671507298009921
10
0.34788069578402414
20
109.87129622156448
42
0.0011696483071461765
10
0.37121437224156867
20
109.33686716659827
42
0.37671507298023388
10
0.50941896643263684
20
109.19516597796017
42
-0.084315707887141531
10
0.83729815689296805
20
109.12703916331205
42
-0.28407904384041494
10
1.1696540973057128
20
108.64736886679097
42
-0.28407904384040988
10
0.88925803648000734
20
108.13558559863375
42
-0.084315707887141753
10
0.57029619377408136
20
108.03355928188822
42
0.37671507298011347
10
0.4476605063021033
20
107.87818803334065
42
0.0011696483071580413
10
0.48031770200684798
20
107.34424760331324
42
0.37671507298012818
10
0.6209742737055659
20
107.2049799992019
42
-0.084315707887140753
10
0.94999250343558073
20
107.14258584149185
42
-0.2840790438404075
10
1.2906692253995815
20
106.66878901203421
42
-0.28407904384041588
10
1.0192477198557544
20
106.15219010493065
42
-0.084315707887141975
10
0.7021150613305347
20
106.04461267557048
42
0.37671507298013934
10
0.58220965404608194
20
105.88712480295513
42
0.0011696483071461765
10
0.62418042129990736
20
105.35383564129393
42
0.37671507298014822
10
0.76724612515196955
20
105.21704404397059
42
-0.084315707887141753
10
1.097303172011628
20
105.16040154906351
42
-0.28407904384042354
10
1.4461969020971499
20
104.6926225097733
42
-0.28407904384040639
10
1.1838326294551185
20
104.17136532475494
42
-0.084315707887141864
10
0.86862575679052434
20
104.05826955190722
42
0.3767150729800432
10
0.7514871540421808
20
103.89871302755579
42
0.0011696483071461765
10
0.80275870814277728
20
103.36623757930555
42
0.37671507298022539
10
0.94818996494888586
20
103.23196365681584
42
-0.084315707887140642
10
1.2791852903643881
20
103.18109007856441
42
-0.28407904384040938
10
1.636189752161437
20
102.71947131946851
42
-0.28407904384041349
10
1.3829626311202068
20
102.19371463652342
42
-0.084315707887140753
10
1.0697775593831471
20
102.0751349702561
42
0.37671507297988371
10
0.95544144272411202
20
101.91355839663159
42
0.0011696483071461765
10
1.0159981658594011
20
101.38205885897186
42
0.37671507298019463
10
1.1637506758499039
20
101.25034351245341
42
-0.084315707887141308
10
1.4955834554386982
20
101.20525434744235
42
-0.28407904384040378
10
1.8605899019298391
20
100.74993648208658
42
-0.2840790438404161
10
1.6165770679235716
20
100.21984045179349
42
-0.084315707887144889
10
1.3055091963207619
20
100.09581301262162
42
0.37671507298014834
10
1.1940103936397506
20
99.932265607513358
42
0.0011696483071461765
10
1.2638338396452147
20
99.401903880352478
42
0.37671507298013407
10
1.4138625959742492
20
99.272787231575819
42
-0.084315707887141197
10
1.7464317502571289
20
99.233496214401555
42
-0.28407904384042126
10
2.1193289969428903
20
98.784617937018439
42
-0.28407904384041527
10
1.8846047786445741
20
98.250344031763404
42
-0.084315707887141864
10
1.5757488614631292
20
98.120906599646446
42
0.37671507298010531
10
1.4671213363754809
20
97.955438181178494
42
0.0011696483071461765
10
1.5461902363531466
20
97.426375817836146
42
0.37671507298031082
10
1.6984495388081973
20
97.299897196983125
42
-0.084315707887141308
10
2.0316537639991021
20
97.266416296070162
42
-0.28407904384041444
10
2.4123282227657743
20
96.824114339331373
42
-0.28407904384041704
10
2.1869641194461802
20
96.28582530412146
42
-0.084315707887144556
10
1.8804142371903856
20
96.151017306955168
42
0.37671507298011153
10
1.7746910786926229
20
95.983678278410707
42
0.0011696483071580413
10
1.8629813474895818
20
95.456076436407699
42
0.37671507298016071
10
2.0174248164121216
20
95.332274370091611
42
-0.084315707887141197
10
2.3511626152762419
20
95.304613784046666
42
-0.28407904384041494
10
2.7394983289960226
20
94.869022877412931
42
-0.28407904384040555
10
2.523562988744144
20
94.326882680302873
42
-0.084315707887141864
10
2.219412519477773
20
94.186745181909103
42
0.37671507298011053
10
2.1166259318681035
20
94.017586516377264
42
0.0011696483071580413
10
2.2141106754131701
20
93.491605908345804
42
0.37671507298011048
10
2.3706912658264505
20
93.370518107875341
42
-0.084315707887141086
10
2.7048609785972451
20
93.348686262380838
42
-0.28407904384041838
10
3.1007396564498402
20
92.919939091061948
42
-0.28407904384040961
10
2.8942988552621585
20
92.374112873207565
42
-0.084315707887142988
10
2.5926404461645189
20
92.228688560825816
42
0.3767150729801394
10
2.4928217392332641
20
92.057761785674813
42
0.0011696483071461765
10
2.5994712627291836
20
91.533562630403424
42
0.37671507298012058
10
2.7581412786685364
20
91.415225980295546
42
-0.084315707887142433
10
3.0926411140143513
20
91.399229525543205
42
-0.28407904384041816
10
3.4959421675195217
20
90.977456690080928
42
-0.28407904384042221
10
3.2990587892638619
20
90.428110715435707
42
-0.084315707887137284
10
2.9999843284086047
20
90.277443886720349
42
0.37671507298012552
10
2.9031639079008009
20
90.10480106790169
42
0.0011696483071461765
10
3.0189457248696598
20
89.582543041530982
42
0.37671507298009721
10
3.1796568339111584
20
89.46699358827567
42
-0.084315707887141753
10
3.514384899941752
20
89.456837396940529
42
-0.28407904384041671
10
3.9249854796917343
20
89.042167373426352
42
-0.28407904384041105
10
3.7377194969524288
20
88.489468978095829
42
-0.084315707887142655
10
3.4413200853174901
20
88.333605527622382
42
0.37671507298010543
10
3.347527443671261
20
88.159299253811128
42
0.0011696483071580413
10
3.4724062858498654
20
87.639141441195335
42
0.37671507298014328
10
3.635109533832857
20
87.526414382275391
42
-0.084315707887141531
10
3.9699638691367367
20
87.522101548031657
42
-0.28407904384042365
10
4.3877389022173716
20
87.11466064897175
42
-0.28407904384040794
10
4.2101473580268047
20
86.55877819024127
42
-0.084315707887139962
10
3.9165132817442903
20
86.397765595526664
42
0.37671507298016027
10
3.8257769891067817
20
86.221848962102314
42
0.0011696483071461765
10
3.9597148171901897
20
85.703949808349904
42
0.37671507298013623
10
4.1243606431291919
20
85.594079481519557
42
-0.084315707887140864
10
4.4592392478320146
20
85.595611318098406
42
-0.28407904384041394
10
4.8840614759211318
20
85.19552365393757
42
-0.28407904384040905
10
4.7161984663840721
20
84.636626458988985
42
-0.084315707887142766
10
4.4254191692380989
20
84.470513766029299
42
0.37671507298011953
10
4.3377668647630152
20
84.293040358902601
42
0.0011696483071461765
10
4.4807228799913279
20
83.777557621112777
42
0.37671507298010026
10
4.6472611311727983
20
83.670577493937856
42
-0.084315707887140753
10
4.982061998007536
20
83.67795353472701
42
-0.28407904384042221
10
5.4138020161391154
20
83.285340976043486
42
-0.28407904384041238
10
5.2557186739543553
20
82.723599290376555
42
-0.08431570788713795
10
4.9678827301356954
20
82.552437098707273
42
0.37671507297995283
10
4.8833411135641214
20
82.373460977997297
42
0.0011696483071461765
10
5.0352717701501346
20
81.860551677205763
42
0.37671507298041851
10
5.2036517174095174
20
81.756494336869196
42
-0.084315707887139962
10
5.5382728627888422
20
81.769712335055146
42
-0.28407904384041804
10
5.9767991587710139
20
81.384694475437684
42
-0.2840790438404196
10
5.8285436376559918
20
80.820279411011526
42
-0.084315707887141197
10
5.543738724781436
20
80.644119858294289
42
0.37671507298008561
10
5.4623335483087843
20
80.463695541861057
42
0.0011696483071461765
10
5.6231925667028335
20
79.953515915209238
42
0.37671507298011037
10
5.7933629198769694
20
79.852413058585199
42
-0.084315707887142211
10
6.1277024149584562
20
79.871468987837716
42
-0.28407904384041466
10
6.5728814094333359
20
79.494163107456032
42
-0.28407904384040916
10
6.4344988694559841
20
78.927246590566952
42
-0.084315707887142211
10
6.1528117418609707
20
78.746143336708016
42
0.37671507297984463
10
6.0745678022925098
20
78.564325783546295
42
0.0011696483071461765
10
6.2443061832792672
20
78.057031236690847
42
0.37671507298022133
10
6.4162151068301734
20
77.958913660688708
42
-0.084315707887140753
10
6.7501711085647891
20
77.983801716387092
42
-0.28407904384040916
10
7.2018671956981439
20
77.614322746267447
42
-0.28407904384041754
10
7.0733997895206482
20
77.045077465178281
42
-0.084315707887141753
10
6.7949162518330155
20
76.859085675983167
42
0.37671507298010648
10
6.7198573830308028
20
76.675930269480716
42
0.0011696483071461765
10
6.8984234226550747
20
76.171675329254938
42
0.37671507298012125
10
7.0720185514592702
20
76.076572921438938
42
-0.084315707887142322
10
7.4054893336137955
20
76.10728552244035
42
-0.28407904384041432
10
7.8635649224017943
20
75.745746009456241
42
-0.28407904384041671
10
7.7450517824405782
20
75.174345361794025
42
-0.084315707887142211
10
7.4698566634436325
20
74.98352169216345
42
0.37671507297997675
10
7.3980057290660994
20
74.799084223231546
42
0.0011696483071461765
10
7.5853450343825433
20
74.298022490574894
42
0.37671507298009754
10
7.7605734896821597
20
74.205964220059684
42
-0.084315707887142544
10
8.0934574738259375
20
74.242492011008295
42
-0.28407904384041383
10
8.5577730300067589
20
73.889002083597688
42
-0.28407904384041371
10
8.44925025651232
20
73.315620123534998
42
-0.084315707887141308
10
8.1774273833051865
20
73.120022700207301
42
0.37671507298011353
10
8.1088062698430718
20
72.934359350285533
42
0.0011696483071580413
10
8.3048617754843583
20
72.436643453455943
42
0.37671507298013313
10
8.4816701809944526
20
72.34765736208243
42
-0.084315707887141642
10
8.8138659674411919
20
72.389989216259295
42
-0.28407904384040866
10
9.2842800559984902
20
72.044656550878429
42
-0.28407904384041371
10
9.1857807060589174
20
71.469467936114796
42
-0.084315707887140087
10
8.9174128785219828
20
71.269156339959892
42
0.37671507297996326
10
8.8520424886311666
20
71.082323663903367
42
0.0011696483071580413
10
9.0567544741911039
20
70.588105211984214
42
0.37671507298011414
10
9.2350889723585574
20
70.502218405777938
42
-0.084315707887140309
10
9.5664953710536533
20
70.550341428490214
42
-0.28407904384041516
10
10.042864699299072
20
70.213271216814263
42
-0.28407904384042065
10
9.9544187767705381
20
69.636451155373663
42
-0.08431570788714142
10
9.6895877423437931
20
69.431486403244236
42
0.37671507298000062
10
9.6274879884783005
20
69.243541312095857
42
0.0011696483071461765
10
9.8407940967029575
20
68.752970848815323
42
0.37671507298009876
10
10.020600365112069
20
68.670209489729473
42
-0.084315707887141975
10
10.35111642645608
20
68.72410902223821
42
-0.28407904384041865
10
10.833295887677544
20
68.395403939118935
42
-0.28407904384041455
10
10.754930334044834
20
67.8171281359799
42
-0.08431570788714042
10
10.493716762826846
20
67.60757266212498
42
0.37671507298009954
10
10.434906561173278
20
67.418572405780154
42
0.0011696483071580413
10
10.656741816955819
20
66.931799363653582
42
0.37671507298011264
10
10.837965084875412
20
66.852188661599826
42
-0.084315707887140642
10
11.167490130474263
20
66.911848285585322
42
-0.28407904384041249
10
11.655332848136888
20
66.59160845777528
42
-0.28407904384041421
10
11.587071534306812
20
66.01205306134932
42
-0.084315707887140753
10
11.329554994481803
20
65.797970698396256
42
0.37671507298011919
10
11.274052259197269
20
65.607972848163982
42
0.0011696483071461765
10
11.504349089369757
20
65.12514550297557
42
0.37671507298012247
10
11.686934154436869
20
65.048709708144941
42
-0.084315707887140975
10
12.015367807769493
20
65.114111250707808
42
-0.28407904384042043
10
12.508725180255638
20
64.802434226360759
42
-0.2840790438404075
10
12.450588899285645
20
64.221775774835919
42
-0.084315707887140864
10
12.196847832886275
20
64.003231734346301
42
0.37671507298009671
10
12.144669470641603
20
63.812294165412325
42
0.0011696483071461765
10
12.383357724558666
20
63.333559591048598
42
0.37671507298010176
10
12.567248969593738
20
63.260321986524694
42
-0.08431570788714142
10
12.894491186587727
20
63.331445525721477
42
-0.28407904384041777
10
13.393212932462477
20
63.02842624467835
42
-0.28407904384041216
10
13.345219393226905
20
62.446841612243922
42
-0.084315707887140975
10
13.095331092240052
20
62.223902464849566
42
0.37671507298005108
10
13.046492997069876
20
62.032083338647077
42
0.0011696483071461765
10
13.293499967977169
20
61.557587362296864
42
0.37671507298013757
10
13.478641377925577
20
61.48757025696348
42
-0.084315707887141753
10
13.804592477431566
20
61.564394127875161
42
-0.28407904384040733
10
14.308526681219899
20
61.270124892744377
42
-0.28407904384041682
10
14.270690503015755
20
60.68779123571332
42
-0.084315707887140975
10
14.024731085838599
20
60.460524890838208
42
0.37671507298013296
10
13.979248134299791
20
60.267882637331141
42
0.0011696483071461765
10
14.234498581481084
20
59.797769795065669
42
0.37671507298011114
10
14.420833760475837
20
59.730994516811336
42
-0.084315707887141197
10
14.745394454631352
20
59.813495318142664
42
-0.28407904384041421
10
15.254387613093087
20
59.528065766183857
42
-0.28407904384041754
10
15.226720321186754
20
58.945160469029304
42
-0.084315707887140087
10
14.984764709440462
20
58.713636154203648
42
0.37671507298000162
10
14.94265075608066
20
58.520229454088735
42
0.0011696483071461765
10
15.20606692777713
20
58.054642946833582
42
0.3767150729801354
10
15.393539116317651
20
57.991129836054938
42
-0.084315707887140309
10
15.716610540791166
20
58.079282437262577
42
-0.28407904384041877
10
16.23050760967951
20
57.802779513082314
42
-0.28407904384041704
10
16.213017631796124
20
57.21948013440452
42
-0.084315707887139851
10
15.975139527503874
20
56.983768374177458
42
0.37671507298012435
10
15.936407400641279
20
56.789656141008969
42
0.0011696483071580413
10
16.207909057735208
20
56.328737790924734
42
0.37671507298019025
10
16.39646114997679
20
56.26850619433057
42
-0.084315707887140975
10
16.717944894082745
20
56.36228374327824
42
-0.2840790438404221
10
17.236589335372269
20
56.094791672345764
42
-0.2840790438404166
10
17.229281999128524
20
55.511275890786031
42
-0.084315707887138186
10
16.99555386226529
20
55.271448485243091
42
0.37671507297988832
10
16.960215360080877
20
55.076689847487856
42
0.0011696483071461765
10
17.239719800537479
20
54.620580054768759
42
0.3767150729802996
10
17.429294361686299
20
54.56364831948683
42
-0.084315707887140642
10
17.749092498361957
20
54.663022250624707
42
-0.28407904384041505
10
18.272326327931626
20
54.404622513616104
42
-0.2840790438404166
10
18.275203859212947
20
53.821068073734111
42
-0.084315707887141753
10
18.045696885633365
20
53.577198076626303
42
0.37671507298011925
10
18.013762772577309
20
53.381852359651809
42
0.0011696483071461765
10
18.3011848566364
20
52.930690059759243
42
0.3767150729801258
10
18.49172414044461
20
52.87707552774777
42
-0.084315707887140087
10
18.809739256079581
20
52.982015570813765
42
-0.28407904384041566
10
19.337403091836226
20
52.732786878792069
42
-0.28407904384042271
10
19.3504646141187
20
52.149371536923219
42
-0.084315707887139629
10
19.125248713870221
20
51.901533233414099
42
0.37671507298013091
10
19.096728717382696
20
51.705659941418205
42
0.0011696483071580413
10
19.391980893493098
20
51.259582562759256
42
0.37671507298011953
10
19.583426859849084
20
51.209301565523987
42
-0.084315707887140753
10
19.899562083958475
20
51.319775754764379
42
-0.28407904384040888
10
20.431495194386127
20
51.07979402520354
42
-0.28407904384042149
10
20.454736729003532
20
50.496695495312665
42
-0.084315707887140642
10
20.233880505031088
20
50.244964379350314
42
0.37671507298009282
10
20.208783312579293
20
50.048623177235243
42
0.0011696483071461765
10
20.511775644067932
20
49.607766599300767
42
0.37671507298041873
10
20.704069976675864
20
49.560834452920439
42
-0.084315707887141642
10
21.018229011407943
20
49.676809136826996
42
-0.28407904384041249
10
21.554269364528217
20
49.446147470486572
42
-0.28407904384041649
10
21.587683831883968
20
48.863543370034492
42
-0.084315707887144334
10
21.371254559132858
20
48.607996121355399
42
0.37671507298009987
10
21.349587815564757
20
48.411246816553316
42
0.0011696483071461765
10
21.660228008032512
20
47.97574532852736
42
0.37671507298010443
10
21.853312132175702
20
47.932176328988625
42
-0.084315707887140642
10
22.165399281645147
20
48.053616180549184
42
-0.28407904384040855
10
22.705383594373739
20
47.832344839207224
42
-0.28407904384042176
10
22.74896081609738
20
47.250412635046715
42
-0.084315707887141197
10
22.537024421020696
20
46.991127095818392
42
0.37671507297993728
10
22.518794726236173
20
46.794029620073559
42
0.0011696483071461765
10
22.83698815567103
20
46.364015879928374
42
0.37671507298031354
10
23.030803256054963
20
46.323823298770364
42
-0.084315707887141531
10
23.340723455492803
20
46.450691326229709
42
-0.28407904384041177
10
23.884487243377123
20
46.23887771128026
42
-0.28407904384041349
10
23.938213945424778
20
45.65779466559804
42
-0.084315707887141753
10
23.73083498590151
20
45.394849816707506
42
0.37671507298011297
10
23.71604789284234
20
45.197464207820211
42
0.0011696483071580413
10
24.041697634443256
20
44.773069201906708
42
0.37671507298029611
10
24.236184673110767
20
44.736265282179048
42
-0.084315707887141086
10
24.543843517821976
20
44.868522840307044
42
-0.28407904384041371
10
25.091221145144672
20
44.66623147222915
42
-0.28407904384041632
10
25.155080961842437
20
44.08617458854998
42
-0.084315707887142211
10
24.952322607512613
20
43.819650525545377
42
0.37671507298007945
10
24.940982620470464
20
43.622036909084287
42
0.0011696483071461765
10
25.273989478171657
20
43.203389912232304
42
0.37671507298024615
10
25.469089212486722
20
43.169985864765508
42
-0.084315707887139296
10
25.774392986606848
20
43.307592666628722
42
-0.28407904384041549
10
26.325217716840072
20
43.114885165332709
42
-0.28407904384041877
10
26.399191195869154
20
42.53603113460251
42
-0.084315707887138186
10
26.201115208891647
20
42.266009043295341
42
0.37671507298013046
10
26.19322578213648
20
42.068227614282321
42
0.0011696483071580413
10
26.533488318823082
20
41.655456150422772
42
0.37671507298010537
10
26.729141319516614
20
41.625462150413327
42
-0.0843157078871421
10
27.031997024558528
20
41.768376279646887
42
-0.28407904384041865
10
27.586101071153493
20
41.585311345704454
42
-0.28407904384040805
10
27.670165679475573
20
41.007836492468492
42
-0.084315707887137173
10
27.476832395714816
20
40.734398624203514
42
0.37671507297996015
10
27.472395932442399
20
40.5365096287779
42
0.0011696483071461765
10
27.819810500849641
20
40.129739432097097
42
0.37671507298012463
10
28.015957170122356
20
40.103164616007916
42
-0.084315707887139296
10
28.316272553304454
20
40.251342539583604
42
-0.28407904384042043
10
28.873487130800847
20
40.077975936347023
42
-0.28407904384041022
10
28.967617261521884
20
39.502056165039697
42
-0.08431570788713863
10
28.779085572168984
20
39.225285811640433
42
0.37671507297999102
10
28.778103423769057
20
39.027349528707134
42
0.0011696483071461765
10
29.132564198053736
20
38.626704505347696
42
0.3767150729802724
10
29.32914478773009
20
38.603556968125162
42
-0.084315707887140531
10
29.626828370077448
20
38.756953549612028
42
-0.28407904384041394
10
30.186983745517082
20
38.593338086228087
42
-0.28407904384040866
10
30.291150725687409
20
38.019148827590811
42
-0.084315707887139629
10
30.107478059321295
20
37.739130295988026
42
0.37671507298013807
10
30.109950524965789
20
37.541207018856213
42
0.0011696483071580413
10
30.471349532942448
20
37.146809209173327
42
0.37671507298012152
10
30.668304162670413
20
37.127096001781574
42
-0.08431570788714042
10
30.963265266880118
20
37.285664515094929
42
-0.28407904384041083
10
31.526190811509291
20
37.131850030418761
42
-0.28407904384041227
10
31.640362910857675
20
36.559566188061979
42
-0.084315707887142433
10
31.461605215951778
20
36.276384774613021
42
0.37671507298011903
10
31.467531542503693
20
36.078534792630343
42
0.0011696483071580413
10
31.835758698533532
20
35.690504334017334
42
0.37671507298012408
10
32.033027374025011
20
35.674231461290276
42
-0.084315707887144445
10
32.325176152087373
20
35.837923604924882
42
-0.28407904384041682
10
32.890700393332033
20
35.693956952338539
42
-0.28407904384041105
10
33.014842833930956
20
35.123752849464502
42
-0.084315707887142544
10
32.841054561810815
20
34.837494813971134
42
0.37671507297999501
10
32.850432944053637
20
34.639778394158746
42
0.0011696483071580413
10
33.225376082577824
20
34.258233484452319
42
0.37671507298010853
10
33.422898713883249
20
34.245405903264611
42
-0.08431570788714042
10
33.712146174450353
20
34.414171815007769
42
-0.28407904384041865
10
34.280096848148247
20
34.280096848148283
42
-0.28407904384042221
10
34.414171815007734
20
33.712146174450382
42
-0.084315707887141086
10
34.245405903264583
20
33.422898713883278
42
0.37671507297999729
10
34.258233484452219
20
33.225376082577881
42
0.0011696483071461765
10
34.639778394158647
20
32.850432944053701
42
0.37671507298013424
10
34.837494813971119
20
32.841054561810836
42
-0.084315707887139629
10
35.123752849464466
20
33.01484283393097
42
-0.28407904384042104
10
35.693956952338525
20
32.89070039333204
42
-0.28407904384041383
10
35.837923604924868
20
32.325176152087387
42
-0.084315707887138852
10
35.674231461290269
20
32.033027374025039
42
0.37671507298012408
10
35.690504334017334
20
31.835758698533567
42
0.0011696483071461765
10
36.078534792630194
20
31.467531542503806
42
0.3767150729802855
10
36.27638477461295
20
31.461605215951828
42
-0.084315707887142433
10
36.559566188061908
20
31.640362910857725
42
-0.28407904384041577
10
37.131850030418697
20
31.526190811509359
42
-0.28407904384041599
10
37.285664515094865
20
30.963265266880175
42
-0.084315707887141753
10
37.127096001781503
20
30.668304162670466
42
0.37671507298011531
10
37.146809209173277
20
30.471349532942522
42
0.0011696483071461765
10
37.541207018856156
20
30.109950524965868
42
0.37671507298025403
10
37.739130295987991
20
30.107478059321306
42
-0.084315707887139185
10
38.019148827590762
20
30.291150725687434
42
-0.28407904384041188
10
38.593338086228059
20
30.186983745517118
42
-0.28407904384041704
10
38.756953549612007
20
29.626828370077479
42
-0.084315707887144445
10
38.603556968125112
20
29.329144787730115
42
0.37671507298011364
10
38.626704505347611
20
29.132564198053839
42
0.0011696483071461765
10
39.027349528707035
20
28.778103423769124
42
0.37671507298014212
10
39.22528581164039
20
28.779085572169009
42
-0.08431570788714042
10
39.502056165039662
20
28.967617261521916
42
-0.28407904384041816
10
40.077975936347002
20
28.873487130800871
42
-0.2840790438404131
10
40.251342539583561
20
28.31627255330449
42
-0.08431570788714142
10
40.103164616007874
20
28.015957170122388
42
0.37671507298012463
10
40.12973943209704
20
27.819810500849673
42
0.0011696483071343114
10
40.536509628777814
20
27.472395932442474
42
0.37671507298009221
10
40.734398624203479
20
27.476832395714844
42
-0.084315707887141642
10
41.007836492468471
20
27.670165679475605
42
-0.28407904384041505
10
41.585311345704447
20
27.586101071153522
42
-0.28407904384041671
10
41.768376279646873
20
27.031997024558553
42
-0.0843157078871421
10
41.625462150413313
20
26.729141319516643
42
0.3767150729801107
10
41.655456150422737
20
26.5334883188231
42
0.0011696483071580413
10
42.068227614282407
20
26.193225782136448
42
0.37671507298013046
10
42.266009043295405
20
26.201115208891604
42
-0.084315707887138519
10
42.536031134602581
20
26.399191195869108
42
-0.28407904384040927
10
43.114885165332772
20
26.325217716840044
42
-0.28407904384042021
10
43.307592666628793
20
25.77439298660682
42
-0.08431570788714142
10
43.169985864765579
20
25.469089212486683
42
0.37671507298010704
10
43.203389912232282
20
25.27398947817165
42
0.0011696483071580413
10
43.622036909084265
20
24.940982620470496
42
0.37671507298010753
10
43.81965052554537
20
24.952322607512617
42
-0.084315707887140642
10
44.086174588549952
20
25.155080961842451
42
-0.28407904384041155
10
44.666231472229107
20
25.091221145144686
42
-0.28407904384041682
10
44.86852284030703
20
24.54384351782199
42
-0.084315707887140642
10
44.736265282179026
20
24.236184673110778
42
0.37671507298005191
10
44.773069201906573
20
24.041697634443331
42
0.0011696483071461765
10
45.197464207820147
20
23.716047892842372
42
0.37671507298018397
10
45.394849816707477
20
23.730834985901538
42
-0.084315707887139851
10
45.657794665598004
20
23.938213945424806
42
-0.2840790438404221
10
46.238877711280246
20
23.884487243377151
42
-0.28407904384041632
10
46.450691326229681
20
23.340723455492821
42
-0.084315707887141531
10
46.323823298770321
20
23.03080325605498
42
0.3767150729802361
10
46.364015879928303
20
22.836988155671047
42
0.0011696483071461765
10
46.79402962007336
20
22.518794726236337
42
0.37671507298037776
10
46.991127095818385
20
22.537024421020707
42
-0.08431570788714321
10
47.250412635046686
20
22.748960816097412
42
-0.28407904384041033
10
47.832344839207188
20
22.70538359437376
42
-0.28407904384041033
10
48.053616180549177
20
22.165399281645165
42
-0.084315707887141975
10
47.932176328988618
20
21.853312132175713
42
0.37671507297998386
10
47.975745328527289
20
21.660228008032547
42
0.0011696483071580413
10
48.411246816553266
20
21.349587815564803
42
0.37671507298014245
10
48.607996121355363
20
21.371254559132922
42
-0.08431570788714042
10
48.863543370034435
20
21.587683831884025
42
-0.28407904384040916
10
49.446147470486501
20
21.554269364528281
42
-0.28407904384041993
10
49.676809136826961
20
21.018229011407996
42
-0.084315707887139629
10
49.560834452920382
20
20.704069976675932
42
0.37671507298011825
10
49.607766599300575
20
20.511775644068049
42
0.0011696483071461765
10
50.048623177235186
20
20.208783312579367
42
0.37671507298010404
10
50.24496437935025
20
20.233880505031149
42
-0.08431570788713974
10
50.496695495312601
20
20.454736729003592
42
-0.28407904384041982
10
51.079794025203469
20
20.431495194386187
42
-0.28407904384041516
10
51.319775754764322
20
19.899562083958539
42
-0.084315707887141753
10
51.20930156552393
20
19.583426859849141
42
0.37671507298011953
10
51.259582562759192
20
19.39198089349313
42
0.0011696483071461765
10
51.705659941418233
20
19.096728717382703
42
0.37671507298013091
10
51.901533233414121
20
19.125248713870214
42
-0.084315707887140642
10
52.149371536923255
20
19.350464614118692
42
-0.28407904384041494
10
52.732786878792069
20
19.337403091836222
42
-0.28407904384041671
10
52.982015570813765
20
18.809739256079581
42
-0.084315707887139296
10
52.877075527747806
20
18.491724140444603
42
0.3767150729801258
10
52.930690059759257
20
18.301184856636397
42
0.0011696483071580413
10
53.381852359651809
20
18.013762772577348
42
0.37671507298011925
10
53.577198076626289
20
18.045696885633379
42
-0.084315707887139296
10
53.821068073734082
20
18.275203859212958
42
-0.28407904384041432
10
54.404622513616076
20
18.272326327931637
42
-0.28407904384041877
10
54.663022250624692
20
17.749092498361975
42
-0.084315707887138741
10
54.56364831948683
20
17.429294361686317
42
0.3767150729801198
10
54.620580054768659
20
17.239719800537543
42
0.0011696483071343114
10
55.076689847487678
20
16.96021536008098
42
0.37671507298017537
10
55.271448485243049
20
16.995553862265314
42
-0.084315707887143432
10
55.511275890785981
20
17.22928199912856
42
-0.28407904384041766
10
56.094791672345721
20
17.236589335372301
42
-0.28407904384041982
10
56.362283743278198
20
16.717944894082773
42
-0.084315707887140975
10
56.268506194330513
20
16.396461149976819
42
0.37671507298015744
10
56.32873779092467
20
16.207909057735232
42
0.0011696483071461765
10
56.789656141008955
20
15.936407400641308
42
0.37671507298013052
10
56.983768374177416
20
15.975139527503892
42
-0.08431570788713863
10
57.219480134404478
20
16.213017631796134
42
-0.28407904384041777
10
57.802779513082278
20
16.230507609679531
42
-0.28407904384042137
10
58.079282437262535
20
15.716610540791184
42
-0.084315707887142322
10
57.991129836054903
20
15.393539116317667
42
0.37671507297999768
10
58.054642946833468
20
15.206066927777151
42
0.0011696483071461765
10
58.52022945408855
20
14.942650756080768
42
0.37671507298043311
10
58.71363615420367
20
14.984764709440455
42
-0.084315707887140087
10
58.945160469029318
20
15.226720321186754
42
-0.28407904384041371
10
59.528065766183857
20
15.25438761309309
42
-0.28407904384041405
10
59.813495318142671
20
14.74539445463135
42
-0.084315707887140975
10
59.730994516811364
20
14.420833760475837
42
0.37671507298011114
10
59.797769795065669
20
14.23449858148107
42
0.0011696483071461765
10
60.267882637331212
20
13.979248134299782
42
0.37671507298004542
10
60.460524890838229
20
14.024731085838585
42
-0.084315707887139851
10
60.687791235713327
20
14.270690503015738
42
-0.28407904384041682
10
61.270124892744377
20
14.308526681219886
42
-0.28407904384041455
10
61.564394127875175
20
13.804592477431544
42
-0.084315707887141308
10
61.487570256963473
20
13.478641377925564
42
0.37671507298002532
10
61.557587362296829
20
13.293499967977187
42
0.0011696483071461765
10
62.032083338646899
20
13.046492997069963
42
0.37671507298026974
10
62.223902464849495
20
13.095331092240096
42
-0.084315707887140975
10
62.446841612243844
20
13.345219393226952
42
-0.28407904384041155
10
63.028426244678279
20
13.393212932462518
42
-0.28407904384041155
10
63.331445525721399
20
12.894491186587764
42
-0.084315707887141308
10
63.260321986524623
20
12.567248969593773
42
0.37671507297993684
10
63.333559591048463
20
12.383357724558763
42
0.0011696483071580413
10
63.812294165412247
20
12.14466947064167
42
0.37671507298009671
10
64.003231734346215
20
12.196847832886315
42
-0.084315707887141975
10
64.221775774835834
20
12.450588899285684
42
-0.2840790438404166
10
64.802434226360688
20
12.508725180255681
42
-0.28407904384041444
10
65.114111250707737
20
12.015367807769536
42
-0.084315707887140864
10
65.04870970814487
20
11.68693415443691
42
0.37671507298012247
10
65.125145502975499
20
11.504349089369796
42
0.0011696483071461765
10
65.607972848163897
20
11.274052259197306
42
0.37671507298011919
10
65.797970698396171
20
11.329554994481839
42
-0.084315707887138852
10
66.012053061349263
20
11.587071534306823
42
-0.28407904384041588
10
66.591608457775209
20
11.655332848136906
42
-0.28407904384041249
10
66.911848285585251
20
11.167490130474294
42
-0.084315707887141864
10
66.85218866159974
20
10.837965084875441
42
0.37671507298011264
10
66.931799363653511
20
10.656741816955826
42
0.0011696483071580413
10
67.418572405780111
20
10.434906561173287
42
0.37671507298011558
10
67.607572662124952
20
10.493716762826866
42
-0.084315707887140753
10
67.817128135979885
20
10.75493033404485
42
-0.28407904384041083
10
68.395403939118907
20
10.833295887677551
42
-0.28407904384042176
10
68.724109022238196
20
10.351116426456091
42
-0.084315707887141531
10
68.670209489729444
20
10.020600365112083
42
0.37671507298010082
10
68.752970848815281
20
9.8407940967029361
42
0.0011696483071580413
10
69.243541312095772
20
9.6274879884783147
42
0.37671507298010104
10
69.431486403244207
20
9.689587742343809
42
-0.084315707887142877
10
69.636451155373635
20
9.9544187767705559
42
-0.28407904384041804
10
70.213271216814249
20
10.042864699299088
42
-0.2840790438404161
10
70.550341428490171
20
9.5664953710536658
42
-0.084315707887141086
10
70.502218405777924
20
9.2350889723585681
42
0.37671507298011209
10
70.588105211984185
20
9.0567544741911199
42
0.0011696483071461765
10
71.082323663903267
20
8.8520424886311968
42
0.37671507298013157
10
71.269156339959878
20
8.9174128785219988
42
-0.084315707887140531
10
71.469467936114754
20
9.185780706058944
42
-0.28407904384041371
10
72.044656550878415
20
9.2842800559985097
42
-0.28407904384040866
10
72.389989216259266
20
8.8138659674412043
42
-0.084315707887141308
10
72.347657362082401
20
8.481670180994465
42
0.37671507298009516
10
72.436643453455886
20
8.3048617754843868
42
0.0011696483071461765
10
72.934359350285519
20
8.1088062698430985
42
0.37671507298010926
10
73.120022700207272
20
8.1774273833051954
42
-0.084315707887141753
10
73.315620123534984
20
8.449250256512336
42
-0.28407904384041405
10
73.88900208359766
20
8.5577730300067785
42
-0.28407904384041383
10
74.242492011008252
20
8.0934574738259517
42
-0.084315707887140753
10
74.205964220059641
20
7.760573489682181
42
0.37671507298011775
10
74.298022490574866
20
7.5853450343825379
42
0.0011696483071461765
10
74.799084223231361
20
7.3980057290661634
42
0.37671507298014761
10
74.983521692163364
20
7.4698566634436432
42
-0.084315707887142211
10
75.174345361793925
20
7.7450517824405978
42
-0.28407904384041432
10
75.745746009456127
20
7.8635649224018191
42
-0.28407904384042593
10
76.107285522440236
20
7.405489333613807
42
-0.084315707887141864
10
76.076572921438853
20
7.0720185514592835
42
0.37671507298010976
10
76.171675329254867
20
6.8984234226551067
42
0.0011696483071461765
10
76.675930269480688
20
6.7198573830307851
42
0.37671507298019224
10
76.859085675983181
20
6.7949162518329995
42
-0.084315707887141753
10
77.045077465178295
20
7.0733997895206349
42
-0.28407904384041133
10
77.614322746267447
20
7.2018671956981244
42
-0.28407904384041577
10
77.983801716387106
20
6.7501711085647722
42
-0.084315707887140975
10
77.958913660688737
20
6.4162151068301529
42
0.37671507298005202
10
78.057031236690776
20
6.2443061832792601
42
0.0011696483071461765
10
78.564325783546181
20
6.0745678022925498
42
0.37671507298010931
10
78.746143336708045
20
6.1528117418609698
42
-0.08431570788714042
10
78.927246590566952
20
6.4344988694559806
42
-0.28407904384040916
10
79.494163107456046
20
6.5728814094333394
42
-0.28407904384041466
10
79.871468987837716
20
6.1277024149584562
42
-0.084315707887141753
10
79.852413058585213
20
5.7933629198769721
42
0.37671507298028484
10
79.953515915209323
20
5.6231925667028193
42
0.0011696483071461765
10
80.463695541860972
20
5.4623335483088109
42
0.37671507298008561
10
80.644119858294218
20
5.5437387247814573
42
-0.084315707887140531
10
80.820279411011441
20
5.8285436376560114
42
-0.28407904384041566
10
81.384694475437584
20
5.9767991587710387
42
-0.28407904384041899
10
81.76971233505509
20
5.5382728627888742
42
-0.084315707887140753
10
81.756494336869082
20
5.2036517174095511
42
0.37671507298007528
10
81.860551677205507
20
5.0352717701502137
42
0.0011696483071461765
10
82.373460977997155
20
4.8833411135641729
42
0.37671507298023238
10
82.552437098707259
20
4.9678827301356971
42
-0.084315707887140642
10
82.723599290376541
20
5.2557186739543766
42
-0.28407904384041766
10
83.2853409760435
20
5.4138020161391234
42
-0.28407904384041566
10
83.67795353472701
20
4.9820619980075387
42
-0.084315707887141086
10
83.670577493937856
20
4.6472611311727983
42
0.37671507298009921
10
83.777557621112777
20
4.4807228799913368
42
0.0011696483071343114
10
84.293040358902573
20
4.337766864763049
42
0.37671507298008089
10
84.470513766029285
20
4.4254191692381077
42
-0.084315707887141753
10
84.636626458988943
20
4.7161984663840792
42
-0.28407904384041538
10
85.195523653937556
20
4.8840614759211354
42
-0.28407904384040389
10
85.595611318098364
20
4.459239247832036
42
-0.084315707887140864
10
85.594079481519501
20
4.124360643129207
42
0.37671507297977758
10
85.703949808349705
20
3.9597148171902496
42
0.0011696483071461765
10
86.2218489621023
20
3.8257769891067905
42
0.3767150729800911
10
86.397765595526636
20
3.9165132817442991
42
-0.084315707887141753
10
86.558778190241242
20
4.2101473580268198
42
-0.28407904384042165
10
87.11466064897175
20
4.3877389022173849
42
-0.28407904384042354
10
87.522101548031657
20
3.96996386913675
42
-0.084315707887142322
10
87.526414382275306
20
3.6351095338328703
42
0.37671507298012818
10
87.63914144119525
20
3.4724062858499138
42
0.0011696483071461765
10
88.159299253810985
20
3.3475274436712796
42
0.37671507298035672
10
88.333605527622368
20
3.4413200853175012
42
-0.084315707887142211
10
88.489468978095815
20
3.7377194969524403
42
-0.28407904384040578
10
89.042167373426309
20
3.9249854796917543
42
-0.28407904384042115
10
89.456837396940472
20
3.5143848999417679
42
-0.084315707887141308
10
89.466993588275642
20
3.1796568339111744
42
0.37671507298009721
10
89.58254304153094
20
3.0189457248696705
42
0.0011696483071580413
10
90.104801067901619
20
2.9031639079008551
42
0.37671507298012358
10
90.277443886720278
20
2.9999843284086203
42
-0.084315707887139962
10
90.428110715435622
20
3.2990587892638885
42
-0.28407904384041227
10
90.977456690080842
20
3.4959421675195306
42
-0.28407904384042076
10
91.399229525543134
20
3.092641114014361
42
-0.084315707887141308
10
91.415225980295446
20
2.7581412786685569
42
0.37671507298018431
10
91.533562630403367
20
2.5994712627292138
42
0.0011696483071461765
10
92.057761785674771
20
2.492821739233257
42
0.37671507298005663
10
92.228688560825759
20
2.5926404461645203
42
-0.084315707887142988
10
92.374112873207451
20
2.8942988552621722
42
-0.28407904384042021
10
92.919939091061877
20
3.1007396564498619
42
-0.28407904384041205
10
93.348686262380753
20
2.7048609785972739
42
-0.084315707887141975
10
93.370518107875228
20
2.3706912658264652
42
0.37671507298010937
10
93.491605908345704
20
2.2141106754131812
42
0.0011696483071343114
10
94.017586516377264
20
2.1166259318681115
42
0.37671507298011103
10
94.186745181909103
20
2.2194125194777747
42
-0.084315707887141975
10
94.326882680302845
20
2.5235629887441542
42
-0.28407904384041383
10
94.869022877412945
20
2.7394983289960138
42
-0.28407904384041754
10
95.304613784046694
20
2.3511626152762415
42
-0.084315707887141086
10
95.332274370091653
20
2.0174248164121216
42
0.37671507298015972
10
95.456076436407727
20
1.8629813474895762
42
0.0011696483071461765
10
95.983678278410665
20
1.7746910786926473
42
0.37671507298017798
10
96.151017306955154
20
1.8804142371904031
42
-0.084315707887143432
10
96.285825304121445
20
2.1869641194461966
42
-0.28407904384041693
10
96.824114339331345
20
2.4123282227657907
42
-0.28407904384041444
10
97.266416296070105
20
2.0316537639991101
42
-0.084315707887138852
10
97.299897196983096
20
1.6984495388082108
42
0.37671507298012624
10
97.426375817836032
20
1.5461902363531621
42
0.0011696483071461765
10
97.95543818117855
20
1.4671213363755058
42
0.37671507298012791
10
98.120906599646531
20
1.5757488614631165
42
-0.084315707887143099
10
98.250344031763447
20
1.8846047786445752
42
-0.28407904384041033
10
98.78461793701851
20
2.1193289969428912
42
-0.28407904384042282
10
99.233496214401598
20
1.7464317502571149
42
-0.084315707887137728
10
99.272787231575904
20
1.4138625959742503
42
0.37671507298013407
10
99.401903880352563
20
1.263833839645212
42
0.0011696483071461765
10
99.932265607513457
20
1.1940103936397077
42
0.37671507298008244
10
100.09581301262172
20
1.3055091963207448
42
-0.084315707887142544
10
100.21984045179357
20
1.6165770679235352
42
-0.28407904384041166
10
100.74993648208662
20
1.8605899019298318
42
-0.28407904384041743
10
101.20525434744241
20
1.4955834554386689
42
-0.084315707887139962
10
101.25034351245348
20
1.1637506758498888
42
0.37671507298015749
10
101.3820588589719
20
1.0159981658594042
42
0.0011696483071580413
10
101.91355839663143
20
0.95544144272410736
42
0.37671507298011786
10
102.07513497025607
20
1.0697775593831476
42
-0.084315707887140198
10
102.19371463652338
20
1.3829626311202106
42
-0.28407904384041505
10
102.71947131946847
20
1.6361897521614353
42
-0.28407904384041227
10
103.18109007856438
20
1.2791852903643837
42
-0.0843157078871421
10
103.23196365681582
20
0.94818996494888552
42
0.37671507298011514
10
103.36623757930545
20
0.80275870814277894
42
0.0011696483071580413
10
103.89871302755569
20
0.75148715404221178
42
0.3767150729801253
10
104.05826955190716
20
0.86862575679053067
42
-0.084315707887142988
10
104.17136532475493
20
1.1838326294551176
42
-0.28407904384041538
10
104.69262250977329
20
1.4461969020971503
42
-0.28407904384041227
10
105.16040154906348
20
1.0973031720116331
42
-0.08431570788714142
10
105.21704404397053
20
0.76724612515197044
42
0.37671507298011608
10
105.35383564129384
20
0.62418042129987583
42
0.0011696483071461765
10
105.88712480295506
20
0.58220965404610403
42
0.37671507298012447
10
106.04461267557039
20
0.70211506133054591
42
-0.084315707887144445
10
106.15219010493058
20
1.0192477198557646
42
-0.28407904384041577
10
106.66878901203413
20
1.2906692253996006
42
-0.28407904384041538
10
107.14258584149178
20
0.94999250343559549
42
-0.084315707887140975
10
107.20497999920183
20
0.62097427370558111
42
0.37671507298012835
10
107.34424760331316
20
0.48031770200685386
42
0.0011696483071343114
10
107.87818803334059
20
0.44766050630211046
42
0.37671507298010803
10
108.03355928188815
20
0.57029619377407903
42
-0.084315707887140975
10
108.13558559863367
20
0.88925803648000312
42
-0.28407904384041133
10
108.64736886679088
20
1.1696540973057128
42
-0.28407904384042676
10
109.12703916331196
20
0.83729815689295406
42
-0.084315707887139851
10
109.1951659779601
20
0.50941896643263884
42
0.37671507298013224
10
109.33686716659814
20
0.37121437224154619
42
0.0011696483071343114
10
109.87129622156442
20
0.3478806957840383
42
0.3767150729800991
10
110.02450351845675
20
0.47320930742512823
42
-0.084315707887140753
10
110.12094764438315
20
0.79390317544462852
42
-0.28407904384041827
10
110.62775937945283
20
1.0831883801958184
42
-0.28407904384042054
10
111.11315703081831
20
0.75925446017336906
42
-0.084315707887139518
10
111.18699575031684
20
0.43261418416039121
42
0.37671507298013385
10
111.33108735992684
20
0.29690366593520423
42
0.0011696483071580413
10
111.8658422475648
20
0.28290061638874786
42
0.37671507298010221
10
112.01683892437518
20
0.41088397588976044
42
-0.084315707887139296
10
112.10767148166745
20
0.7332121827640008
42
-0.28407904384041766
10
112.60935730388546
20
1.0312984123649529
42
-0.28407904384042426
10
113.10033445326867
20
0.71588518614286611
42
-0.084315707887140198
10
113.17986258562829
20
0.39058332236953491
42
0.37671507298009582
10
113.32630072451009
20
0.25740821884872034
42
0.0011696483071461765
10
113.86121855330045
20
0.25274006167793805
42
0.37671507298018242
10
114.00995861497839
20
0.38333918406777368
42
-0.084315707887145333
10
114.09515193515971
20
0.70720354550247932
42
-0.28407904384041632
10
114.59155902616466
20
1.0140000000000109
42
-0.28407904384041033
10
115.08796611716957
20
0.70720354550247166
42
-0.084315707887140642
10
115.17315943735086
20
0.38333918406777501
42
0.37671507297981838
10
115.32189949902865
20
0.25274006167792962
42
0.0011696483071343114
10
115.8568173278191
20
0.2574082188487013
42
0.37671507298020251
10
116.00325546670098
20
0.39058332236953569
42
-0.084315707887140309
10
116.08278359906059
20
0.71588518614287266
42
-0.28407904384041682
10
116.57376074844379
20
1.0312984123649527
42
-0.28407904384041766
10
117.07544657066181
20
0.73321218276401479
42
-0.084315707887143765
10
117.16627912795406
20
0.41088397588976155
42
0.37671507298000118
10
117.31727580476439
20
0.28290061638875486
42
0.0011696483071580413
10
117.85203069240234
20
0.29690366593517015
42
0.37671507298030121
10
117.99612230201242
20
0.43261418416037645
42
-0.084315707887140531
10
118.06996102151091
20
0.75925446017336573
42
-0.28407904384041804
10
118.55535867287642
20
1.0831883801958033
42
-0.28407904384041804
10
119.06217040794608
20
0.79390317544461819
42
-0.084315707887143432
10
119.15861453387251
20
0.47320930742511125
42
0.3767150729800996
10
119.31182183076487
20
0.3478806957840419
42
0.0011696483071461765
10
119.84625088573114
20
0.37121437224157217
42
0.37671507298013079
10
119.98795207436919
20
0.50941896643263862
42
-0.084315707887139518
10
120.05607888901729
20
0.8372981568929615
42
-0.28407904384041827
10
120.53574918553836
20
1.1696540973057121
42
-0.28407904384041838
10
121.0475324536956
20
0.8892580364800079
42
-0.084315707887141864
10
121.1495587704411
20
0.57029619377407514
42
0.37671507298010176
10
121.30493001898867
20
0.44766050630208554
42
0.0011696483071461765
10
121.8388704490161
20
0.48031770200684837
42
0.3767150729801278
10
121.97813805312745
20
0.62097427370556657
42
-0.084315707887144112
10
122.04053221083751
20
0.94999250343558206
42
-0.28407904384042354
10
122.51432904029517
20
1.2906692253995806
42
-0.28407904384041549
10
123.03092794739869
20
1.0192477198557395
42
-0.08431570788713795
10
123.13850537675887
20
0.70211506133053048
42
0.37671507297996043
10
123.29599324937412
20
0.58220965404604641
42
0.0011696483071461765
10
123.82928241103531
20
0.62418042129990192
42
0.37671507298028623
10
123.9660740083587
20
0.76724612515197077
42
-0.084315707887141308
0
CIRCLE
5
101
100
AcDbEntity
8
0
100
AcDbCircle
10
36.091559026164646
20
114.59155902616466
30
0
40
1.5000000000000002
210
0
220
0
230
1
0
CIRCLE
5
102
100
AcDbEntity
8
0
100
AcDbCircle
10
193.09155902616465
20
114.59155902616466
30
0
40
1.5000000000000002
210
0
220
0
230
1
0
CIRCLE
5
103
100
AcDbEntity
8
0
100
AcDbCircle
10
114.59155902616466
20
193.09155902616465
30
0
40
1.5000000000000002
210
0
220
0
230
1
0
CIRCLE
5
104
100
AcDbEntity
8
0
100
AcDbCircle
10
193.09155902616465
20
114.59155902616466
30
0
40
1.5000000000000002
210
0
220
0
230
1
0
CIRCLE
5
105
100
AcDbEntity
8
0
100
AcDbCircle
10
114.59155902616466
20
36.091559026164646
30
0
40
1.5000000000000002
210
0
220
0
230
1
0
CIRCLE
5
106
100
AcDbEntity
8
0
100
AcDbCircle
10
114.59155902616466
20
114.59155902616466
30
0
40
34.25
210
0
220
0
230
1
0
ENDSEC
0
SECTION
2
OBJECTS
0
DICTIONARY
5
C
100
AcDbDictionary
3
ACAD_GROUP
350
D
3
ACAD_MLINESTYLE
350
17
0
DICTIONARY
5
D
100
AcDbDictionary
0
DICTIONARY
5
1A
330
C
100
AcDbDictionary
0
DICTIONARY
5
17
100
AcDbDictionary
0
ENDSEC
0
EOF
