0
SECTION
2
HEADER
9
$INSUNITS
70
4
9
$ACADVER
1
AC1014
9
$HANDSEED
5
FFFF
0
ENDSEC
0
SECTION
2
TABLES
0
TABLE
2
VPORT
5
8
100
AcDbSymbolTable
0
ENDTAB
0
TABLE
2
LTYPE
5
5
100
AcDbSymbolTable
0
LTYPE
5
14
100
AcDbSymbolTableRecord
100
AcDbLinetypeTableRecord
2
BYBLOCK
70
0
0
LTYPE
5
15
100
AcDbSymbolTableRecord
100
AcDbLinetypeTableRecord
2
BYLAYER
70
0
0
ENDTAB
0
TABLE
2
LAYER
5
2
100
AcDbSymbolTable
70
2
0
LAYER
5
50
100
AcDbSymbolTableRecord
100
AcDbLayerTableRecord
2
0
70
0
6
CONTINUOUS
0
ENDTAB
0
TABLE
2
STYLE
5
3
100
AcDbSymbolTable
70
1
0
STYLE
5
11
100
AcDbSymbolTableRecord
100
AcDbTextStyleTableRecord
2
STANDARD
70
0
0
ENDTAB
0
TABLE
2
VIEW
5
6
100
AcDbSymbolTable
70
0
0
ENDTAB
0
TABLE
2
UCS
5
7
100
AcDbSymbolTable
70
0
0
ENDTAB
0
TABLE
2
APPID
5
9
100
AcDbSymbolTable
70
2
0
APPID
5
12
100
AcDbSymbolTableRecord
100
AcDbRegAppTableRecord
2
ACAD
70
0
0
ENDTAB
0
TABLE
2
DIMSTYLE
5
A
100
AcDbSymbolTable
70
1
0
ENDTAB
0
TABLE
2
BLOCK_RECORD
5
1
100
AcDbSymbolTable
70
1
0
BLOCK_RECORD
5
1F
100
AcDbSymbolTableRecord
100
AcDbBlockTableRecord
2
*MODEL_SPACE
0
BLOCK_RECORD
5
1B
100
AcDbSymbolTableRecord
100
AcDbBlockTableRecord
2
*PAPER_SPACE
0
ENDTAB
0
ENDSEC
0
SECTION
2
BLOCKS
0
BLOCK
5
20
100
AcDbEntity
100
AcDbBlockBegin
2
*MODEL_SPACE
0
ENDBLK
5
21
100
AcDbEntity
100
AcDbBlockEnd
0
BLOCK
5
1C
100
AcDbEntity
100
AcDbBlockBegin
2
*PAPER_SPACE
0
ENDBLK
5
1D
100
AcDbEntity
100
AcDbBlockEnd
0
ENDSEC
0
SECTION
2
ENTITIES
0
CIRCLE
5
100
100
AcDbEntity
8
0
100
AcDbCircle
10
0
20
0
30
0
40
60
210
0
220
0
230
1
0
LINE
5
101
100
AcDbEntity
8
0
100
AcDbLine
10
-139.99999999999997
20
-139.99999999999997
30
0
11
-114.99999999999999
21
-139.99999999999997
31
0
0
LWPOLYLINE
5
102
100
AcDbEntity
8
0
100
AcDbPolyline
90
4
70
1
43
0.0
10
-134.99999999999997
20
114.99999999999999
10
-114.99999999999999
20
114.99999999999999
10
-114.99999999999999
20
134.99999999999997
10
-134.99999999999997
20
134.99999999999997
0
LWPOLYLINE
5
103
100
AcDbEntity
8
0
100
AcDbPolyline
90
4
70
1
43
0.0
10
134.99999999999997
20
114.99999999999999
10
114.99999999999999
20
114.99999999999999
10
114.99999999999999
20
134.99999999999997
10
134.99999999999997
20
134.99999999999997
0
LWPOLYLINE
5
104
100
AcDbEntity
8
0
100
AcDbPolyline
90
4
70
1
43
0.0
10
134.99999999999997
20
-114.99999999999999
10
114.99999999999999
20
-114.99999999999999
10
114.99999999999999
20
-134.99999999999997
10
134.99999999999997
20
-134.99999999999997
0
LINE
5
105
100
AcDbEntity
8
0
100
AcDbLine
10
-114.99999999999999
20
-114.99999999999999
30
0
11
-134.99999999999997
21
-114.99999999999999
31
0
0
LINE
5
106
100
AcDbEntity
8
0
100
AcDbLine
10
-134.99999999999997
20
-114.99999999999999
30
0
11
-134.99999999999997
21
-134.99999999999997
31
0
0
LINE
5
107
100
AcDbEntity
8
0
100
AcDbLine
10
-134.99999999999997
20
-134.99999999999997
30
0
11
-114.99999999999999
21
-134.99999999999997
31
0
0
LINE
5
108
100
AcDbEntity
8
0
100
AcDbLine
10
-114.99999999999999
20
-134.99999999999997
30
0
11
-114.99999999999999
21
-114.99999999999999
31
0
0
LWPOLYLINE
5
109
100
AcDbEntity
8
0
100
AcDbPolyline
90
5
70
1
43
0.0
10
-75.517590017160884
20
98.145007015130403
10
-73.749823064194516
20
96.377240062164034
10
-71.982056111228147
20
94.609473109197666
10
-68.446522205295409
20
98.145007015130403
10
-71.982056111228147
20
101.68054092106314
0
CIRCLE
5
110
100
AcDbEntity
8
0
100
AcDbCircle
10
-73.749823064194516
20
99.912773968096772
30
0
40
2.4999999999999951
210
0
220
0
230
1
0
CIRCLE
5
111
100
AcDbEntity
8
0
100
AcDbCircle
10
-70.214289158261778
20
96.37724006216402
30
0
40
2.4999999999999982
210
0
220
0
230
1
0
CIRCLE
5
112
100
AcDbEntity
8
0
100
AcDbCircle
10
-96.377240062164034
20
70.214289158261764
30
0
40
2.4999999999999982
210
0
220
0
230
1
0
LWPOLYLINE
5
113
100
AcDbEntity
8
0
100
AcDbPolyline
90
5
70
1
43
0.0
10
-101.68054092106314
20
71.982056111228147
10
-98.145007015130403
20
75.51759001716087
10
-96.377240062164034
20
73.74982306419453
10
-94.609473109197666
20
71.982056111228133
10
-98.145007015130403
20
68.446522205295409
0
CIRCLE
5
114
100
AcDbEntity
8
0
100
AcDbCircle
10
-99.912773968096772
20
73.74982306419453
30
0
40
2.4999999999999951
210
0
220
0
230
1
0
LINE
5
115
100
AcDbEntity
8
0
100
AcDbLine
10
-127.49999999999999
20
104.49999999999997
30
0
11
-127.49999999999999
21
105.49999999999997
31
0
0
LINE
5
116
100
AcDbEntity
8
0
100
AcDbLine
10
-122.49999999999999
20
105.49999999999997
30
0
11
-122.49999999999999
21
103.49999999999997
31
0
0
LINE
5
117
100
AcDbEntity
8
0
100
AcDbLine
10
-122.49999999999999
20
103.49999999999997
30
0
11
-127.49999999999999
21
103.49999999999997
31
0
0
LINE
5
118
100
AcDbEntity
8
0
100
AcDbLine
10
-127.49999999999999
20
103.49999999999997
30
0
11
-127.49999999999999
21
105.49999999999997
31
0
0
CIRCLE
5
119
100
AcDbEntity
8
0
100
AcDbCircle
10
-124.99999999999999
20
105.49999999999997
30
0
40
2.5
210
0
220
0
230
1
0
CIRCLE
5
120
100
AcDbEntity
8
0
100
AcDbCircle
10
-124.99999999999999
20
103.49999999999997
30
0
40
2.5
210
0
220
0
230
1
0
CIRCLE
5
121
100
AcDbEntity
8
0
100
AcDbCircle
10
-103.49999999999997
20
124.99999999999999
30
0
40
2.5
210
0
220
0
230
1
0
CIRCLE
5
122
100
AcDbEntity
8
0
100
AcDbCircle
10
-105.49999999999997
20
124.99999999999999
30
0
40
2.5
210
0
220
0
230
1
0
LINE
5
123
100
AcDbEntity
8
0
100
AcDbLine
10
-105.49999999999997
20
122.49999999999999
30
0
11
-103.49999999999997
21
122.49999999999999
31
0
0
LINE
5
124
100
AcDbEntity
8
0
100
AcDbLine
10
-104.49999999999997
20
127.49999999999999
30
0
11
-105.49999999999997
21
127.49999999999999
31
0
0
LINE
5
125
100
AcDbEntity
8
0
100
AcDbLine
10
-103.49999999999997
20
127.49999999999999
30
0
11
-105.49999999999997
21
127.49999999999999
31
0
0
LINE
5
126
100
AcDbEntity
8
0
100
AcDbLine
10
-103.49999999999997
20
122.49999999999999
30
0
11
-103.49999999999997
21
127.49999999999999
31
0
0
LINE
5
127
100
AcDbEntity
8
0
100
AcDbLine
10
122.50000000000001
20
-105.50000000000003
30
0
11
122.50000000000001
21
-103.5
31
0
0
LINE
5
128
100
AcDbEntity
8
0
100
AcDbLine
10
127.50000000000001
20
-103.5
30
0
11
127.50000000000001
21
-105.50000000000003
31
0
0
LINE
5
129
100
AcDbEntity
8
0
100
AcDbLine
10
127.50000000000001
20
-104.50000000000001
30
0
11
127.50000000000001
21
-105.50000000000003
31
0
0
LINE
5
130
100
AcDbEntity
8
0
100
AcDbLine
10
122.50000000000001
20
-103.5
30
0
11
127.50000000000001
21
-103.5
31
0
0
CIRCLE
5
131
100
AcDbEntity
8
0
100
AcDbCircle
10
124.99999999999999
20
-105.49999999999999
30
0
40
2.5
210
0
220
0
230
1
0
CIRCLE
5
132
100
AcDbEntity
8
0
100
AcDbCircle
10
124.99999999999999
20
-103.49999999999996
30
0
40
2.5
210
0
220
0
230
1
0
CIRCLE
5
133
100
AcDbEntity
8
0
100
AcDbCircle
10
103.5
20
-125.00000000000001
30
0
40
2.5
210
0
220
0
230
1
0
CIRCLE
5
134
100
AcDbEntity
8
0
100
AcDbCircle
10
105.49999999999999
20
-125.00000000000001
30
0
40
2.5
210
0
220
0
230
1
0
LINE
5
135
100
AcDbEntity
8
0
100
AcDbLine
10
105.49999999999999
20
-122.50000000000001
30
0
11
103.5
21
-122.50000000000001
31
0
0
LINE
5
136
100
AcDbEntity
8
0
100
AcDbLine
10
104.50000000000001
20
-127.50000000000001
30
0
11
105.50000000000003
21
-127.50000000000001
31
0
0
LINE
5
137
100
AcDbEntity
8
0
100
AcDbLine
10
103.50000000000003
20
-127.50000000000001
30
0
11
105.50000000000003
21
-127.50000000000001
31
0
0
LINE
5
138
100
AcDbEntity
8
0
100
AcDbLine
10
-103.50000000000003
20
-127.50000000000001
30
0
11
-105.50000000000003
21
-127.50000000000001
31
0
0
LINE
5
139
100
AcDbEntity
8
0
100
AcDbLine
10
-104.50000000000001
20
-127.50000000000001
30
0
11
-105.50000000000003
21
-127.50000000000001
31
0
0
CIRCLE
5
140
100
AcDbEntity
8
0
100
AcDbCircle
10
-105.49999999999999
20
-125.00000000000001
30
0
40
2.5
210
0
220
0
230
1
0
LINE
5
141
100
AcDbEntity
8
0
100
AcDbLine
10
-105.49999999999999
20
-122.50000000000001
30
0
11
-103.5
21
-122.50000000000001
31
0
0
CIRCLE
5
142
100
AcDbEntity
8
0
100
AcDbCircle
10
-103.5
20
-125.00000000000001
30
0
40
2.5
210
0
220
0
230
1
0
LINE
5
143
100
AcDbEntity
8
0
100
AcDbLine
10
-127.50000000000001
20
-103.5
30
0
11
-127.50000000000001
21
-105.50000000000003
31
0
0
LINE
5
144
100
AcDbEntity
8
0
100
AcDbLine
10
-127.50000000000001
20
-104.50000000000001
30
0
11
-127.50000000000001
21
-105.50000000000003
31
0
0
LINE
5
145
100
AcDbEntity
8
0
100
AcDbLine
10
-122.50000000000001
20
-105.50000000000003
30
0
11
-122.50000000000001
21
-103.5
31
0
0
CIRCLE
5
146
100
AcDbEntity
8
0
100
AcDbCircle
10
-124.99999999999999
20
-105.49999999999999
30
0
40
2.5
210
0
220
0
230
1
0
LINE
5
147
100
AcDbEntity
8
0
100
AcDbLine
10
-122.50000000000001
20
-103.5
30
0
11
-127.50000000000001
21
-103.5
31
0
0
CIRCLE
5
148
100
AcDbEntity
8
0
100
AcDbCircle
10
-124.99999999999999
20
-103.49999999999996
30
0
40
2.5
210
0
220
0
230
1
0
LINE
5
149
100
AcDbEntity
8
0
100
AcDbLine
10
127.50000000000001
20
103.5
30
0
11
127.50000000000001
21
105.50000000000003
31
0
0
CIRCLE
5
150
100
AcDbEntity
8
0
100
AcDbCircle
10
124.99999999999999
20
103.49999999999996
30
0
40
2.5
210
0
220
0
230
1
0
LINE
5
151
100
AcDbEntity
8
0
100
AcDbLine
10
122.50000000000001
20
103.5
30
0
11
127.50000000000001
21
103.5
31
0
0
CIRCLE
5
152
100
AcDbEntity
8
0
100
AcDbCircle
10
124.99999999999999
20
105.49999999999999
30
0
40
2.5
210
0
220
0
230
1
0
LINE
5
153
100
AcDbEntity
8
0
100
AcDbLine
10
127.50000000000001
20
104.50000000000001
30
0
11
127.50000000000001
21
105.50000000000003
31
0
0
LINE
5
154
100
AcDbEntity
8
0
100
AcDbLine
10
122.50000000000001
20
105.50000000000003
30
0
11
122.50000000000001
21
103.5
31
0
0
LINE
5
155
100
AcDbEntity
8
0
100
AcDbLine
10
104.49999999999997
20
127.49999999999999
30
0
11
105.49999999999997
21
127.49999999999999
31
0
0
LINE
5
156
100
AcDbEntity
8
0
100
AcDbLine
10
105.49999999999997
20
122.49999999999999
30
0
11
103.49999999999997
21
122.49999999999999
31
0
0
LINE
5
157
100
AcDbEntity
8
0
100
AcDbLine
10
103.49999999999997
20
122.49999999999999
30
0
11
103.49999999999997
21
127.49999999999999
31
0
0
LINE
5
158
100
AcDbEntity
8
0
100
AcDbLine
10
103.49999999999997
20
127.49999999999999
30
0
11
105.49999999999997
21
127.49999999999999
31
0
0
CIRCLE
5
159
100
AcDbEntity
8
0
100
AcDbCircle
10
103.49999999999997
20
124.99999999999999
30
0
40
2.5
210
0
220
0
230
1
0
CIRCLE
5
160
100
AcDbEntity
8
0
100
AcDbCircle
10
105.49999999999997
20
124.99999999999999
30
0
40
2.5
210
0
220
0
230
1
0
CIRCLE
5
161
100
AcDbEntity
8
0
100
AcDbCircle
10
66.821590822128755
20
66.821590822128755
30
0
40
1.5000000000000036
210
0
220
0
230
1
0
CIRCLE
5
162
100
AcDbEntity
8
0
100
AcDbCircle
10
-66.821590822128755
20
66.821590822128755
30
0
40
1.5000000000000036
210
0
220
0
230
1
0
CIRCLE
5
163
100
AcDbEntity
8
0
100
AcDbCircle
10
-66.821590822128755
20
-66.821590822128755
30
0
40
1.5000000000000036
210
0
220
0
230
1
0
CIRCLE
5
164
100
AcDbEntity
8
0
100
AcDbCircle
10
66.821590822128755
20
-66.821590822128755
30
0
40
1.5000000000000036
210
0
220
0
230
1
0
LINE
5
165
100
AcDbEntity
8
0
100
AcDbLine
10
139.99999999999997
20
139.99999999999997
30
0
11
-139.99999999999997
21
139.99999999999997
31
0
0
LINE
5
166
100
AcDbEntity
8
0
100
AcDbLine
10
139.99999999999997
20
-139.99999999999997
30
0
11
139.99999999999997
21
140.00000000000003
31
0
0
LINE
5
167
100
AcDbEntity
8
0
100
AcDbLine
10
134.99999999999997
20
-114.99999999999999
30
0
11
139.99999999999997
21
-114.99999999999999
31
0
0
LINE
5
168
100
AcDbEntity
8
0
100
AcDbLine
10
139.99999999999997
20
-139.99999999999997
30
0
11
-140.00000000000003
21
-139.99999999999997
31
0
0
LINE
5
169
100
AcDbEntity
8
0
100
AcDbLine
10
114.99999999999999
20
-134.99999999999997
30
0
11
114.99999999999999
21
-139.99999999999997
31
0
0
LINE
5
170
100
AcDbEntity
8
0
100
AcDbLine
10
-139.99999999999997
20
139.99999999999997
30
0
11
-139.99999999999997
21
-140.00000000000003
31
0
0
LINE
5
171
100
AcDbEntity
8
0
100
AcDbLine
10
-114.99999999999999
20
-134.99999999999997
30
0
11
-114.99999999999999
21
-139.99999999999997
31
0
0
LINE
5
172
100
AcDbEntity
8
0
100
AcDbLine
10
-134.99999999999997
20
-114.99999999999999
30
0
11
-139.99999999999997
21
-114.99999999999999
31
0
0
LINE
5
173
100
AcDbEntity
8
0
100
AcDbLine
10
-114.99999999999999
20
134.99999999999997
30
0
11
-114.99999999999999
21
139.99999999999997
31
0
0
LINE
5
174
100
AcDbEntity
8
0
100
AcDbLine
10
-134.99999999999997
20
114.99999999999999
30
0
11
-139.99999999999997
21
114.99999999999999
31
0
0
LINE
5
175
100
AcDbEntity
8
0
100
AcDbLine
10
-87.980347035573786
20
82.146716090784778
30
0
11
-89.748113988540155
21
83.914483043751147
31
0
0
LINE
5
176
100
AcDbEntity
8
0
100
AcDbLine
10
-83.914483043751147
20
89.748113988540155
30
0
11
-80.37894913781841
21
86.212580082607403
31
0
0
LINE
5
177
100
AcDbEntity
8
0
100
AcDbLine
10
-86.212580082607417
20
80.378949137818395
30
0
11
-87.980347035573786
21
82.146716090784778
31
0
0
CIRCLE
5
178
100
AcDbEntity
8
0
100
AcDbCircle
10
-86.831298516145637
20
86.831298516145637
30
0
40
4.1249999999999982
210
0
220
0
230
1
0
CIRCLE
5
179
100
AcDbEntity
8
0
100
AcDbCircle
10
-83.295764610212927
20
83.295764610212913
30
0
40
4.1249999999999982
210
0
220
0
230
1
0
LINE
5
180
100
AcDbEntity
8
0
100
AcDbLine
10
134.99999999999997
20
114.99999999999999
30
0
11
139.99999999999997
21
114.99999999999999
31
0
0
LINE
5
181
100
AcDbEntity
8
0
100
AcDbLine
10
114.99999999999999
20
134.99999999999997
30
0
11
114.99999999999999
21
139.99999999999997
31
0
0
ENDSEC
0
SECTION
2
OBJECTS
0
DICTIONARY
5
C
100
AcDbDictionary
3
ACAD_GROUP
350
D
3
ACAD_MLINESTYLE
350
17
0
DICTIONARY
5
D
100
AcDbDictionary
0
DICTIONARY
5
1A
330
C
100
AcDbDictionary
0
DICTIONARY
5
17
100
AcDbDictionary
0
ENDSEC
0
EOF
